<?xml version="1.0" encoding="UTF-8"?>
<svg width="571px" height="405px" viewBox="0 0 571 405" version="1.1" xmlns="http://www.w3.org/2000/svg" xmlns:xlink="http://www.w3.org/1999/xlink">
    <!-- Generator: Sketch 42 (36781) - http://www.bohemiancoding.com/sketch -->
    <title>Group</title>
    <desc>Created with Sketch.</desc>
    <defs></defs>
    <g id="What" stroke="none" stroke-width="1" fill="none" fill-rule="evenodd">
        <g id="A5" transform="translate(-12.000000, -15.000000)">
            <g id="Group" transform="translate(13.000000, 8.000000)">
                <text id="DrupalCamp-Nordics-w" font-family="JosefinSans-Light, Josefin Sans" font-size="12" font-weight="300" fill="#000000">
                    <tspan x="7" y="86">DrupalCamp Nordics will hold its first ever event in </tspan>
                    <tspan x="7" y="100">Helsinki, Finland, on May 11 - 13 2017. It is the kick-off </tspan>
                    <tspan x="7" y="114">event for an annual Nordic conference that will change </tspan>
                    <tspan x="7" y="128">location each year. DrupalCamp Nordics is organized by </tspan>
                    <tspan x="7" y="142">joint Drupal forces from all Nordic Countries of Europe.</tspan>
                    <tspan x="7" y="156"></tspan>
                    <tspan x="7" y="170">The organizers’ goal is to put this geographical area on </tspan>
                    <tspan x="7" y="184">the Drupal map and to create a connection point for </tspan>
                    <tspan x="7" y="198">everyone in the Drupal world who is interested in what this </tspan>
                    <tspan x="7" y="212">region can offer to the field.</tspan>
                    <tspan x="7" y="226"></tspan>
                    <tspan x="7" y="240">We expect to have 250 attendees both from the Nordic </tspan>
                    <tspan x="7" y="254">countries and from the rest of Europe. With our </tspan>
                    <tspan x="7" y="268">affordable tickets, starting from €30 early bird prices for </tspan>
                    <tspan x="7" y="282">the event, we are giving everyone the opportunity to join </tspan>
                    <tspan x="7" y="296">us in the heart of Finland to celebrate Drupal together.</tspan>
                    <tspan x="7" y="310"></tspan>
                    <tspan x="7" y="324">We want the event to be as cool as possible. Let’s make it </tspan>
                    <tspan x="7" y="338">the one event of 2017 that absolutely can’t be missed!</tspan>
                </text>
                <text id="What-is-DrupalCamp-N" font-family="JosefinSans-Light, Josefin Sans" font-size="41" font-weight="300" fill="#599AA8">
                    <tspan x="7" y="39">What is DrupalCamp Nordics?</tspan>
                </text>
                <text id="Our-goals" font-family="JosefinSans-Light, Josefin Sans" font-size="22" font-weight="300" fill="#599AA8">
                    <tspan x="306" y="90">Our goals</tspan>
                </text>
                <text id="We-have-two-main-goa" font-family="JosefinSans-Light, Josefin Sans" font-size="12" font-weight="300" fill="#000000">
                    <tspan x="307.5" y="100"></tspan>
                    <tspan x="307.5" y="114">We have two main goals in organizing the conference. </tspan>
                    <tspan x="307.5" y="128">First of all, we wish to unite Drupal users in the Nordic </tspan>
                    <tspan x="307.5" y="142">countries. Why not have one awesome mutual Drupal </tspan>
                    <tspan x="307.5" y="156">event instead of multiple minor ones? Organizing and </tspan>
                    <tspan x="307.5" y="170">visiting DrupalCamp Nordics together is a good way to </tspan>
                    <tspan x="307.5" y="184">feel a part of the same team across country borders. It is </tspan>
                    <tspan x="307.5" y="198">community building at its best.</tspan>
                    <tspan x="307.5" y="212"></tspan>
                    <tspan x="307.5" y="226">Secondly, we wish to make our work known to the rest of </tspan>
                    <tspan x="307.5" y="240">the Europe and encourage business cooperation. There </tspan>
                    <tspan x="307.5" y="254">are multiple superb Drupalers and Drupal companies </tspan>
                    <tspan x="307.5" y="268">working in the Nordic countries who help make Drupal </tspan>
                    <tspan x="307.5" y="282">better every single day. Drupalcamp Nordics is a place to </tspan>
                    <tspan x="307.5" y="296">build business relationships and foster networking </tspan>
                    <tspan x="307.5" y="310">between the regional Drupal resources and the European </tspan>
                    <tspan x="307.5" y="324">markets.</tspan>
                    <tspan x="307.5" y="338"></tspan>
                    <tspan x="307.5" y="352">Drupalcamp Nordics will be an environment where the </tspan>
                    <tspan x="307.5" y="366">supplies and the demands can meet.</tspan>
                </text>
                <g id="Group-2" transform="translate(0.000000, 397.000000)">
                    <g id="Group-42" transform="translate(49.426122, 0.910156)">
                        <polygon id="Fill-40" fill="#FFFFFF" points="0.385667153 0.404674899 25.8396992 0.404674899 25.8396992 24.6851689 0.385667153 24.6851689"></polygon>
                        <polygon id="Stroke-41" stroke="#95989A" points="0.385667153 0.404674899 25.8396992 0.404674899 25.8396992 24.6851689 0.385667153 24.6851689"></polygon>
                    </g>
                    <g id="Group-45" transform="translate(98.791517, 0.910156)">
                        <polygon id="Fill-43" fill="#FFFFFF" points="0.385667153 0.404674899 25.8396992 0.404674899 25.8396992 24.6851689 0.385667153 24.6851689"></polygon>
                        <polygon id="Stroke-44" stroke="#95989A" points="0.385667153 0.404674899 25.8396992 0.404674899 25.8396992 24.6851689 0.385667153 24.6851689"></polygon>
                    </g>
                    <g id="Group-48" transform="translate(148.156913, 0.910156)">
                        <polygon id="Fill-46" fill="#FFFFFF" points="0.385667153 0.404674899 25.8396992 0.404674899 25.8396992 24.6851689 0.385667153 24.6851689"></polygon>
                        <polygon id="Stroke-47" stroke="#95989A" points="0.385667153 0.404674899 25.8396992 0.404674899 25.8396992 24.6851689 0.385667153 24.6851689"></polygon>
                    </g>
                    <g id="Group-51" transform="translate(197.522308, 0.910156)">
                        <polygon id="Fill-49" fill="#FFFFFF" points="0.385667153 0.404674899 25.8396992 0.404674899 25.8396992 24.6851689 0.385667153 24.6851689"></polygon>
                        <polygon id="Stroke-50" stroke="#95989A" points="0.385667153 0.404674899 25.8396992 0.404674899 25.8396992 24.6851689 0.385667153 24.6851689"></polygon>
                    </g>
                    <g id="Group-54" transform="translate(246.887704, 0.910156)">
                        <polygon id="Fill-52" fill="#FFFFFF" points="0.385667153 0.404674899 25.8396992 0.404674899 25.8396992 24.6851689 0.385667153 24.6851689"></polygon>
                        <polygon id="Stroke-53" stroke="#95989A" points="0.385667153 0.404674899 25.8396992 0.404674899 25.8396992 24.6851689 0.385667153 24.6851689"></polygon>
                    </g>
                    <g id="Group-57" transform="translate(296.253100, 0.910156)">
                        <polygon id="Fill-55" fill="#FFFFFF" points="0.385667153 0.404674899 25.8396992 0.404674899 25.8396992 24.6851689 0.385667153 24.6851689"></polygon>
                        <polygon id="Stroke-56" stroke="#95989A" points="0.385667153 0.404674899 25.8396992 0.404674899 25.8396992 24.6851689 0.385667153 24.6851689"></polygon>
                    </g>
                    <g id="Group-60" transform="translate(345.618495, 0.910156)">
                        <polygon id="Fill-58" fill="#FFFFFF" points="0.385667153 0.404674899 25.8396992 0.404674899 25.8396992 24.6851689 0.385667153 24.6851689"></polygon>
                        <polygon id="Stroke-59" stroke="#95989A" points="0.385667153 0.404674899 25.8396992 0.404674899 25.8396992 24.6851689 0.385667153 24.6851689"></polygon>
                    </g>
                    <g id="Group-63" transform="translate(394.983891, 0.910156)">
                        <polygon id="Fill-61" fill="#FFFFFF" points="0.385667153 0.404674899 25.8396992 0.404674899 25.8396992 24.6851689 0.385667153 24.6851689"></polygon>
                        <polygon id="Stroke-62" stroke="#95989A" points="0.385667153 0.404674899 25.8396992 0.404674899 25.8396992 24.6851689 0.385667153 24.6851689"></polygon>
                    </g>
                    <g id="Group-66" transform="translate(444.349286, 0.910156)">
                        <polygon id="Fill-64" fill="#FFFFFF" points="0.385667153 0.404674899 25.8396992 0.404674899 25.8396992 24.6851689 0.385667153 24.6851689"></polygon>
                        <polygon id="Stroke-65" stroke="#95989A" points="0.385667153 0.404674899 25.8396992 0.404674899 25.8396992 24.6851689 0.385667153 24.6851689"></polygon>
                    </g>
                    <g id="Group-69" transform="translate(493.714682, 0.910156)">
                        <polygon id="Fill-67" fill="#FFFFFF" points="0.385667153 0.404674899 25.8396992 0.404674899 25.8396992 24.6851689 0.385667153 24.6851689"></polygon>
                        <polygon id="Stroke-68" stroke="#95989A" points="0.385667153 0.404674899 25.8396992 0.404674899 25.8396992 24.6851689 0.385667153 24.6851689"></polygon>
                    </g>
                    <g id="Group-39" transform="translate(0.060726, 0.910156)">
                        <polygon id="Fill-37" fill="#FFFFFF" points="0.385667153 0.404674899 25.8396992 0.404674899 25.8396992 24.6851689 0.385667153 24.6851689"></polygon>
                        <polygon id="Stroke-38" stroke="#95989A" points="0.385667153 0.404674899 25.8396992 0.404674899 25.8396992 24.6851689 0.385667153 24.6851689"></polygon>
                    </g>
                    <g id="Group-72" transform="translate(543.080077, 0.910156)">
                        <polygon id="Fill-70" fill="#FFFFFF" points="0.385667153 0.404674899 25.8396992 0.404674899 25.8396992 24.6851689 0.385667153 24.6851689"></polygon>
                        <polygon id="Stroke-71" stroke="#95989A" points="0.385667153 0.404674899 25.8396992 0.404674899 25.8396992 24.6851689 0.385667153 24.6851689"></polygon>
                    </g>
                </g>
            </g>
        </g>
    </g>
</svg>