<?xml version="1.0" encoding="UTF-8" standalone="no"?>
<svg width="406px" height="117px" viewBox="0 0 406 117" version="1.1" xmlns="http://www.w3.org/2000/svg" xmlns:xlink="http://www.w3.org/1999/xlink" xmlns:sketch="http://www.bohemiancoding.com/sketch/ns">
    <!-- Generator: Sketch 3.4.4 (17249) - http://www.bohemiancoding.com/sketch -->
    <title>Group + Group + Group</title>
    <desc>Created with Sketch.</desc>
    <defs></defs>
    <g id="Page-1" stroke="none" stroke-width="1" fill="none" fill-rule="evenodd" sketch:type="MSPage">
        <g id="t_shirt_svg_by_danrabbit-d82qn94-+-Group-+-Group-+-Group-+-Group" sketch:type="MSLayerGroup" transform="translate(-1300.000000, -762.000000)" fill="#FFFFFF">
            <g id="Group-+-Group-+-Group" transform="translate(1300.000000, 761.000000)" sketch:type="MSShapeGroup">
                <g id="Group" transform="translate(0.000000, 0.750000)">
                    <path d="M55.9817072,3.336875 L55.9817072,74.98375 C46.6412049,63.30375 37.6128659,51.770625 28.8935624,40.383125 C20.1748844,28.996875 11.536906,17.62625 2.98212943,6.273125 C2.65370108,5.81625 2.34466564,5.391875 2.05126965,5 C1.75787365,4.608125 1.44696148,4.185625 1.12040986,3.72875 C1.18484438,4.250625 1.23301387,4.7725 1.26742065,5.294375 C1.29869954,5.81625 1.34749461,6.338125 1.41380586,6.86 L1.41380586,71.850625 L0.043164869,71.850625 L0.043164869,0.20375 C4.74563328,6.143125 9.3154792,11.99875 13.7583328,17.77375 C18.1986841,23.54875 22.5752265,29.29125 26.8854576,35 C31.1963143,40.711875 35.5065455,46.3875 39.8174022,52.03125 C44.1282589,57.67625 48.5367057,63.369375 53.0433683,69.111875 C53.3692943,69.56875 53.680832,69.99125 53.974228,70.383125 C54.267624,70.775 54.5766595,71.199375 54.9050878,71.65625 C54.8394022,71.134375 54.7899815,70.6125 54.758077,70.090625 C54.7242958,69.56875 54.6755008,69.046875 54.6104407,68.523125 L54.6104407,3.336875 L55.9817072,3.336875 L55.9817072,3.336875 Z" id="Shape"></path>
                    <path d="M73.614869,37.691875 C73.614869,32.8625 74.5282126,28.313125 76.3574022,24.03875 C78.1847149,19.76625 80.6838983,16.04625 83.8524499,12.880625 C87.0191248,9.716875 90.7256733,7.204375 94.97147,5.3425 C99.216641,3.484375 103.755208,2.55375 108.589673,2.55375 C113.422262,2.55375 117.976468,3.484375 122.255421,5.3425 C126.532496,7.204375 130.25531,9.71625 133.424487,12.880625 C136.591162,16.04625 139.107236,19.76625 140.96833,24.03875 C142.829424,28.313125 143.760909,32.863125 143.760909,37.691875 C143.760909,42.5225 142.828798,47.055 140.96833,51.296875 C139.107236,55.539375 136.591162,59.241875 133.424487,62.405625 C130.255935,65.57125 126.533122,68.068125 122.255421,69.89375 C117.977094,71.72125 113.422262,72.635 108.589673,72.635 C103.755208,72.635 99.216641,71.72125 94.97147,69.89375 C90.7256733,68.068125 87.0191248,65.57125 83.8524499,62.405625 C80.6838983,59.241875 78.1847149,55.539375 76.3574022,51.296875 C74.5282126,47.055 73.614869,42.5225 73.614869,37.691875 L73.614869,37.691875 Z M75.614869,37.4139677 C75.614869,41.9106738 76.4707311,46.1187174 78.1824552,50.0441629 C79.8923584,53.9708213 82.2056139,57.404449 85.1204009,60.3480783 C88.0351879,63.2935269 91.4568151,65.6198067 95.3877107,67.3299498 C99.3161782,69.0382736 103.498976,69.8933451 107.934284,69.8933451 C112.433934,69.8933451 116.695641,69.0382736 120.720621,67.3299498 C124.743779,65.6198067 128.260098,63.2935269 131.271397,60.3480783 C134.280875,57.404449 136.657258,53.9544476 138.400546,49.9962546 C140.142013,46.039881 141.014871,41.8142508 141.014871,37.3181512 C141.014871,32.8238709 140.142013,28.5982407 138.400546,24.6400478 C136.657258,20.6836742 134.296657,17.2191183 131.318742,14.2421352 C128.339614,11.2669713 124.869427,8.909157 120.910003,7.16566005 C116.948758,5.42580169 112.718614,4.55375 108.220179,4.55375 C103.719315,4.55375 99.4897786,5.42580169 95.5303543,7.16566005 C91.5685021,8.909157 88.1153111,11.2669713 85.1689604,14.2421352 C82.2226098,17.2191183 79.8929654,20.698835 78.1824552,24.6885625 C76.4707311,28.6758642 75.614869,32.9178681 75.614869,37.4139677 L75.614869,37.4139677 Z" id="Shape"></path>
                    <path d="M161.393445,71.850625 L161.393445,3.336875 L175.108613,3.336875 C177.001612,3.336875 179.091667,3.646875 181.377529,4.265625 C183.664015,4.886875 185.785975,5.898125 187.745285,7.30125 C189.704595,8.704375 191.354243,10.546875 192.693606,12.831875 C194.031091,15.11625 194.70171,17.955 194.70171,21.34625 C194.70171,23.8275 194.293208,26.2075 193.476829,28.4925 C192.659199,30.775 191.403039,32.7975 189.704595,34.56 C188.005525,36.3225 185.835396,37.740625 183.190453,38.8175 C180.544884,39.89375 177.393223,40.4325 173.737347,40.4325 L162.763461,40.4325 L162.763461,71.850625 L161.393445,71.850625 L161.393445,71.850625 Z M162.764086,39.0625 L174.030117,39.0625 C177.817991,39.0625 180.952761,38.443125 183.43568,37.2025 C185.916721,35.96375 187.892921,34.41375 189.362404,32.55375 C190.831886,30.69375 191.861587,28.7225 192.449005,26.633125 C193.036422,24.545625 193.331069,22.653125 193.331069,20.955625 C193.331069,18.543125 192.841242,16.34125 191.861587,14.34875 C190.881932,12.35875 189.52568,10.64625 187.795331,9.21 C186.063732,7.77625 184.039362,6.665625 181.721596,5.881875 C179.401954,5.098125 176.872117,4.708125 174.128958,4.708125 L162.764086,4.708125 L162.764086,39.0625 L162.764086,39.0625 Z M182.162003,38.8675 L201.950906,71.85125 L200.188653,71.85125 L180.594931,38.8675 L182.162003,38.8675 L182.162003,38.8675 Z" id="Shape"></path>
                    <path d="M216.93975,3.336875 L230.94894,3.336875 C237.870958,3.336875 243.733874,4.398125 248.534558,6.518125 C253.333991,8.64 257.236345,11.36375 260.240995,14.690625 C263.24502,18.01875 265.416401,21.70625 266.755763,25.75125 C268.093874,29.79625 268.763867,33.74375 268.763867,37.59375 C268.763867,42.815 267.848647,47.54375 266.021334,51.78625 C264.191519,56.028125 261.709852,59.63375 258.576333,62.6025 C255.440937,65.57125 251.782558,67.855625 247.603698,69.45375 C243.422336,71.05375 238.98261,71.850625 234.279516,71.850625 L216.93975,71.850625 L216.93975,3.336875 L216.93975,3.336875 Z M234.867559,70.480625 C239.242225,70.480625 243.406071,69.715625 247.358471,68.180625 C251.30837,66.649375 254.787208,64.4625 257.791858,61.62375 C260.795883,58.785 263.163695,55.326875 264.894669,51.2475 C266.624391,47.17 267.490817,42.62 267.490817,37.594375 C267.490817,33.874375 266.853353,30.09125 265.580302,26.24125 C264.306626,22.39125 262.249726,18.868125 259.408351,15.669375 C256.566977,12.473125 252.877319,9.86375 248.338752,7.839375 C243.797683,5.816875 238.296977,4.805625 231.830379,4.805625 L218.311017,4.805625 L218.311017,70.480625 L234.867559,70.480625 L234.867559,70.480625 Z" id="Shape"></path>
                    <path d="M282.675467,3.336875 L284.046108,3.336875 L284.046108,71.850625 L282.675467,71.850625 L282.675467,3.336875 L282.675467,3.336875 Z" id="Shape"></path>
                    <path d="M351.546579,67.740625 C348.933541,69.24125 346.140961,70.4325 343.170092,71.31375 C340.197972,72.193125 336.949347,72.635 333.422339,72.635 C328.196262,72.635 323.461889,71.70375 319.217344,69.845625 C314.971547,67.985625 311.33131,65.48875 308.293504,62.358125 C305.256949,59.225 302.905402,55.554375 301.24074,51.345 C299.574826,47.1375 298.741556,42.685625 298.741556,37.98625 C298.741556,33.0275 299.656777,28.39375 301.485966,24.08875 C303.313279,19.781875 305.811211,16.029375 308.979763,12.833125 C312.147063,9.636875 315.852361,7.123125 320.099408,5.295625 C324.342703,3.47 328.881895,2.554375 333.716361,2.554375 C337.047562,2.554375 340.197972,2.980625 343.170092,3.8275 C346.140961,4.67625 348.965445,5.8825 351.644169,7.45 C351.512798,7.645 351.382678,7.84 351.252558,8.036875 C351.120561,8.231875 350.990441,8.42875 350.86032,8.62375 C348.377402,7.123125 345.683664,5.965 342.777855,5.148125 C339.871421,4.33375 336.851131,3.924375 333.716361,3.924375 C329.078327,3.924375 324.718049,4.805625 320.638031,6.56625 C316.556136,8.32875 312.996598,10.760625 309.959418,13.859375 C306.922863,16.96 304.522521,20.580625 302.759017,24.723125 C300.996139,28.8675 300.113448,33.321875 300.113448,38.08375 C300.113448,42.5225 300.897297,46.745625 302.464995,50.758125 C304.032693,54.7725 306.252243,58.295625 309.126773,61.33 C311.999427,64.36375 315.460749,66.78 319.51074,68.573125 C323.560105,70.368125 328.066767,71.265 333.030102,71.265 C336.425738,71.265 339.578025,70.858125 342.484459,70.04125 C345.390268,69.226875 348.117162,68.06875 350.663889,66.565625 L351.546579,67.740625 L351.546579,67.740625 Z" id="Shape"></path>
                    <path d="M402.38979,6.565625 L401.802998,7.64375 C400.887153,7.251875 399.826173,6.86 398.618807,6.468125 C397.40894,6.07625 396.119624,5.70125 394.748357,5.341875 C393.377091,4.984375 391.955778,4.706875 390.486921,4.51 C389.016814,4.315 387.562971,4.2175 386.127895,4.2175 C383.449171,4.2175 381.03319,4.5925 378.877448,5.34125 C376.722333,6.0925 374.893143,7.12125 373.391757,8.426875 C371.887867,9.7325 370.728672,11.24875 369.912918,12.976875 C369.095288,14.706875 368.688037,16.5175 368.688037,18.41 C368.688037,21.478125 369.602632,23.890625 371.432447,25.653125 C373.25976,27.41375 375.56126,28.91625 378.338826,30.155 C381.114515,31.39375 384.101649,32.5525 387.302105,33.62875 C390.50131,34.705 393.49032,36.028125 396.266635,37.59375 C399.042324,39.159375 401.343824,41.18375 403.173014,43.663125 C405.000952,46.1425 405.916173,49.40375 405.916173,53.450625 C405.916173,56.451875 405.37755,59.12625 404.29968,61.475625 C403.221809,63.825 401.736062,65.830625 399.842438,67.495625 C397.947562,69.15875 395.711122,70.431875 393.131239,71.313125 C390.55073,72.1925 387.726247,72.634375 384.657162,72.634375 C381.978438,72.634375 379.513661,72.34 377.26033,71.753125 C375.006998,71.16625 373.014533,70.48 371.284185,69.698125 C369.552586,68.914375 368.100619,68.1325 366.924533,67.34875 C365.748447,66.565 364.867633,66.0125 364.278965,65.685625 L365.063439,64.4125 C366.043094,65.13125 367.250459,65.880625 368.687411,66.664375 C370.123738,67.44625 371.707701,68.18 373.439926,68.86625 C375.169649,69.550625 377.015103,70.1225 378.974413,70.579375 C380.933723,71.03625 382.925562,71.26375 384.951183,71.26375 C387.366539,71.26375 389.751242,70.90625 392.102789,70.1875 C394.454336,69.470625 396.544391,68.376875 398.372955,66.90875 C400.200268,65.440625 401.687267,63.5975 402.830197,61.378125 C403.971251,59.160625 404.54428,56.549375 404.54428,53.548125 C404.54428,49.698125 403.62906,46.596875 401.801747,44.25 C399.971932,41.900625 397.669806,39.9775 394.894117,38.475 C392.117803,36.974375 389.130043,35.70125 385.930838,34.6575 C382.729757,33.61375 379.741371,32.455625 376.966308,31.181875 C374.189994,29.910625 371.887242,28.3125 370.059929,26.3875 C368.23074,24.4625 367.31677,21.900625 367.31677,18.704375 C367.31677,16.486875 367.789707,14.415 368.737458,12.4875 C369.682706,10.564375 370.972647,8.884375 372.606656,7.44875 C374.238163,6.013125 376.164943,4.9025 378.386995,4.11875 C380.606545,3.336875 382.991248,2.945 385.538601,2.945 C386.714062,2.945 388.036533,3.026875 389.506015,3.19 C390.975498,3.354375 392.460619,3.59875 393.964508,3.92375 C395.46527,4.250625 396.951643,4.6425 398.42175,5.0975 C399.891858,5.556875 401.21433,6.045625 402.38979,6.565625 L402.38979,6.565625 Z" id="Shape"></path>
                </g>
                <g id="Group" transform="translate(97.590139, 27.625000)" stroke="#FFFFFF">
                    <path d="M0.496590611,1.27667644 L1.44940405,0.324743063 L21.6960261,20.5526644 L20.7432126,21.5045978 L0.496590611,1.27667644 L0.496590611,1.27667644 Z" id="Rectangle-path"></path>
                    <path d="M20.7602482,0.32446 L21.7122153,1.27635512 L1.45744579,21.4952526 L0.505478758,20.5433575 L20.7602482,0.32446 L20.7602482,0.32446 Z" id="Rectangle-path"></path>
                </g>
                <g id="Group" transform="translate(366.588598, 82.000000)" stroke="#FFFFFF">
                    <path d="M0.2058151,0.775 L0.2058151,0.025625 L7.01147612,0.025625 L7.01147612,34.825625 L6.26140832,34.825625 L6.26140832,0.775 L0.2058151,0.775 L0.2058151,0.775 Z" id="Shape"></path>
                    <path d="M15.7457935,0.775 L15.7457935,0.025625 L37.2350169,0.025625 C34.6269831,5.879375 32.0189492,11.679375 29.4121664,17.425625 C26.8028814,23.17375 24.1948475,28.974375 21.5868136,34.825625 L20.6221726,34.825625 C23.1951741,29.115 25.7581664,23.44125 28.3124006,17.800625 C30.8660092,12.16125 33.4315039,6.486875 36.0026287,0.775 L15.7457935,0.775 L15.7457935,0.775 Z" id="Shape"></path>
                </g>
            </g>
        </g>
    </g>
</svg>