<?xml version="1.0" encoding="UTF-8" standalone="no"?>
<svg width="1970px" height="939px" viewBox="0 0 1970 939" version="1.1" xmlns="http://www.w3.org/2000/svg" xmlns:xlink="http://www.w3.org/1999/xlink" xmlns:sketch="http://www.bohemiancoding.com/sketch/ns">
    <!-- Generator: Sketch 3.4.4 (17249) - http://www.bohemiancoding.com/sketch -->
    <title>t_shirt_svg_by_danrabbit-d82qn94 + Group + Group + Group + Group</title>
    <desc>Created with Sketch.</desc>
    <defs>
        <radialGradient cx="50.0000018%" cy="74.7736906%" fx="50.0000018%" fy="74.7736906%" r="50.095036%" id="radialGradient-1">
            <stop stop-color="#D62626" offset="0%"></stop>
            <stop stop-color="#C52B2B" offset="69.484782%"></stop>
            <stop stop-color="#B62424" offset="100%"></stop>
        </radialGradient>
        <radialGradient cx="49.9999994%" cy="74.7114951%" fx="49.9999994%" fy="74.7114951%" r="50.0000011%" id="radialGradient-2">
            <stop stop-color="#BF2828" offset="0%"></stop>
            <stop stop-color="#D32727" offset="69.484782%"></stop>
            <stop stop-color="#BA2727" offset="100%"></stop>
        </radialGradient>
        <radialGradient cx="50.0000024%" cy="50.0000003%" fx="50.0000024%" fy="50.0000003%" r="49.9999976%" id="radialGradient-3">
            <stop stop-color="#000000" stop-opacity="0.44347826" offset="0%"></stop>
            <stop stop-color="#000000" offset="100%"></stop>
        </radialGradient>
        <radialGradient cx="95.6724703%" cy="60.3840041%" fx="95.6724703%" fy="60.3840041%" r="55.6477476%" id="radialGradient-4">
            <stop stop-color="#000000" offset="0%"></stop>
            <stop stop-color="#000000" stop-opacity="0.60869563" offset="50%"></stop>
            <stop stop-color="#000000" stop-opacity="0" offset="100%"></stop>
        </radialGradient>
        <radialGradient cx="48.5416496%" cy="39.2570815%" fx="48.5416496%" fy="39.2570815%" r="53.5044203%" id="radialGradient-5">
            <stop stop-color="#000000" offset="0%"></stop>
            <stop stop-color="#000000" stop-opacity="0" offset="100%"></stop>
        </radialGradient>
        <radialGradient cx="51.4885749%" cy="39.755099%" fx="51.4885749%" fy="39.755099%" r="53.5381546%" id="radialGradient-6">
            <stop stop-color="#000000" offset="0%"></stop>
            <stop stop-color="#000000" stop-opacity="0" offset="100%"></stop>
        </radialGradient>
        <radialGradient cx="18.1766543%" cy="35.6464872%" fx="18.1766543%" fy="35.6464872%" r="74.3739156%" id="radialGradient-7">
            <stop stop-color="#000000" offset="0%"></stop>
            <stop stop-color="#000000" stop-opacity="0.60869563" offset="50%"></stop>
            <stop stop-color="#000000" stop-opacity="0" offset="100%"></stop>
        </radialGradient>
        <radialGradient cx="-63.0560369%" cy="62.3848888%" fx="-63.0560369%" fy="62.3848888%" r="186.738219%" id="radialGradient-8">
            <stop stop-color="#000000" offset="0%"></stop>
            <stop stop-color="#000000" offset="69.471645%"></stop>
            <stop stop-color="#000000" stop-opacity="0" offset="100%"></stop>
        </radialGradient>
        <radialGradient cx="33.093784%" cy="36.8348087%" fx="33.093784%" fy="36.8348087%" r="64.4857805%" id="radialGradient-9">
            <stop stop-color="#000000" offset="0%"></stop>
            <stop stop-color="#000000" stop-opacity="0.60869563" offset="57.841623%"></stop>
            <stop stop-color="#000000" stop-opacity="0" offset="100%"></stop>
        </radialGradient>
        <radialGradient cx="66.976655%" cy="36.8348087%" fx="66.976655%" fy="36.8348087%" r="64.5542441%" id="radialGradient-10">
            <stop stop-color="#000000" offset="0%"></stop>
            <stop stop-color="#000000" stop-opacity="0.60869563" offset="57.841623%"></stop>
            <stop stop-color="#000000" stop-opacity="0" offset="100%"></stop>
        </radialGradient>
    </defs>
    <g id="Page-1" stroke="none" stroke-width="1" fill="none" fill-rule="evenodd" sketch:type="MSPage">
        <g id="t_shirt_svg_by_danrabbit-d82qn94-+-Group-+-Group-+-Group-+-Group" sketch:type="MSLayerGroup" transform="translate(-1.000000, -1.000000)">
            <g id="t_shirt_svg_by_danrabbit-d82qn94">
                <g id="g10" transform="translate(985.596504, 470.281100) scale(1, -1) translate(-985.596504, -470.281100) translate(0.096504, 0.781100)" sketch:type="MSShapeGroup">
                    <path d="M1425.4035,0.3893625 C1358.099,3.1055625 1304.19775,9.4603375 1264.4035,19.3707375 C1241.35845,25.1099125 1215.83535,36.303425 1204.15355,45.794225 C1198.02895,50.7700625 1197.90355,50.97025 1197.90355,55.7690875 C1197.90355,58.4624875 1199.46095,71.1545625 1201.36435,83.9736875 C1203.26785,96.7928 1208.90945,136.756175 1213.90125,172.781175 C1223.52635,242.2429 1229.34195,281.771812 1233.54245,306.281175 C1236.47775,323.40865 1236.63895,330.347462 1234.49885,347.459687 C1232.80445,361.00795 1232.87825,361.550975 1239.02695,380.781175 C1242.45955,391.516787 1242.50935,390.447925 1237.28005,418.281175 C1234.95375,430.663025 1234.62035,435.170738 1234.39565,457.281188 C1234.12015,484.38785 1233.98285,485.304787 1227.83295,501.085213 C1225.66375,506.651375 1222.93905,514.597538 1221.77805,518.74335 C1217.27705,534.815963 1209.93115,545.20915 1203.51395,544.584125 C1200.94155,544.333588 1199.97105,543.45725 1197.90355,539.51805 C1196.52855,536.898325 1194.38275,534.054488 1193.13515,533.198437 C1190.38035,531.308238 1187.21575,525.236088 1180.40975,508.781188 L1175.23965,496.281188 L1164.32155,496.444975 C1146.72955,496.708888 1124.80005,502.146638 1096.15705,513.34735 C1079.39945,519.900337 1051.96225,533.588125 1041.27435,540.727063 C1030.90215,547.655088 1018.90355,558.229163 1018.90355,560.441838 C1018.90355,563.17005 1053.55025,645.168038 1078.41255,701.281162 C1107.56225,767.070688 1125.05735,799.4937 1144.32165,823.42765 C1156.32005,838.3345 1165.43405,844.43325 1188.97325,853.30725 C1198.55995,856.921375 1210.45355,862.054375 1215.40355,864.714 C1221.15175,867.802625 1226.29985,869.806 1229.65195,870.259125 C1232.56135,870.65225 1236.50525,872.0575 1238.50165,873.41225 C1240.48235,874.756375 1244.87055,876.502625 1248.25325,877.29275 C1260.45675,880.14325 1301.0645,895.777375 1324.74687,906.743125 C1340.68487,914.123 1348.56675,918.35175 1359.8235,925.562125 C1365.14475,928.970625 1369.92887,931.238875 1372.8235,931.725625 C1375.3425,932.149375 1379.697,933.390625 1382.50025,934.48425 L1387.597,936.4725 L1392.00025,934.23925 C1405.246,927.52125 1427.96788,921.920375 1453.20637,919.15225 C1470.6885,917.23475 1513.6995,916.99375 1529.9035,918.722375 C1555.59525,921.463125 1577.91,926.863625 1592.68862,933.91725 L1601.23575,937.996625 L1608.31962,934.886375 C1612.21575,933.17575 1616.0785,931.777125 1616.9035,931.778375 C1617.7285,931.7795 1623.1285,928.82325 1628.9035,925.208875 C1641.164,917.535375 1665.69662,905.378625 1684.97187,897.42525 C1704.05875,889.549625 1733.245,878.979875 1740.653,877.260625 C1744.09037,876.462875 1748.59037,874.710625 1750.653,873.366875 C1752.71587,872.023125 1756.6535,870.60875 1759.4035,870.224 C1762.41812,869.80225 1767.97737,867.60925 1773.4035,864.701375 C1778.3535,862.048625 1790.2785,856.9105 1799.9035,853.283125 C1809.5285,849.65575 1818.3035,846.037375 1819.4035,845.24225 C1820.5035,844.447125 1823.8405,842.125 1826.819,840.081875 C1843.00662,828.977625 1861.4635,802.596912 1882.65,760.281175 C1897.41962,730.781563 1924.27837,670.095738 1955.327,596.070438 L1970.09562,560.8597 L1967.94612,557.840987 C1965.66562,554.63825 1954.0855,544.954063 1947.4035,540.661713 C1922.19913,524.470825 1877.156,505.819913 1847.41775,499.260838 C1832.85487,496.04885 1814.9205,494.804575 1813.301,496.893825 C1812.70937,497.656863 1810.7285,502.106163 1808.89875,506.781163 C1803.5645,520.411025 1798.163,530.529488 1794.95525,532.901038 C1793.327,534.104925 1791.72675,536.30965 1791.39937,537.800412 C1790.58562,541.505263 1787.32037,544.781163 1784.44137,544.781163 C1778.6275,544.781163 1771.21775,533.700838 1767.029,518.743338 C1765.868,514.597525 1763.14337,506.65135 1760.97412,501.085188 C1754.857,485.38845 1754.7095,484.399275 1754.44962,457.281163 C1754.2365,435.0467 1753.91675,430.732463 1751.5595,418.281162 C1746.2545,390.258325 1746.30512,391.74215 1750.2295,379.281162 C1756.25587,360.145737 1756.1375,361.02305 1754.44,348.080287 C1752.15475,330.654288 1752.50175,323.385863 1756.89712,296.609513 C1759.09362,283.228913 1764.2825,248.206163 1768.428,218.78115 C1772.5735,189.35615 1779.1375,143.00615 1783.01475,115.78115 C1786.892,88.55615 1790.5245,62.9929 1791.08712,58.9739375 C1792.26575,50.5536125 1792.23437,50.4933375 1782.9035,43.2936 C1758.6885,24.609 1706.40612,11.1369375 1633.4035,4.770675 C1593.17088,1.26215 1573.64863,0.590375 1504.4035,0.3317125 C1465.3535,0.1858375 1429.8035,0.2117125 1425.4035,0.3893375 L1425.4035,0.3893625 Z" id="path61740" fill="url(#radialGradient-1)"></path>
                    <path d="M412.40355,0.3761125 C298.754212,5.5733 226.2661,20.0442875 189.90355,44.7943625 C180.6113,51.1191 180.37875,51.562325 181.63535,60.5523875 C182.2295,64.8031875 185.889962,90.5561 189.769687,117.7811 C193.649412,145.0061 200.24055,191.466712 204.416637,221.026912 C208.592737,250.587112 213.785687,285.609875 215.956537,298.855275 C220.46585,326.368712 220.51985,327.468037 218.267912,345.909662 L216.6037,359.5382 L219.8808,373.682925 C222.885937,386.653812 223.101175,388.676337 222.474512,398.054375 C222.09865,403.679075 220.844762,414.581112 219.688087,422.281112 C218.019325,433.39005 217.5663,441.340475 217.494287,460.781112 L217.403537,485.281112 L212.1086,500.281112 C209.196387,508.531112 205.5464,519.383612 203.997512,524.397787 C200.571012,535.490362 197.855112,540.4398 193.265112,543.956387 C190.184287,546.316737 189.398325,546.506062 186.588387,545.564775 C182.23225,544.10555 180.1331,542.102825 179.38375,538.691075 C179.035537,537.105612 177.421,534.861637 175.795887,533.704462 C172.39955,531.28605 168.548037,524.105937 161.89025,507.781112 L157.200162,496.281112 L151.80185,495.946925 C141.4891,495.3085 123.7454,498.329225 104.903496,503.930987 C79.4700187,511.49245 40.6171775,529.063487 22.4034962,541.241275 C11.4489475,548.565562 0.90349625,558.23115 0.90349625,560.947425 C0.90349625,562.633712 27.233345,625.7848 44.1953125,664.781112 C85.1669587,758.976725 103.125576,794.0078 124.49965,821.427162 C137.118575,837.615125 146.987162,843.95475 176.4035,854.77025 C184.1035,857.60125 194.62665,862.163375 199.7883,864.90825 C205.202525,867.787375 211.5488,870.327625 214.7883,870.912375 C217.87665,871.46975 221.9785,872.969375 223.9035,874.24475 C225.8285,875.52025 229.8785,877.119 232.9035,877.797625 C240.135787,879.42 267.021062,889.226125 286.7014,897.41975 C307.103112,905.913625 330.091987,917.24875 341.4035,924.391625 C350.114262,929.89225 366.899187,936.75 371.703162,936.771 C372.967962,936.771 375.425262,936.0455 377.163812,935.1465 C378.902362,934.2475 384.167512,932.204625 388.86415,930.606875 C443.50255,912.019625 529.302025,914.011875 574.79335,934.92425 C579.407762,937.0455 583.773462,938.781125 584.4949,938.781125 C585.21635,938.781125 589.388825,937.206125 593.767062,935.281125 C598.1453,933.356125 602.191,931.781125 602.757512,931.781125 C603.324,931.781125 607.763225,929.359 612.622437,926.39875 C637.209475,911.41975 697.783787,884.4655 720.06205,878.590375 C724.64985,877.3805 729.9785,875.391625 731.9035,874.17075 C733.8285,872.94975 738.093712,871.409375 741.381762,870.74775 C744.669812,870.086 751.0811,867.532625 755.62905,865.073625 C760.177025,862.6145 772.00965,857.51725 781.9238,853.746375 C791.83795,849.975375 801.12485,845.9655 802.561362,844.835625 C803.997887,843.705625 805.720412,842.781125 806.389225,842.781125 C808.511887,842.781125 820.229612,833.228125 824.946862,827.651862 C850.764,797.133225 871.346225,756.588088 925.393437,629.781112 C944.162162,585.74545 953.9035,562.0571 953.9035,560.4522 C953.9035,558.446275 942.517537,548.1234 934.155675,542.548187 C913.409675,528.715937 882.07125,514.215312 852.529825,504.779037 C834.544,499.033925 813.563337,495.296887 802.944175,495.946925 L797.484862,496.281112 L792.392937,508.781112 C786.152962,524.099462 782.164012,531.5643 779.170237,533.525912 C777.9172,534.346925 776.045587,536.932137 775.011062,539.270837 C772.844662,544.16835 772.60095,544.37205 767.83865,545.26545 C764.628675,545.86765 763.90195,545.544262 760.243375,541.8857 C758.018262,539.660588 755.523437,535.914288 754.699312,533.560575 C753.8752,531.206875 749.8715,519.381112 745.8022,507.281112 L738.4035,485.281112 L738.310375,461.281112 C738.235625,442.0113 737.791025,434.521825 736.05475,423.281112 C734.865387,415.581112 733.618312,404.106112 733.283462,397.781112 C732.721125,387.159212 732.917212,385.2584 735.8514,372.887237 L739.028162,359.493375 L737.465837,346.67885 C735.262025,328.602662 735.427575,325.265912 739.892,297.781112 C742.080775,284.306112 747.272587,249.206112 751.429362,219.7811 C755.586125,190.3561 762.160575,144.0061 766.039212,116.7811 C769.91785,89.5561 773.57925,63.7894625 774.175662,59.5218875 L775.26005,51.7626875 L772.331775,48.69475 C767.850387,43.9996 756.652125,37.4227125 743.616737,31.8300125 C708.760562,16.8753375 657.968825,7.7646625 578.403512,2.1951875 C561.510425,1.0127 537.3483,0.5149625 487.403512,0.3206125 C450.003512,0.175075 416.253512,0.1999875 412.403512,0.3761125 L412.40355,0.3761125 Z" id="path61742" fill="url(#radialGradient-2)"></path>
                    <path d="M582.875,866.84375 C581.05424,867.48686 578.01526,868.73208 574.78125,870.21875 C529.28992,891.13113 443.5134,893.14975 388.875,874.5625 C384.17837,872.96475 378.8948,870.899 377.15625,870 C375.85234,869.32575 374.14995,868.74619 372.84375,868.5 C385.30587,908.70912 427.5009,938.3125 477.625,938.3125 C528.43292,938.3125 571.06906,907.89159 582.875,866.84375 L582.875,866.84375 Z" id="path61667" opacity="0.25" fill="url(#radialGradient-3)" transform="translate(477.859375, 902.578125) scale(1, -1) translate(-477.859375, -902.578125) "></path>
                    <path d="M358.03125,849.9375 C372.14666,898.02446 420.50374,933.4375 477.96875,933.4375 C535.75574,933.4375 584.31699,897.62334 598.125,849.125" id="path61667-2" stroke="#000000" stroke-width="1.44099998" opacity="0.2" transform="translate(478.078125, 891.281250) scale(1, -1) translate(-478.078125, -891.281250) "></path>
                    <path d="M764.68305,756.14629 C764.68305,756.14629 764.68305,630.84905 784.5715,546.65461 C777.94202,569.19486 764.68305,756.14629 764.68305,756.14629 L764.68305,756.14629 Z" id="path61714" opacity="0.25" fill="#000000" transform="translate(774.627275, 651.400450) scale(1, -1) translate(-774.627275, -651.400450) "></path>
                    <path d="M171.34375,527.3125 L123.09375,536.59375 L186.1875,738.9375 C193.61268,656.33248 171.34375,527.3125 171.34375,527.3125 L171.34375,527.3125 Z M111.03125,542.1875 L69.25,571.875 L179.6875,743.59375 L188.0625,750.09375 L111.03125,542.1875 L111.03125,542.1875 Z M36.78125,579.3125 L17.28125,654.46875 L183.40625,758.4375 L36.78125,579.3125 L36.78125,579.3125 Z" id="path61810" opacity="0.1" fill="url(#radialGradient-4)" transform="translate(102.671875, 642.875000) scale(1, -1) translate(-102.671875, -642.875000) "></path>
                    <path d="M187.917975,546.654675 C187.917975,546.654675 187.917975,671.9518 168.029525,756.1463 C174.659,733.60605 187.917975,546.654675 187.917975,546.654675 L187.917975,546.654675 Z" id="path61714-0" opacity="0.25" fill="#000000"></path>
                    <path d="M182.87253,21.4178 C182.87253,21.4178 221.78436,68.0835 485.40702,68.0835 C724.80835,68.0835 772.22515,23.071 772.22515,23.071" id="path61736" stroke="#000000" stroke-width="1.5" opacity="0.3" transform="translate(477.548840, 44.750650) scale(1, -1) translate(-477.548840, -44.750650) "></path>
                    <path d="M598.568287,934.85625 C601.34715,933.2625 597.81065,929.512375 597.769225,927.303 C583.639637,886.0955 544.312725,856.771625 501.989725,849.736625 C494.0637,848.344375 486.01565,847.65575 477.96875,847.65625 C432.7881,847.208375 386.8693,871.054625 365.1851,911.399375 C361.6888,918.284375 358.069587,925.504875 356.6191,933.0735" id="path61795" stroke="#FFFFFF" stroke-width="2.00000002" opacity="0.05"></path>
                    <path d="M921.343753,527.3125 L873.093753,536.59375 L936.187503,738.937503 C943.612683,656.332483 921.343753,527.3125 921.343753,527.3125 L921.343753,527.3125 Z M861.031253,542.1875 L819.25,571.875 L929.687503,743.593753 L938.062503,750.093753 L861.031253,542.1875 L861.031253,542.1875 Z M786.78125,579.3125 L767.28125,654.468753 L933.406253,758.437503 L786.78125,579.3125 L786.78125,579.3125 Z" id="path61810-3" opacity="0.1" fill="url(#radialGradient-4)" transform="translate(852.671877, 642.875002) scale(-1, -1) translate(-852.671877, -642.875002) "></path>
                    <path d="M363.59375,787.005994 C356.55726,789.454354 347.19997,793.691164 341.40625,797.349744 C330.09474,804.492624 307.08922,815.855864 286.6875,824.349744 C267.00718,832.543364 240.13854,842.321124 232.90625,843.943494 C229.88125,844.622124 225.83125,846.230494 223.90625,847.505994 C221.98125,848.781364 217.8696,850.292374 214.78125,850.849744 C211.54175,851.434494 205.19547,853.970614 199.78125,856.849744 C194.6196,859.594614 184.10625,864.143744 176.40625,866.974744 C147.41768,877.632974 137.3925,883.957634 125.03125,899.630994 C146.23054,935.485364 210.07396,945.693394 274.0625,921.818494 C342.71591,896.203074 385.54995,841.061134 369.71875,798.630994 C368.16846,794.475974 366.10466,790.598864 363.59375,787.005994 L363.59375,787.005994 Z" id="path61920" opacity="0.1" fill="url(#radialGradient-5)" transform="translate(249.019875, 860.877997) scale(1, -1) translate(-249.019875, -860.877997) "></path>
                    <path d="M592.125,787.009908 C589.20927,790.942428 586.8223,795.220878 585.09375,799.853658 C569.26255,842.283798 612.09659,897.425738 680.75,923.041158 C744.6192,946.871538 808.30662,936.733188 829.625,901.041158 C828.08373,899.092208 826.50883,897.179888 824.9375,895.322408 C820.22025,889.746128 808.49766,880.197408 806.375,880.197408 C805.7062,880.197408 803.99901,879.264908 802.5625,878.134908 C801.12598,877.005038 791.85165,872.999658 781.9375,869.228658 C772.02335,865.457788 760.17297,860.375288 755.625,857.916158 C751.07705,855.457158 744.66305,852.890408 741.375,852.228658 C738.08695,851.567038 733.83125,850.043408 731.90625,848.822408 C729.98125,847.601538 724.6503,845.594788 720.0625,844.384908 C697.78424,838.509778 637.21204,811.551408 612.625,796.572408 C607.76579,793.612158 603.31647,791.197408 602.75,791.197408 C602.18348,791.197408 598.15948,789.622408 593.78125,787.697408 C593.21851,787.449988 592.67405,787.243168 592.125,787.009908 L592.125,787.009908 Z" id="path61920-5" opacity="0.1" fill="url(#radialGradient-6)" transform="translate(705.714500, 861.489329) scale(1, -1) translate(-705.714500, -861.489329) "></path>
                    <path d="M5.847458,571.987287 C5.847458,571.987287 71.271185,513.343163 160.762712,505.207663" id="path62048-8" stroke="#FFFFFF" stroke-width="2.00000002" opacity="0.05"></path>
                    <path d="M5.847458,507.22458 C5.847458,507.22458 71.271186,565.86865 160.76271,574.00424" id="path62048" stroke="#000000" stroke-width="1.5" opacity="0.2" transform="translate(83.305084, 540.614410) scale(1, -1) translate(-83.305084, -540.614410) "></path>
                    <path d="M948.762712,571.987237 C948.762712,571.987237 883.338988,513.343112 793.847463,505.207612" id="path62048-8-1" stroke="#FFFFFF" stroke-width="2.00000002" opacity="0.05"></path>
                    <path d="M948.762712,574.004238 C948.762712,574.004238 883.338988,515.360113 793.847463,507.224613" id="path62048-1" stroke="#000000" stroke-width="1.50000006" opacity="0.2"></path>
                    <path d="M231.875,202.71875 C222.05694,245.05913 201.0507,295.91663 189.46875,322.34375 C190.51739,322.48335 191.5182,323.07945 193.25,324.40625 C196.67456,327.02995 199.08842,330.48111 201.5,336.65625 C238.9662,263.3285 231.875,202.71875 231.875,202.71875 L231.875,202.71875 Z M263.25,227.96875 C250.21098,271.68783 227.72225,316.06239 206.625,352.0625 C208.30947,357.12709 210.31097,363.04331 212.09375,368.09375 L217.40625,383.09375 L217.40625,385.96875 C244.58165,312.22786 263.25,227.96875 263.25,227.96875 L263.25,227.96875 Z M298.9375,335.96875 C298.9375,335.96875 271.05688,392.11312 221.125,456.84375 C221.74478,462.01086 222.25039,467.04496 222.46875,470.3125 C223.0954,479.69054 222.88014,481.71661 219.875,494.6875 L217.28125,505.875 C268.3738,431.40317 298.9375,335.96875 298.9375,335.96875 L298.9375,335.96875 Z M317.25,337.71875 C317.25,337.71875 270.7162,458.40076 219.1875,547.9375 C218.62171,553.05532 217.60465,559.54983 215.96875,569.53125 C213.7979,582.77665 208.58235,617.78355 204.40625,647.34375 C203.66558,652.58656 202.67651,659.55178 201.8125,665.65625 C230.89723,596.24575 298.90254,428.77652 317.25,337.71875 L317.25,337.71875 Z" id="path62089" opacity="0.1" fill="url(#radialGradient-7)" transform="translate(253.359375, 434.187500) scale(1, -1) translate(-253.359375, -434.187500) "></path>
                    <path d="M679.583713,202.7187 C669.765653,245.05908 648.759413,295.916583 637.177463,322.343703 C638.226103,322.483303 639.226913,323.079403 640.958713,324.406203 C644.383273,327.029903 646.797133,330.481063 649.208713,336.656203 C686.674913,263.32845 679.583713,202.7187 679.583713,202.7187 L679.583713,202.7187 Z M710.958713,227.9687 C697.919693,271.68778 675.430963,316.062343 654.333713,352.062453 C656.018183,357.127043 658.019683,363.043263 659.802463,368.093703 L665.114963,383.093703 L665.114963,385.968703 C692.290363,312.227813 710.958713,227.9687 710.958713,227.9687 L710.958713,227.9687 Z M746.646216,335.968703 C746.646216,335.968703 718.765593,392.113073 668.833713,456.843703 C669.453493,462.010813 669.959103,467.044913 670.177463,470.312453 C670.804113,479.690493 670.588853,481.716563 667.583713,494.687453 L664.989963,505.874953 C716.082513,431.403123 746.646216,335.968703 746.646216,335.968703 L746.646216,335.968703 Z M764.958716,337.718703 C764.958716,337.718703 718.424913,458.400713 666.896213,547.937453 C666.330423,553.055273 665.313363,559.549783 663.677463,569.531203 C661.506613,582.776603 656.291063,617.783503 652.114963,647.343703 C651.374293,652.586513 650.385223,659.551733 649.521213,665.656203 C678.605943,596.245703 746.611256,428.776473 764.958716,337.718703 L764.958716,337.718703 Z" id="path62089-4" opacity="0.1" fill="url(#radialGradient-7)" transform="translate(701.068089, 434.187452) scale(-1, -1) translate(-701.068089, -434.187452) "></path>
                    <g id="g62265" transform="translate(1022.194500, 505.000000)">
                        <path d="M0.847458,66.9872375 C0.847458,66.9872375 66.271185,8.3431125 155.762712,0.2076125" id="path62048-8-5" stroke="#FFFFFF" stroke-width="2.00000002" opacity="0.05"></path>
                        <path d="M0.847458,69.0042375 C0.847458,69.0042375 66.271185,10.3601125 155.762712,2.2246125" id="path62048-82" stroke="#000000" stroke-width="1.50000006" opacity="0.2"></path>
                        <path d="M943.762712,66.9872375 C943.762712,66.9872375 878.338988,8.3431125 788.847463,0.2076125" id="path62048-8-1-3" stroke="#FFFFFF" stroke-width="2.00000002" opacity="0.05"></path>
                        <path d="M943.762712,69.0042375 C943.762712,69.0042375 878.338988,10.3601125 788.847463,2.2246125" id="path62048-1-0" stroke="#000000" stroke-width="1.50000006" opacity="0.2"></path>
                    </g>
                    <path d="M182.872525,66.3358375 C182.872525,66.3358375 221.784362,19.6700875 485.407012,19.6700875 C724.80835,19.6700875 772.22515,64.6825875 772.22515,64.6825875" id="path61736-5" stroke="#FFFFFF" stroke-width="1.50000006" opacity="0.05"></path>
                    <g id="g62317" transform="translate(1199.450750, 18.750000)" stroke-width="1.50000006">
                        <path d="M0.372525,49.3335 C0.372525,49.3335 39.28435,2.66775 302.907025,2.66775 C542.30835,2.66775 589.72515,47.68025 589.72515,47.68025" id="path61736-4" stroke="#000000" opacity="0.3"></path>
                        <path d="M0.372525,47.585875 C0.372525,47.585875 39.2843625,0.920125 302.907013,0.920125 C542.30835,0.920125 589.72515,45.932625 589.72515,45.932625" id="path61736-5-0" stroke="#FFFFFF" opacity="0.05"></path>
                    </g>
                    <path d="M1742.99362,886.75 C1742.99362,886.75 1770.99362,790.75 1608.99362,414.75 L1692.99362,336.75 C1692.99362,336.75 1834.99362,536.75 1742.99362,886.75 L1742.99362,886.75 Z" id="path62394-9" opacity="0.07999998" fill="url(#radialGradient-8)"></path>
                    <path d="M1351.40484,886.75 C1351.40484,886.75 1379.40484,790.749975 1217.40488,414.75 L1301.40484,336.75 C1301.40484,336.75 1443.40484,536.75 1351.40484,886.75 L1351.40484,886.75 Z" id="path62394-9-8" opacity="0.07999998" fill="url(#radialGradient-8)" transform="translate(1299.910858, 611.750000) scale(-1, 1) translate(-1299.910858, -611.750000) "></path>
                    <g id="g62652" transform="translate(1033.077712, 526.250000)" fill="url(#radialGradient-4)" opacity="0.1">
                        <path d="M155.093752,1.0625 L106.843752,10.34375 L169.937502,212.6875 C177.362683,130.08248 155.093752,1.0625 155.093752,1.0625 L155.093752,1.0625 Z M94.7812525,15.9375 L52.9999995,45.625 L163.437502,217.34375 L171.812502,223.84375 L94.7812525,15.9375 L94.7812525,15.9375 Z M20.5312495,53.0625 L1.0312494,128.21875 L167.156253,232.1875 L20.5312495,53.0625 L20.5312495,53.0625 Z" id="path61810-4" transform="translate(86.421876, 116.625000) scale(1, -1) translate(-86.421876, -116.625000) "></path>
                        <path d="M905.093753,1.0625 L856.843753,10.3437501 L919.937503,212.687503 C927.362683,130.082483 905.093753,1.0625 905.093753,1.0625 L905.093753,1.0625 Z M844.781253,15.9375001 L803,45.6250001 L913.437503,217.343753 L921.812503,223.843753 L844.781253,15.9375001 L844.781253,15.9375001 Z M770.53125,53.0625001 L751.03125,128.218753 L917.156253,232.187503 L770.53125,53.0625001 L770.53125,53.0625001 Z" id="path61810-3-0" transform="translate(836.421877, 116.625002) scale(-1, -1) translate(-836.421877, -116.625002) "></path>
                    </g>
                    <g id="g62681" transform="translate(1185.699075, 546.250000)" fill="#000000" opacity="0.25">
                        <path d="M597.18305,0.40455 C597.18305,0.40455 597.18305,125.7018 617.0715,209.8963 C610.442025,187.35605 597.18305,0.40455 597.18305,0.40455 L597.18305,0.40455 Z" id="path61714-7"></path>
                        <path d="M20.417975,0.404675 C20.417975,0.404675 20.417975,125.7018 0.529525,209.8963 C7.159,187.35605 20.417975,0.404675 20.417975,0.404675 L20.417975,0.404675 Z" id="path61714-0-6"></path>
                    </g>
                    <path d="M1371.7648,900.49851 C1371.7648,900.49851 1405.7163,931.0631 1496.0607,931.0631 C1586.4052,931.0631 1615.2626,900.49851 1615.2626,900.49851" id="path62685" stroke="#000000" stroke-width="1.5" opacity="0.25" transform="translate(1493.513700, 915.780805) scale(1, -1) translate(-1493.513700, -915.780805) "></path>
                    <path d="M764.68305,546.65455 C764.68305,546.65455 764.68305,671.9518 784.5715,756.1463 C777.942025,733.60605 764.68305,546.65455 764.68305,546.65455 L764.68305,546.65455 Z" id="path61714-2" opacity="0.25" fill="#000000"></path>
                    <path d="M187.917975,546.654675 C187.917975,546.654675 187.917975,671.9518 168.029525,756.1463 C174.659,733.60605 187.917975,546.654675 187.917975,546.654675 L187.917975,546.654675 Z" id="path61714-0-63" opacity="0.25" fill="#000000"></path>
                    <path d="M1371.76475,929.365125 C1371.76475,929.365125 1405.71625,898.8005 1496.06075,898.8005 C1586.40525,898.8005 1615.26262,929.365125 1615.26262,929.365125" id="path62685-7" stroke="#FFFFFF" stroke-width="1.50000006" opacity="0.05"></path>
                    <path d="M1241.3125,54.625 L1234.875,55.28125 C1235.2477,62.30384 1235.9125,66.93362 1237.2812,74.21875 C1242.5105,102.052 1242.4639,100.98314 1239.0312,111.71875 C1236.5948,119.33895 1235.1092,123.99523 1234.3125,127.71875 C1266.1883,252.15656 1372.9063,371.53125 1372.9062,371.53125 L1370.8125,317.84375 C1236.0488,153.60048 1241.3125,54.625 1241.3125,54.625 L1241.3125,54.625 Z M1232.25,193.90625 C1230.3765,205.2932 1228.1838,219.53127 1225.5312,237.59375 C1240.8106,301.92341 1270.8379,380.54088 1329.75,437.875 L1350.8125,394.6875 L1344.4688,386.2812 C1338.3224,373.98851 1275.0689,304.55929 1232.25,193.90625 L1232.25,193.90625 Z" id="path62714" opacity="0.06000001" fill="url(#radialGradient-9)" transform="translate(1299.218700, 246.250000) scale(1, -1) translate(-1299.218700, -246.250000) "></path>
                    <path d="M1747.6875,54.625 C1747.6875,54.625 1752.9512,153.60048 1618.1875,317.84375 L1616.0938,371.53125 C1616.0938,371.53125 1722.6801,252.29613 1754.625,127.9375 C1753.8459,124.6246 1752.446,120.29073 1750.2188,113.21875 C1746.2944,100.75776 1746.2575,102.24159 1751.5625,74.21875 C1752.9531,66.87322 1753.6311,62.28165 1754,55.25 L1747.6875,54.625 L1747.6875,54.625 Z M1756.625,194.1875 C1713.8079,304.67452 1650.6723,373.99908 1644.5312,386.2812 L1638.1875,394.6875 L1659.25,437.875 C1717.9718,380.72607 1747.9875,302.4323 1763.3125,238.21875 C1760.6816,220.27545 1758.2374,203.98409 1756.9062,195.875 C1756.8049,195.25754 1756.7221,194.78458 1756.625,194.1875 L1756.625,194.1875 Z" id="path62714-1" opacity="0.06000001" fill="url(#radialGradient-10)" transform="translate(1689.703150, 246.250000) scale(1, -1) translate(-1689.703150, -246.250000) "></path>
                </g>
                <g id="layer1" transform="translate(1.000000, 1.000000)"></g>
            </g>
            <g id="Group" transform="translate(270.000000, 251.000000)" fill="#FFFFFF" sketch:type="MSShapeGroup">
                <g transform="translate(0.000000, 58.750000)" id="Shape">
                    <path d="M55.9817072,3.336875 L55.9817072,74.98375 C46.6412049,63.30375 37.6128659,51.770625 28.8935624,40.383125 C20.1748844,28.996875 11.536906,17.62625 2.98212943,6.273125 C2.65370108,5.81625 2.34466564,5.391875 2.05126965,5 C1.75787365,4.608125 1.44696148,4.185625 1.12040986,3.72875 C1.18484438,4.250625 1.23301387,4.7725 1.26742065,5.294375 C1.29869954,5.81625 1.34749461,6.338125 1.41380586,6.86 L1.41380586,71.850625 L0.043164869,71.850625 L0.043164869,0.20375 C4.74563328,6.143125 9.3154792,11.99875 13.7583328,17.77375 C18.1986841,23.54875 22.5752265,29.29125 26.8854576,35 C31.1963143,40.711875 35.5065455,46.3875 39.8174022,52.03125 C44.1282589,57.67625 48.5367057,63.369375 53.0433683,69.111875 C53.3692943,69.56875 53.680832,69.99125 53.974228,70.383125 C54.267624,70.775 54.5766595,71.199375 54.9050878,71.65625 C54.8394022,71.134375 54.7899815,70.6125 54.758077,70.090625 C54.7242958,69.56875 54.6755008,69.046875 54.6104407,68.523125 L54.6104407,3.336875 L55.9817072,3.336875 L55.9817072,3.336875 Z"></path>
                    <path d="M73.614869,37.691875 C73.614869,32.8625 74.5282126,28.313125 76.3574022,24.03875 C78.1847149,19.76625 80.6838983,16.04625 83.8524499,12.880625 C87.0191248,9.716875 90.7256733,7.204375 94.97147,5.3425 C99.216641,3.484375 103.755208,2.55375 108.589673,2.55375 C113.422262,2.55375 117.976468,3.484375 122.255421,5.3425 C126.532496,7.204375 130.25531,9.71625 133.424487,12.880625 C136.591162,16.04625 139.107236,19.76625 140.96833,24.03875 C142.829424,28.313125 143.760909,32.863125 143.760909,37.691875 C143.760909,42.5225 142.828798,47.055 140.96833,51.296875 C139.107236,55.539375 136.591162,59.241875 133.424487,62.405625 C130.255935,65.57125 126.533122,68.068125 122.255421,69.89375 C117.977094,71.72125 113.422262,72.635 108.589673,72.635 C103.755208,72.635 99.216641,71.72125 94.97147,69.89375 C90.7256733,68.068125 87.0191248,65.57125 83.8524499,62.405625 C80.6838983,59.241875 78.1847149,55.539375 76.3574022,51.296875 C74.5282126,47.055 73.614869,42.5225 73.614869,37.691875 L73.614869,37.691875 Z M74.98551,37.790625 C74.98551,42.425 75.8675747,46.761875 77.6317042,50.8075 C79.3939569,54.854375 81.7780339,58.393125 84.7820586,61.426875 C87.7860832,64.4625 91.3124653,66.86 95.3637072,68.6225 C99.4124468,70.383125 103.723304,71.264375 108.294401,71.264375 C112.931809,71.264375 117.323991,70.383125 121.472197,68.6225 C125.618527,66.86 129.242499,64.4625 132.345991,61.426875 C135.447606,58.393125 137.896743,54.8375 139.693402,50.758125 C141.488185,46.680625 142.387766,42.325625 142.387766,37.691875 C142.387766,33.06 141.488185,28.705 139.693402,24.625625 C137.896743,20.548125 135.463871,16.9775 132.394786,13.909375 C129.32445,10.843125 125.748022,8.413125 121.667378,6.61625 C117.584857,4.823125 113.225205,3.924375 108.589048,3.924375 C103.950388,3.924375 99.5913621,4.823125 95.510718,6.61625 C91.4275716,8.413125 87.8686595,10.843125 84.8321048,13.909375 C81.7955501,16.9775 79.3945824,20.56375 77.6317042,24.675625 C75.8675747,28.785 74.98551,33.156875 74.98551,37.790625 L74.98551,37.790625 Z"></path>
                    <path d="M161.393445,71.850625 L161.393445,3.336875 L175.108613,3.336875 C177.001612,3.336875 179.091667,3.646875 181.377529,4.265625 C183.664015,4.886875 185.785975,5.898125 187.745285,7.30125 C189.704595,8.704375 191.354243,10.546875 192.693606,12.831875 C194.031091,15.11625 194.70171,17.955 194.70171,21.34625 C194.70171,23.8275 194.293208,26.2075 193.476829,28.4925 C192.659199,30.775 191.403039,32.7975 189.704595,34.56 C188.005525,36.3225 185.835396,37.740625 183.190453,38.8175 C180.544884,39.89375 177.393223,40.4325 173.737347,40.4325 L162.763461,40.4325 L162.763461,71.850625 L161.393445,71.850625 L161.393445,71.850625 Z M162.764086,39.0625 L174.030117,39.0625 C177.817991,39.0625 180.952761,38.443125 183.43568,37.2025 C185.916721,35.96375 187.892921,34.41375 189.362404,32.55375 C190.831886,30.69375 191.861587,28.7225 192.449005,26.633125 C193.036422,24.545625 193.331069,22.653125 193.331069,20.955625 C193.331069,18.543125 192.841242,16.34125 191.861587,14.34875 C190.881932,12.35875 189.52568,10.64625 187.795331,9.21 C186.063732,7.77625 184.039362,6.665625 181.721596,5.881875 C179.401954,5.098125 176.872117,4.708125 174.128958,4.708125 L162.764086,4.708125 L162.764086,39.0625 L162.764086,39.0625 Z M182.162003,38.8675 L201.950906,71.85125 L200.188653,71.85125 L180.594931,38.8675 L182.162003,38.8675 L182.162003,38.8675 Z"></path>
                    <path d="M216.93975,3.336875 L230.94894,3.336875 C237.870958,3.336875 243.733874,4.398125 248.534558,6.518125 C253.333991,8.64 257.236345,11.36375 260.240995,14.690625 C263.24502,18.01875 265.416401,21.70625 266.755763,25.75125 C268.093874,29.79625 268.763867,33.74375 268.763867,37.59375 C268.763867,42.815 267.848647,47.54375 266.021334,51.78625 C264.191519,56.028125 261.709852,59.63375 258.576333,62.6025 C255.440937,65.57125 251.782558,67.855625 247.603698,69.45375 C243.422336,71.05375 238.98261,71.850625 234.279516,71.850625 L216.93975,71.850625 L216.93975,3.336875 L216.93975,3.336875 Z M234.867559,70.480625 C239.242225,70.480625 243.406071,69.715625 247.358471,68.180625 C251.30837,66.649375 254.787208,64.4625 257.791858,61.62375 C260.795883,58.785 263.163695,55.326875 264.894669,51.2475 C266.624391,47.17 267.490817,42.62 267.490817,37.594375 C267.490817,33.874375 266.853353,30.09125 265.580302,26.24125 C264.306626,22.39125 262.249726,18.868125 259.408351,15.669375 C256.566977,12.473125 252.877319,9.86375 248.338752,7.839375 C243.797683,5.816875 238.296977,4.805625 231.830379,4.805625 L218.311017,4.805625 L218.311017,70.480625 L234.867559,70.480625 L234.867559,70.480625 Z"></path>
                    <path d="M282.675467,3.336875 L284.046108,3.336875 L284.046108,71.850625 L282.675467,71.850625 L282.675467,3.336875 L282.675467,3.336875 Z"></path>
                    <path d="M351.546579,67.740625 C348.933541,69.24125 346.140961,70.4325 343.170092,71.31375 C340.197972,72.193125 336.949347,72.635 333.422339,72.635 C328.196262,72.635 323.461889,71.70375 319.217344,69.845625 C314.971547,67.985625 311.33131,65.48875 308.293504,62.358125 C305.256949,59.225 302.905402,55.554375 301.24074,51.345 C299.574826,47.1375 298.741556,42.685625 298.741556,37.98625 C298.741556,33.0275 299.656777,28.39375 301.485966,24.08875 C303.313279,19.781875 305.811211,16.029375 308.979763,12.833125 C312.147063,9.636875 315.852361,7.123125 320.099408,5.295625 C324.342703,3.47 328.881895,2.554375 333.716361,2.554375 C337.047562,2.554375 340.197972,2.980625 343.170092,3.8275 C346.140961,4.67625 348.965445,5.8825 351.644169,7.45 C351.512798,7.645 351.382678,7.84 351.252558,8.036875 C351.120561,8.231875 350.990441,8.42875 350.86032,8.62375 C348.377402,7.123125 345.683664,5.965 342.777855,5.148125 C339.871421,4.33375 336.851131,3.924375 333.716361,3.924375 C329.078327,3.924375 324.718049,4.805625 320.638031,6.56625 C316.556136,8.32875 312.996598,10.760625 309.959418,13.859375 C306.922863,16.96 304.522521,20.580625 302.759017,24.723125 C300.996139,28.8675 300.113448,33.321875 300.113448,38.08375 C300.113448,42.5225 300.897297,46.745625 302.464995,50.758125 C304.032693,54.7725 306.252243,58.295625 309.126773,61.33 C311.999427,64.36375 315.460749,66.78 319.51074,68.573125 C323.560105,70.368125 328.066767,71.265 333.030102,71.265 C336.425738,71.265 339.578025,70.858125 342.484459,70.04125 C345.390268,69.226875 348.117162,68.06875 350.663889,66.565625 L351.546579,67.740625 L351.546579,67.740625 Z"></path>
                    <path d="M402.38979,6.565625 L401.802998,7.64375 C400.887153,7.251875 399.826173,6.86 398.618807,6.468125 C397.40894,6.07625 396.119624,5.70125 394.748357,5.341875 C393.377091,4.984375 391.955778,4.706875 390.486921,4.51 C389.016814,4.315 387.562971,4.2175 386.127895,4.2175 C383.449171,4.2175 381.03319,4.5925 378.877448,5.34125 C376.722333,6.0925 374.893143,7.12125 373.391757,8.426875 C371.887867,9.7325 370.728672,11.24875 369.912918,12.976875 C369.095288,14.706875 368.688037,16.5175 368.688037,18.41 C368.688037,21.478125 369.602632,23.890625 371.432447,25.653125 C373.25976,27.41375 375.56126,28.91625 378.338826,30.155 C381.114515,31.39375 384.101649,32.5525 387.302105,33.62875 C390.50131,34.705 393.49032,36.028125 396.266635,37.59375 C399.042324,39.159375 401.343824,41.18375 403.173014,43.663125 C405.000952,46.1425 405.916173,49.40375 405.916173,53.450625 C405.916173,56.451875 405.37755,59.12625 404.29968,61.475625 C403.221809,63.825 401.736062,65.830625 399.842438,67.495625 C397.947562,69.15875 395.711122,70.431875 393.131239,71.313125 C390.55073,72.1925 387.726247,72.634375 384.657162,72.634375 C381.978438,72.634375 379.513661,72.34 377.26033,71.753125 C375.006998,71.16625 373.014533,70.48 371.284185,69.698125 C369.552586,68.914375 368.100619,68.1325 366.924533,67.34875 C365.748447,66.565 364.867633,66.0125 364.278965,65.685625 L365.063439,64.4125 C366.043094,65.13125 367.250459,65.880625 368.687411,66.664375 C370.123738,67.44625 371.707701,68.18 373.439926,68.86625 C375.169649,69.550625 377.015103,70.1225 378.974413,70.579375 C380.933723,71.03625 382.925562,71.26375 384.951183,71.26375 C387.366539,71.26375 389.751242,70.90625 392.102789,70.1875 C394.454336,69.470625 396.544391,68.376875 398.372955,66.90875 C400.200268,65.440625 401.687267,63.5975 402.830197,61.378125 C403.971251,59.160625 404.54428,56.549375 404.54428,53.548125 C404.54428,49.698125 403.62906,46.596875 401.801747,44.25 C399.971932,41.900625 397.669806,39.9775 394.894117,38.475 C392.117803,36.974375 389.130043,35.70125 385.930838,34.6575 C382.729757,33.61375 379.741371,32.455625 376.966308,31.181875 C374.189994,29.910625 371.887242,28.3125 370.059929,26.3875 C368.23074,24.4625 367.31677,21.900625 367.31677,18.704375 C367.31677,16.486875 367.789707,14.415 368.737458,12.4875 C369.682706,10.564375 370.972647,8.884375 372.606656,7.44875 C374.238163,6.013125 376.164943,4.9025 378.386995,4.11875 C380.606545,3.336875 382.991248,2.945 385.538601,2.945 C386.714062,2.945 388.036533,3.026875 389.506015,3.19 C390.975498,3.354375 392.460619,3.59875 393.964508,3.92375 C395.46527,4.250625 396.951643,4.6425 398.42175,5.0975 C399.891858,5.556875 401.21433,6.045625 402.38979,6.565625 L402.38979,6.565625 Z"></path>
                </g>
                <g transform="translate(97.590139, 85.625000)" id="Rectangle-path">
                    <path d="M0.496590611,1.27667644 L1.44940405,0.324743063 L21.6960261,20.5526644 L20.7432126,21.5045978 L0.496590611,1.27667644 L0.496590611,1.27667644 Z"></path>
                    <path d="M20.7602482,0.32446 L21.7122153,1.27635512 L1.45744579,21.4952526 L0.505478758,20.5433575 L20.7602482,0.32446 L20.7602482,0.32446 Z"></path>
                </g>
                <g transform="translate(366.588598, 140.000000)" id="Shape">
                    <path d="M0.2058151,0.775 L0.2058151,0.025625 L7.01147612,0.025625 L7.01147612,34.825625 L6.26140832,34.825625 L6.26140832,0.775 L0.2058151,0.775 L0.2058151,0.775 Z"></path>
                    <path d="M15.7457935,0.775 L15.7457935,0.025625 L37.2350169,0.025625 C34.6269831,5.879375 32.0189492,11.679375 29.4121664,17.425625 C26.8028814,23.17375 24.1948475,28.974375 21.5868136,34.825625 L20.6221726,34.825625 C23.1951741,29.115 25.7581664,23.44125 28.3124006,17.800625 C30.8660092,12.16125 33.4315039,6.486875 36.0026287,0.775 L15.7457935,0.775 L15.7457935,0.775 Z"></path>
                </g>
                <g id="Shape">
                    <path d="M0.0425392912,2.18125 L11.8503205,2.18125 C16.4358059,2.18125 20.3193929,2.876875 23.5017072,4.2725 C26.695282,5.668125 29.2801695,7.463125 31.2807673,9.676875 C33.2863698,11.883125 34.7295778,14.383125 35.6279076,17.193125 C36.5206071,20.00125 36.9672696,22.804375 36.9672696,25.589375 C36.9672696,29.0075 36.3579569,32.07 35.129322,34.80375 C33.8944314,37.52625 32.2360247,39.84875 30.1666133,41.760625 C28.0803112,43.678125 25.6449368,45.1425 22.8805085,46.16125 C20.1041941,47.18 17.1877504,47.690625 14.0986471,47.690625 L0.0419137134,47.690625 L0.0419137134,2.18125 L0.0425392912,2.18125 Z M12.9169307,40.45125 C15.2878706,40.45125 17.4730139,40.11625 19.4792419,39.449375 C21.4729584,38.784375 23.2001787,37.794375 24.6609029,36.484375 C26.1159969,35.175 27.258302,33.570625 28.0696764,31.67625 C28.8810508,29.78375 29.2807951,27.5875 29.2807951,25.0925 C29.2807951,22.266875 28.7878398,19.861875 27.8144407,17.88125 C26.840416,15.90125 25.6005208,14.3025 24.1053898,13.075625 C22.5971217,11.84875 20.9280801,10.955625 19.1026441,10.39375 C17.2703267,9.825625 15.5193344,9.54875 13.8502928,9.54875 L7.72901387,9.54875 L7.72901387,40.450625 L12.9169307,40.450625 L12.9169307,40.45125 Z"></path>
                    <path d="M44.5955655,47.690625 L44.5955655,2.18125 L57.4699569,2.18125 C59.9747704,2.18125 62.246869,2.518125 64.3162804,3.183125 C66.3688012,3.85 68.119168,4.804375 69.5617504,6.050625 C70.9943236,7.300625 72.1009707,8.84125 72.9004592,10.673125 C73.6886872,12.5025 74.0884314,14.56375 74.0884314,16.851875 C74.0884314,18.09625 73.9670693,19.34875 73.711208,20.59875 C73.4684838,21.850625 73.068114,23.055 72.51698,24.2175 C71.9839877,25.381875 71.2770847,26.454375 70.4075316,27.43875 C69.5323482,28.411875 68.4826287,29.256875 67.27151,29.964375 C68.1873559,31.416875 69.0913159,32.846875 69.9664992,34.236875 C70.8416826,35.6325 71.7287519,37.035625 72.6214515,38.448125 C73.514151,39.866875 74.4418829,41.326875 75.3983914,42.825625 C76.3542743,44.320625 77.3977381,45.94125 78.5219014,47.690625 L69.3346656,47.690625 C67.4623112,44.776875 65.6944284,42.020625 64.0303914,39.420625 C62.3613498,36.820625 60.7554915,34.353125 59.2190724,32.024375 L58.5878644,32.024375 L52.2226102,32.024375 L52.2226102,47.690625 L44.5955655,47.690625 L44.5955655,47.690625 Z M52.2244869,24.8425 L58.3457658,24.8425 C59.9228475,24.8425 61.2321818,24.57125 62.2819014,24.031875 C63.3203606,23.48875 64.1542558,22.835 64.7867149,22.065 C65.4010324,21.295 65.8414391,20.465 66.0966749,19.568125 C66.3393991,18.669375 66.4620123,17.848125 66.4620123,17.1 C66.4620123,16.395 66.3519106,15.595625 66.1254515,14.696875 C65.8939877,13.80625 65.4767273,12.959375 64.8730447,12.17125 C64.2643575,11.38375 63.4417227,10.713125 62.4038891,10.17375 C61.366681,9.635 60.0329492,9.363125 58.4108259,9.363125 L52.2257381,9.363125 L52.2257381,24.8425 L52.2244869,24.8425 Z"></path>
                    <path d="M100.968884,48.189375 C98.505359,48.189375 96.2032327,47.784375 94.0587519,46.971875 C91.9148968,46.16125 90.0538028,45.0275 88.4717165,43.573125 C86.8821233,42.114375 85.6309676,40.35375 84.7144961,38.296875 C83.7992758,36.23625 83.3407273,33.959375 83.3407273,31.456875 L83.3407273,2.18125 L90.9696487,2.18125 L90.9696487,31.270625 C90.9696487,32.60875 91.22551,33.8475 91.7409861,35.0175 C92.2739784,36.181875 92.9689954,37.2025 93.8685763,38.07625 C94.766906,38.951875 95.8210046,39.645625 97.0277442,40.1675 C98.2332327,40.6875 99.5431926,40.949375 100.96951,40.949375 C102.383316,40.949375 103.705787,40.6875 104.933797,40.1675 C106.163057,39.645625 107.229042,38.951875 108.145513,38.07625 C109.061359,37.2025 109.785778,36.181875 110.30188,35.0175 C110.822986,33.8475 111.084478,32.60875 111.084478,31.270625 L111.084478,2.18125 L118.712148,2.18125 L118.712148,31.45625 C118.712148,33.95875 118.242965,36.235 117.327119,38.29625 C116.411273,40.353125 115.153236,42.11375 113.559889,43.5725 C111.947775,45.0275 110.06979,46.16125 107.902163,46.97125 C105.733285,47.784375 103.415519,48.189375 100.968884,48.189375 L100.968884,48.189375 Z"></path>
                    <path d="M128.770188,47.690625 L128.770188,2.18125 L141.644579,2.18125 C144.148142,2.18125 146.426496,2.518125 148.489652,3.183125 C150.542173,3.85 152.292539,4.804375 153.736373,6.050625 C155.167695,7.300625 156.281223,8.84125 157.069451,10.673125 C157.86894,12.5025 158.26368,14.56375 158.26368,16.851875 C158.26368,18.68125 157.985297,20.506875 157.451054,22.31375 C156.906801,24.125625 156.025988,25.746875 154.796102,27.1825 C153.561837,28.62 151.97975,29.784375 150.014185,30.68125 C148.049245,31.57375 145.643273,32.025 142.762487,32.025 L136.397233,32.025 L136.397233,47.69125 L128.770188,47.69125 L128.770188,47.690625 Z M136.397858,24.8425 L142.519763,24.8425 C144.096844,24.8425 145.406179,24.57125 146.455898,24.031875 C147.493106,23.48875 148.328253,22.81 148.953831,22 C149.579408,21.195 150.01481,20.33875 150.269421,19.44625 C150.513396,18.55 150.634758,17.750625 150.634758,17.043125 C150.634758,16.378125 150.524656,15.59625 150.298823,14.6975 C150.066108,13.806875 149.648847,12.96 149.046416,12.171875 C148.437729,11.384375 147.614468,10.71375 146.57726,10.174375 C145.539427,9.635625 144.20632,9.36375 142.577316,9.36375 L136.397858,9.36375 L136.397858,24.8425 L136.397858,24.8425 Z"></path>
                    <path d="M189.322367,47.690625 C189.188493,47.401875 188.97392,46.88 188.661131,46.1325 C188.348342,45.379375 187.959858,44.465625 187.50131,43.381875 C187.044012,42.3 186.545427,41.106875 186.005553,39.7975 C185.466931,38.4825 184.89828,37.12125 184.318995,35.70875 L168.632632,35.70875 L163.629886,47.69125 L156.077911,47.69125 C156.23931,47.314375 156.634049,46.3875 157.265883,44.911875 C157.885831,43.434375 158.668428,41.604375 159.606795,39.42125 C160.540783,37.238125 161.589877,34.804375 162.725926,32.113125 C163.873861,29.430625 165.056203,26.696875 166.256062,23.90625 C167.46718,21.120625 168.643892,18.38125 169.791827,15.69375 C170.934133,13.01375 171.976971,10.58 172.916589,8.396875 C173.849325,6.21375 174.631923,4.37625 175.258752,2.900625 C175.88433,1.423125 176.284074,0.4975 176.446724,0.126875 C176.608123,0.4975 177.014749,1.423125 177.663473,2.900625 C178.307193,4.37625 179.101051,6.21375 180.034413,8.396875 C180.974031,10.58 182.016869,13.01375 183.159174,15.69375 C184.307109,18.38125 185.483821,21.12125 186.69494,23.90625 C187.894798,26.696875 189.07714,29.430625 190.225701,32.113125 C191.362376,34.804375 192.410844,37.238125 193.344206,39.42125 C194.282573,41.604375 195.065171,43.43375 195.68637,44.911875 C196.318203,46.3875 196.712317,47.315 196.874342,47.69125 L189.322367,47.69125 L189.322367,47.690625 Z M171.260059,29.273125 L181.636518,29.273125 L177.137988,18.415 C177.085439,18.375 176.986598,18.09 176.825199,17.57 C176.651288,17.05375 176.5293,16.585625 176.447975,16.16875 C176.36665,16.585625 176.233402,17.05375 176.070752,17.57 C175.908102,18.09 175.826777,18.375 175.826777,18.415 L171.260059,29.273125 L171.260059,29.273125 Z"></path>
                    <path d="M202.121689,47.690625 L202.121689,2.18125 L209.75061,2.18125 L209.75061,40.450625 L231.871042,40.450625 L231.871042,47.69 L202.121689,47.69 L202.121689,47.690625 Z"></path>
                    <path d="M271.288074,44.32 C270.789488,44.650625 270.088216,45.05 269.195516,45.506875 C268.295935,45.96375 267.241837,46.38625 266.011951,46.785625 C264.783941,47.179375 263.398287,47.51 261.850607,47.78375 C260.314188,48.055 258.667667,48.18875 256.917926,48.18875 C253.340247,48.18875 250.123525,47.580625 247.300918,46.345625 C244.460169,45.11875 242.072965,43.46875 240.107399,41.383125 C238.15372,39.303125 236.652333,36.87125 235.614499,34.080625 C234.56478,31.2875 234.049304,28.356875 234.049304,25.283125 C234.049304,21.866875 234.674881,18.710625 235.927288,15.820625 C237.179695,12.93 238.866253,10.433125 241.016989,8.326875 C243.162096,6.23 245.660028,4.595625 248.517667,3.43125 C251.369676,2.26875 254.418743,1.68375 257.670496,1.68375 C258.922903,1.68375 260.17531,1.775625 261.444607,1.96125 C262.713904,2.1525 263.913763,2.389375 265.044182,2.68 C266.163341,2.974375 267.160512,3.305 268.011923,3.681875 C268.85833,4.05875 269.478277,4.4525 269.854875,4.86375 C269.477652,5.44875 269.182379,5.92875 268.979692,6.299375 C268.765744,6.67625 268.551171,7.064375 268.319707,7.458125 C268.098253,7.851875 267.843643,8.299375 267.577146,8.801875 C267.298764,9.300625 266.915285,9.983125 266.417325,10.85875 C265.919365,10.528125 265.310678,10.231875 264.609405,9.983125 C263.896247,9.735 263.154311,9.5375 262.388604,9.3925 C261.617892,9.2475 260.835294,9.1325 260.04081,9.050625 C259.246327,8.964375 258.545054,8.924375 257.914471,8.924375 C255.589199,8.924375 253.432832,9.36375 251.451002,10.231875 C249.474176,11.1075 247.76322,12.265625 246.331898,13.701875 C244.888065,15.1375 243.769532,16.811875 242.951901,18.72375 C242.140527,20.63875 241.735153,22.61375 241.735153,24.659375 C241.735153,26.65125 242.123636,28.5975 242.894974,30.495625 C243.660681,32.39 244.744807,34.056875 246.141097,35.5175 C247.532382,36.978125 249.190163,38.15375 251.115066,39.044375 C253.021827,39.9375 255.149418,40.388125 257.479069,40.388125 C258.812801,40.388125 260.098989,40.254375 261.351396,39.976875 C262.603177,39.709375 263.71045,39.409375 264.666958,39.0725 C265.623467,38.74375 266.406065,38.4075 267.008496,38.076875 C267.617183,37.74 267.931223,37.515 267.983146,37.38875 L271.288074,44.32 L271.288074,44.32 Z"></path>
                    <path d="M304.972937,47.690625 C304.839063,47.401875 304.62449,46.88 304.311701,46.1325 C303.992656,45.379375 303.610428,44.465625 303.15188,43.381875 C302.693957,42.3 302.195371,41.106875 301.656123,39.7975 C301.116875,38.4825 300.548851,37.12125 299.969565,35.70875 L284.283827,35.70875 L279.281082,47.69125 L271.727855,47.69125 C271.890505,47.314375 272.284619,46.3875 272.915827,44.911875 C273.536401,43.434375 274.318998,41.604375 275.251735,39.42125 C276.191353,37.238125 277.234191,34.804375 278.376496,32.113125 C279.524431,29.430625 280.707399,26.696875 281.907257,23.90625 C283.118376,21.120625 284.294462,18.38125 285.443023,15.69375 C286.584077,13.01375 287.633797,10.58 288.567159,8.396875 C289.499895,6.21375 290.288749,4.37625 290.902441,2.900625 C291.5349,1.423125 291.934644,0.4975 292.097294,0.126875 C292.259319,0.4975 292.664693,1.423125 293.314043,2.900625 C293.956512,4.37625 294.752247,6.21375 295.684983,8.396875 C296.618345,10.58 297.666814,13.01375 298.809119,15.69375 C299.957054,18.38125 301.140022,21.12125 302.344884,23.90625 C303.544743,26.696875 304.72771,29.430625 305.875646,32.113125 C307.0167,34.804375 308.060789,37.238125 309.000407,39.42125 C309.932518,41.604375 310.715116,43.43375 311.335063,44.911875 C311.967522,46.3875 312.362262,47.315 312.523035,47.69125 L304.972937,47.69125 L304.972937,47.690625 Z M286.910003,29.273125 L297.280206,29.273125 L292.787932,18.415 C292.735384,18.375 292.637168,18.09 292.473892,17.57 C292.301233,17.05375 292.178619,16.585625 292.09792,16.16875 C292.016595,16.585625 291.882721,17.05375 291.720696,17.57 C291.558046,18.09 291.476721,18.375 291.476721,18.415 L286.910003,29.273125 L286.910003,29.273125 Z"></path>
                    <path d="M317.777889,0.18375 C317.986206,0.4725 318.450385,1.128125 319.146028,2.1525 C319.859186,3.17125 320.746256,4.41625 321.80098,5.89375 C322.86759,7.3775 324.061818,9.01 325.371153,10.799375 C326.681112,12.58875 328.014844,14.408125 329.371723,16.260625 C330.722345,18.113125 332.043565,19.92125 333.336635,21.688125 C334.628453,23.45875 335.79453,25.075625 336.837994,26.52875 C337.868946,27.981875 338.756015,29.205 339.487316,30.178125 C340.222995,31.1625 340.669658,31.77625 340.831057,32.025 C340.912382,31.896875 341.28898,31.37125 341.962102,30.426875 C342.623337,29.49375 343.462863,28.318125 344.489436,26.899375 C345.509753,25.4925 346.668949,23.8775 347.961393,22.065 C349.253837,20.25125 350.581938,18.415625 351.956333,16.53875 C353.330102,14.66875 354.668213,12.81625 355.984428,10.985 C357.294388,9.155625 358.505507,7.4925 359.613405,5.991875 C360.715048,4.493125 361.635898,3.22375 362.38972,2.181875 C363.14229,1.14 363.618354,0.473125 363.826672,0.184375 L363.826672,47.69125 L355.635982,47.69125 L355.635982,24.4675 C355.635982,24.13125 355.676018,23.783125 355.76923,23.406875 C355.850555,23.031875 355.891217,22.805 355.891217,22.724375 L340.831057,44.38375 C340.62837,44.135625 340.117898,43.445 339.306524,42.323125 C338.489519,41.199375 337.526755,39.866875 336.396336,38.325625 C335.266542,36.7925 334.089831,35.135 332.838049,33.363125 C331.585643,31.596875 330.402675,29.9525 329.307288,28.435 C328.200015,26.91125 327.261023,25.619375 326.489686,24.56 C325.719599,23.50125 325.289827,22.8875 325.208502,22.724375 C325.208502,22.805 325.249165,23.0325 325.342376,23.406875 C325.424327,23.78375 325.463738,24.13125 325.463738,24.4675 L325.463738,47.690625 L317.777889,47.690625 L317.777889,0.18375 L317.777889,0.18375 Z"></path>
                    <path d="M374.318237,47.690625 L374.318237,2.18125 L387.192629,2.18125 C389.697442,2.18125 391.975171,2.518125 394.038327,3.183125 C396.090222,3.85 397.841214,4.804375 399.284422,6.050625 C400.71637,7.300625 401.829273,8.84125 402.617501,10.673125 C403.416989,12.5025 403.811103,14.56375 403.811103,16.851875 C403.811103,18.68125 403.533347,20.506875 402.999729,22.31375 C402.454851,24.125625 401.573411,25.746875 400.345402,27.1825 C399.109886,28.62 397.5278,29.784375 395.562234,30.68125 C393.596669,31.57375 391.191948,32.025 388.311162,32.025 L381.945908,32.025 L381.945908,47.69125 L374.318237,47.69125 L374.318237,47.690625 Z M381.947159,24.8425 L388.068438,24.8425 C389.644894,24.8425 390.954228,24.57125 392.003948,24.031875 C393.042407,23.48875 393.876302,22.81 394.503131,22 C395.128709,21.195 395.56286,20.33875 395.818721,19.44625 C396.062071,18.55 396.184059,17.750625 396.184059,17.043125 C396.184059,16.378125 396.073957,15.59625 395.847498,14.6975 C395.616034,13.806875 395.198773,12.96 394.595091,12.171875 C393.986404,11.384375 393.163769,10.71375 392.125935,10.174375 C391.089353,9.635625 389.755621,9.36375 388.126616,9.36375 L381.947159,9.36375 L381.947159,24.8425 L381.947159,24.8425 Z"></path>
                </g>
            </g>
            <g id="Group-+-Group-+-Group" transform="translate(1300.000000, 761.000000)" fill="#FFFFFF" sketch:type="MSShapeGroup">
                <g id="Group" transform="translate(0.000000, 0.750000)">
                    <path d="M55.9817072,3.336875 L55.9817072,74.98375 C46.6412049,63.30375 37.6128659,51.770625 28.8935624,40.383125 C20.1748844,28.996875 11.536906,17.62625 2.98212943,6.273125 C2.65370108,5.81625 2.34466564,5.391875 2.05126965,5 C1.75787365,4.608125 1.44696148,4.185625 1.12040986,3.72875 C1.18484438,4.250625 1.23301387,4.7725 1.26742065,5.294375 C1.29869954,5.81625 1.34749461,6.338125 1.41380586,6.86 L1.41380586,71.850625 L0.043164869,71.850625 L0.043164869,0.20375 C4.74563328,6.143125 9.3154792,11.99875 13.7583328,17.77375 C18.1986841,23.54875 22.5752265,29.29125 26.8854576,35 C31.1963143,40.711875 35.5065455,46.3875 39.8174022,52.03125 C44.1282589,57.67625 48.5367057,63.369375 53.0433683,69.111875 C53.3692943,69.56875 53.680832,69.99125 53.974228,70.383125 C54.267624,70.775 54.5766595,71.199375 54.9050878,71.65625 C54.8394022,71.134375 54.7899815,70.6125 54.758077,70.090625 C54.7242958,69.56875 54.6755008,69.046875 54.6104407,68.523125 L54.6104407,3.336875 L55.9817072,3.336875 L55.9817072,3.336875 Z" id="Shape"></path>
                    <path d="M73.614869,37.691875 C73.614869,32.8625 74.5282126,28.313125 76.3574022,24.03875 C78.1847149,19.76625 80.6838983,16.04625 83.8524499,12.880625 C87.0191248,9.716875 90.7256733,7.204375 94.97147,5.3425 C99.216641,3.484375 103.755208,2.55375 108.589673,2.55375 C113.422262,2.55375 117.976468,3.484375 122.255421,5.3425 C126.532496,7.204375 130.25531,9.71625 133.424487,12.880625 C136.591162,16.04625 139.107236,19.76625 140.96833,24.03875 C142.829424,28.313125 143.760909,32.863125 143.760909,37.691875 C143.760909,42.5225 142.828798,47.055 140.96833,51.296875 C139.107236,55.539375 136.591162,59.241875 133.424487,62.405625 C130.255935,65.57125 126.533122,68.068125 122.255421,69.89375 C117.977094,71.72125 113.422262,72.635 108.589673,72.635 C103.755208,72.635 99.216641,71.72125 94.97147,69.89375 C90.7256733,68.068125 87.0191248,65.57125 83.8524499,62.405625 C80.6838983,59.241875 78.1847149,55.539375 76.3574022,51.296875 C74.5282126,47.055 73.614869,42.5225 73.614869,37.691875 L73.614869,37.691875 Z M75.614869,37.4139677 C75.614869,41.9106738 76.4707311,46.1187174 78.1824552,50.0441629 C79.8923584,53.9708213 82.2056139,57.404449 85.1204009,60.3480783 C88.0351879,63.2935269 91.4568151,65.6198067 95.3877107,67.3299498 C99.3161782,69.0382736 103.498976,69.8933451 107.934284,69.8933451 C112.433934,69.8933451 116.695641,69.0382736 120.720621,67.3299498 C124.743779,65.6198067 128.260098,63.2935269 131.271397,60.3480783 C134.280875,57.404449 136.657258,53.9544476 138.400546,49.9962546 C140.142013,46.039881 141.014871,41.8142508 141.014871,37.3181512 C141.014871,32.8238709 140.142013,28.5982407 138.400546,24.6400478 C136.657258,20.6836742 134.296657,17.2191183 131.318742,14.2421352 C128.339614,11.2669713 124.869427,8.909157 120.910003,7.16566005 C116.948758,5.42580169 112.718614,4.55375 108.220179,4.55375 C103.719315,4.55375 99.4897786,5.42580169 95.5303543,7.16566005 C91.5685021,8.909157 88.1153111,11.2669713 85.1689604,14.2421352 C82.2226098,17.2191183 79.8929654,20.698835 78.1824552,24.6885625 C76.4707311,28.6758642 75.614869,32.9178681 75.614869,37.4139677 L75.614869,37.4139677 Z" id="Shape"></path>
                    <path d="M161.393445,71.850625 L161.393445,3.336875 L175.108613,3.336875 C177.001612,3.336875 179.091667,3.646875 181.377529,4.265625 C183.664015,4.886875 185.785975,5.898125 187.745285,7.30125 C189.704595,8.704375 191.354243,10.546875 192.693606,12.831875 C194.031091,15.11625 194.70171,17.955 194.70171,21.34625 C194.70171,23.8275 194.293208,26.2075 193.476829,28.4925 C192.659199,30.775 191.403039,32.7975 189.704595,34.56 C188.005525,36.3225 185.835396,37.740625 183.190453,38.8175 C180.544884,39.89375 177.393223,40.4325 173.737347,40.4325 L162.763461,40.4325 L162.763461,71.850625 L161.393445,71.850625 L161.393445,71.850625 Z M162.764086,39.0625 L174.030117,39.0625 C177.817991,39.0625 180.952761,38.443125 183.43568,37.2025 C185.916721,35.96375 187.892921,34.41375 189.362404,32.55375 C190.831886,30.69375 191.861587,28.7225 192.449005,26.633125 C193.036422,24.545625 193.331069,22.653125 193.331069,20.955625 C193.331069,18.543125 192.841242,16.34125 191.861587,14.34875 C190.881932,12.35875 189.52568,10.64625 187.795331,9.21 C186.063732,7.77625 184.039362,6.665625 181.721596,5.881875 C179.401954,5.098125 176.872117,4.708125 174.128958,4.708125 L162.764086,4.708125 L162.764086,39.0625 L162.764086,39.0625 Z M182.162003,38.8675 L201.950906,71.85125 L200.188653,71.85125 L180.594931,38.8675 L182.162003,38.8675 L182.162003,38.8675 Z" id="Shape"></path>
                    <path d="M216.93975,3.336875 L230.94894,3.336875 C237.870958,3.336875 243.733874,4.398125 248.534558,6.518125 C253.333991,8.64 257.236345,11.36375 260.240995,14.690625 C263.24502,18.01875 265.416401,21.70625 266.755763,25.75125 C268.093874,29.79625 268.763867,33.74375 268.763867,37.59375 C268.763867,42.815 267.848647,47.54375 266.021334,51.78625 C264.191519,56.028125 261.709852,59.63375 258.576333,62.6025 C255.440937,65.57125 251.782558,67.855625 247.603698,69.45375 C243.422336,71.05375 238.98261,71.850625 234.279516,71.850625 L216.93975,71.850625 L216.93975,3.336875 L216.93975,3.336875 Z M234.867559,70.480625 C239.242225,70.480625 243.406071,69.715625 247.358471,68.180625 C251.30837,66.649375 254.787208,64.4625 257.791858,61.62375 C260.795883,58.785 263.163695,55.326875 264.894669,51.2475 C266.624391,47.17 267.490817,42.62 267.490817,37.594375 C267.490817,33.874375 266.853353,30.09125 265.580302,26.24125 C264.306626,22.39125 262.249726,18.868125 259.408351,15.669375 C256.566977,12.473125 252.877319,9.86375 248.338752,7.839375 C243.797683,5.816875 238.296977,4.805625 231.830379,4.805625 L218.311017,4.805625 L218.311017,70.480625 L234.867559,70.480625 L234.867559,70.480625 Z" id="Shape"></path>
                    <path d="M282.675467,3.336875 L284.046108,3.336875 L284.046108,71.850625 L282.675467,71.850625 L282.675467,3.336875 L282.675467,3.336875 Z" id="Shape"></path>
                    <path d="M351.546579,67.740625 C348.933541,69.24125 346.140961,70.4325 343.170092,71.31375 C340.197972,72.193125 336.949347,72.635 333.422339,72.635 C328.196262,72.635 323.461889,71.70375 319.217344,69.845625 C314.971547,67.985625 311.33131,65.48875 308.293504,62.358125 C305.256949,59.225 302.905402,55.554375 301.24074,51.345 C299.574826,47.1375 298.741556,42.685625 298.741556,37.98625 C298.741556,33.0275 299.656777,28.39375 301.485966,24.08875 C303.313279,19.781875 305.811211,16.029375 308.979763,12.833125 C312.147063,9.636875 315.852361,7.123125 320.099408,5.295625 C324.342703,3.47 328.881895,2.554375 333.716361,2.554375 C337.047562,2.554375 340.197972,2.980625 343.170092,3.8275 C346.140961,4.67625 348.965445,5.8825 351.644169,7.45 C351.512798,7.645 351.382678,7.84 351.252558,8.036875 C351.120561,8.231875 350.990441,8.42875 350.86032,8.62375 C348.377402,7.123125 345.683664,5.965 342.777855,5.148125 C339.871421,4.33375 336.851131,3.924375 333.716361,3.924375 C329.078327,3.924375 324.718049,4.805625 320.638031,6.56625 C316.556136,8.32875 312.996598,10.760625 309.959418,13.859375 C306.922863,16.96 304.522521,20.580625 302.759017,24.723125 C300.996139,28.8675 300.113448,33.321875 300.113448,38.08375 C300.113448,42.5225 300.897297,46.745625 302.464995,50.758125 C304.032693,54.7725 306.252243,58.295625 309.126773,61.33 C311.999427,64.36375 315.460749,66.78 319.51074,68.573125 C323.560105,70.368125 328.066767,71.265 333.030102,71.265 C336.425738,71.265 339.578025,70.858125 342.484459,70.04125 C345.390268,69.226875 348.117162,68.06875 350.663889,66.565625 L351.546579,67.740625 L351.546579,67.740625 Z" id="Shape"></path>
                    <path d="M402.38979,6.565625 L401.802998,7.64375 C400.887153,7.251875 399.826173,6.86 398.618807,6.468125 C397.40894,6.07625 396.119624,5.70125 394.748357,5.341875 C393.377091,4.984375 391.955778,4.706875 390.486921,4.51 C389.016814,4.315 387.562971,4.2175 386.127895,4.2175 C383.449171,4.2175 381.03319,4.5925 378.877448,5.34125 C376.722333,6.0925 374.893143,7.12125 373.391757,8.426875 C371.887867,9.7325 370.728672,11.24875 369.912918,12.976875 C369.095288,14.706875 368.688037,16.5175 368.688037,18.41 C368.688037,21.478125 369.602632,23.890625 371.432447,25.653125 C373.25976,27.41375 375.56126,28.91625 378.338826,30.155 C381.114515,31.39375 384.101649,32.5525 387.302105,33.62875 C390.50131,34.705 393.49032,36.028125 396.266635,37.59375 C399.042324,39.159375 401.343824,41.18375 403.173014,43.663125 C405.000952,46.1425 405.916173,49.40375 405.916173,53.450625 C405.916173,56.451875 405.37755,59.12625 404.29968,61.475625 C403.221809,63.825 401.736062,65.830625 399.842438,67.495625 C397.947562,69.15875 395.711122,70.431875 393.131239,71.313125 C390.55073,72.1925 387.726247,72.634375 384.657162,72.634375 C381.978438,72.634375 379.513661,72.34 377.26033,71.753125 C375.006998,71.16625 373.014533,70.48 371.284185,69.698125 C369.552586,68.914375 368.100619,68.1325 366.924533,67.34875 C365.748447,66.565 364.867633,66.0125 364.278965,65.685625 L365.063439,64.4125 C366.043094,65.13125 367.250459,65.880625 368.687411,66.664375 C370.123738,67.44625 371.707701,68.18 373.439926,68.86625 C375.169649,69.550625 377.015103,70.1225 378.974413,70.579375 C380.933723,71.03625 382.925562,71.26375 384.951183,71.26375 C387.366539,71.26375 389.751242,70.90625 392.102789,70.1875 C394.454336,69.470625 396.544391,68.376875 398.372955,66.90875 C400.200268,65.440625 401.687267,63.5975 402.830197,61.378125 C403.971251,59.160625 404.54428,56.549375 404.54428,53.548125 C404.54428,49.698125 403.62906,46.596875 401.801747,44.25 C399.971932,41.900625 397.669806,39.9775 394.894117,38.475 C392.117803,36.974375 389.130043,35.70125 385.930838,34.6575 C382.729757,33.61375 379.741371,32.455625 376.966308,31.181875 C374.189994,29.910625 371.887242,28.3125 370.059929,26.3875 C368.23074,24.4625 367.31677,21.900625 367.31677,18.704375 C367.31677,16.486875 367.789707,14.415 368.737458,12.4875 C369.682706,10.564375 370.972647,8.884375 372.606656,7.44875 C374.238163,6.013125 376.164943,4.9025 378.386995,4.11875 C380.606545,3.336875 382.991248,2.945 385.538601,2.945 C386.714062,2.945 388.036533,3.026875 389.506015,3.19 C390.975498,3.354375 392.460619,3.59875 393.964508,3.92375 C395.46527,4.250625 396.951643,4.6425 398.42175,5.0975 C399.891858,5.556875 401.21433,6.045625 402.38979,6.565625 L402.38979,6.565625 Z" id="Shape"></path>
                </g>
                <g id="Group" transform="translate(97.590139, 27.625000)" stroke="#FFFFFF">
                    <path d="M0.496590611,1.27667644 L1.44940405,0.324743063 L21.6960261,20.5526644 L20.7432126,21.5045978 L0.496590611,1.27667644 L0.496590611,1.27667644 Z" id="Rectangle-path"></path>
                    <path d="M20.7602482,0.32446 L21.7122153,1.27635512 L1.45744579,21.4952526 L0.505478758,20.5433575 L20.7602482,0.32446 L20.7602482,0.32446 Z" id="Rectangle-path"></path>
                </g>
                <g id="Group" transform="translate(366.588598, 82.000000)" stroke="#FFFFFF">
                    <path d="M0.2058151,0.775 L0.2058151,0.025625 L7.01147612,0.025625 L7.01147612,34.825625 L6.26140832,34.825625 L6.26140832,0.775 L0.2058151,0.775 L0.2058151,0.775 Z" id="Shape"></path>
                    <path d="M15.7457935,0.775 L15.7457935,0.025625 L37.2350169,0.025625 C34.6269831,5.879375 32.0189492,11.679375 29.4121664,17.425625 C26.8028814,23.17375 24.1948475,28.974375 21.5868136,34.825625 L20.6221726,34.825625 C23.1951741,29.115 25.7581664,23.44125 28.3124006,17.800625 C30.8660092,12.16125 33.4315039,6.486875 36.0026287,0.775 L15.7457935,0.775 L15.7457935,0.775 Z" id="Shape"></path>
                </g>
            </g>
        </g>
    </g>
</svg>