<?xml version="1.0" encoding="utf-8"?>
<!-- Generator: Adobe Illustrator 16.0.0, SVG Export Plug-In . SVG Version: 6.00 Build 0)  -->
<!DOCTYPE svg PUBLIC "-//W3C//DTD SVG 1.1//EN" "http://www.w3.org/Graphics/SVG/1.1/DTD/svg11.dtd">
<svg version="1.1" xmlns="http://www.w3.org/2000/svg" xmlns:xlink="http://www.w3.org/1999/xlink" x="0px" y="0px"
	 width="1007.95px" height="168.188px" viewBox="0 0 1007.95 168.188" enable-background="new 0 0 1007.95 168.188"
	 xml:space="preserve">
<g id="Layer_1">
	<g>
		<defs>
			<rect id="SVGID_22_" width="1007.95" height="168.188"/>
		</defs>
		<clipPath id="SVGID_2_">
			<use xlink:href="#SVGID_22_"  overflow="visible"/>
		</clipPath>
		<g clip-path="url(#SVGID_2_)">
			<rect x="347.604" y="28.311" fill="#A48A7B" width="1.649" height="60.486"/>
			<rect x="377.75" y="28.623" fill="#A48A7B" width="1.688" height="60.486"/>
			<rect x="409.081" y="29.119" fill="#A48A7B" width="1.665" height="60.486"/>
			<rect x="436.79" y="29.119" fill="#A48A7B" width="1.688" height="60.486"/>
			<rect x="322.246" y="27.926" fill="#A48A7B" width="1.688" height="60.486"/>
			<g>
				<rect x="322.246" y="10.496" fill="#C61532" width="23.102" height="17.482"/>
				<rect x="329.738" y="10.496" fill="#FFFFFF" width="2.498" height="17.482"/>
				<rect x="322.246" y="17.988" fill="#FFFFFF" width="23.102" height="2.498"/>
			</g>
			<g>
				<rect x="347.604" y="10.556" fill="#026BA9" width="28.409" height="17.755"/>
				<rect x="356.481" y="10.556" fill="#FECC04" width="3.551" height="17.755"/>
				<rect x="347.604" y="17.656" fill="#FECC04" width="28.409" height="3.554"/>
			</g>
			<g>
				<rect x="377.75" y="10.563" fill="#FFFFFF" width="29.472" height="18.011"/>
				<rect x="377.75" y="17.113" fill="#203B75" width="29.472" height="4.912"/>
				<rect x="385.937" y="10.563" fill="#203B75" width="4.912" height="18.011"/>
			</g>
			<g>
				<rect x="409.081" y="10.563" fill="#E73231" width="25.709" height="18.697"/>
				<rect x="416.093" y="10.563" fill="#FFFFFF" width="4.674" height="18.697"/>
				<rect x="409.081" y="17.953" fill="#FFFFFF" width="25.709" height="4.675"/>
				<rect x="417.261" y="10.563" fill="#22325F" width="2.338" height="18.697"/>
				<rect x="409.081" y="19.122" fill="#22325F" width="25.709" height="2.338"/>
			</g>
			<g>
				<path fill="#1C3F8C" d="M436.79,10.556h25.887v18.638H436.79"/>
				<path fill="#FFFFFF" d="M444.038,10.556h4.143v18.638h-4.143 M436.79,17.805h25.887v4.141H436.79"/>
				<path fill="#D72929" d="M445.073,10.556h2.071v18.638h-2.071 M436.79,18.839h25.887v2.071H436.79"/>
			</g>
		</g>
		<g clip-path="url(#SVGID_2_)">
			<path fill="#5B9E85" d="M988.056,174.951c0-20.572-216.73-104.396-484.08-104.396c-267.351,0-484.081,85.922-484.081,104.396
				c0,47.455,216.73,67.453,484.081,67.453C771.325,242.404,988.056,222.406,988.056,174.951z"/>
			<g>
				<polygon fill="#8CCAAE" points="571.243,78.488 560.786,78.488 562.525,71.516 569.504,71.516 				"/>
				<polygon fill="#8CCAAE" points="571.243,71.516 560.786,71.516 562.525,64.545 569.504,64.545 				"/>
				<polygon fill="#8CCAAE" points="571.243,64.545 560.786,64.545 562.525,57.574 566.015,43.729 569.504,57.574 				"/>
				<rect x="564.596" y="78.488" fill="#7B6A58" width="3.486" height="3.486"/>
			</g>
			<g>
				<polygon fill="#8CCAAE" points="429.105,82.639 421.648,82.639 422.889,77.668 427.865,77.668 				"/>
				<polygon fill="#8CCAAE" points="429.105,77.668 421.648,77.668 422.889,72.695 427.865,72.695 				"/>
				<polygon fill="#8CCAAE" points="429.105,72.695 421.648,72.695 422.889,67.725 425.377,57.852 427.865,67.725 				"/>
				<rect x="424.365" y="82.639" fill="#7B6A58" width="2.486" height="2.486"/>
			</g>
			<g>
				<polygon fill="#8CCAAE" points="454.21,73.516 446.753,73.516 447.993,68.545 452.97,68.545 				"/>
				<polygon fill="#8CCAAE" points="454.21,68.545 446.753,68.545 447.993,63.572 452.97,63.572 				"/>
				<polygon fill="#8CCAAE" points="454.21,63.572 446.753,63.572 447.993,58.602 450.481,48.729 452.97,58.602 				"/>
				<rect x="449.47" y="73.516" fill="#7B6A58" width="2.486" height="2.486"/>
			</g>
			<g>
				<polygon fill="#8CCAAE" points="361.718,77.314 354.261,77.314 355.501,72.342 360.478,72.342 				"/>
				<polygon fill="#8CCAAE" points="361.718,72.342 354.261,72.342 355.501,67.371 360.478,67.371 				"/>
				<polygon fill="#8CCAAE" points="361.718,67.371 354.261,67.371 355.501,62.4 357.989,52.527 360.478,62.4 				"/>
				<rect x="356.978" y="77.314" fill="#7B6A58" width="2.486" height="2.486"/>
			</g>
			<g>
				<polygon fill="#8CCAAE" points="324.968,81.291 317.511,81.291 318.751,76.32 323.728,76.32 				"/>
				<polygon fill="#8CCAAE" points="324.968,76.32 317.511,76.32 318.751,71.348 323.728,71.348 				"/>
				<polygon fill="#8CCAAE" points="324.968,71.348 317.511,71.348 318.751,66.377 321.239,56.504 323.728,66.377 				"/>
				<rect x="320.228" y="81.291" fill="#7B6A58" width="2.486" height="2.486"/>
			</g>
			<g>
				<polygon fill="#8CCAAE" points="240.97,95.83 233.513,95.83 234.753,90.859 239.729,90.859 				"/>
				<polygon fill="#8CCAAE" points="240.97,90.859 233.513,90.859 234.753,85.887 239.729,85.887 				"/>
				<polygon fill="#8CCAAE" points="240.97,85.887 233.513,85.887 234.753,80.916 237.241,71.043 239.729,80.916 				"/>
				<rect x="236.229" y="95.83" fill="#7B6A58" width="2.486" height="2.486"/>
			</g>
			<g>
				<polygon fill="#8CCAAE" points="536.021,76.283 528.563,76.283 529.804,71.311 534.78,71.311 				"/>
				<polygon fill="#8CCAAE" points="536.021,71.311 528.563,71.311 529.804,66.34 534.78,66.34 				"/>
				<polygon fill="#8CCAAE" points="536.021,66.34 528.563,66.34 529.804,61.369 532.292,51.496 534.78,61.369 				"/>
				<rect x="531.28" y="76.283" fill="#7B6A58" width="2.486" height="2.486"/>
			</g>
			<g>
				<polygon fill="#8CCAAE" points="373.563,85.459 363.106,85.459 364.846,78.488 371.824,78.488 				"/>
				<polygon fill="#8CCAAE" points="373.563,78.488 363.106,78.488 364.846,71.516 371.824,71.516 				"/>
				<polygon fill="#8CCAAE" points="373.563,71.516 363.106,71.516 364.846,64.545 368.335,50.701 371.824,64.545 				"/>
				<rect x="366.916" y="85.459" fill="#7B6A58" width="3.486" height="3.486"/>
			</g>
			<g>
				<polygon fill="#8CCAAE" points="337.063,81.734 326.606,81.734 328.346,74.762 335.324,74.762 				"/>
				<polygon fill="#8CCAAE" points="337.063,74.762 326.606,74.762 328.346,67.791 335.324,67.791 				"/>
				<polygon fill="#8CCAAE" points="337.063,67.791 326.606,67.791 328.346,60.82 331.835,46.975 335.324,60.82 				"/>
				<rect x="330.416" y="81.734" fill="#7B6A58" width="3.486" height="3.486"/>
			</g>
			<g>
				<polygon fill="#8CCAAE" points="298.063,94.088 287.606,94.088 289.346,87.115 296.324,87.115 				"/>
				<polygon fill="#8CCAAE" points="298.063,87.115 287.606,87.115 289.346,80.145 296.324,80.145 				"/>
				<polygon fill="#8CCAAE" points="298.063,80.145 287.606,80.145 289.346,73.172 292.835,59.328 296.324,73.172 				"/>
				<rect x="291.416" y="94.088" fill="#7B6A58" width="3.486" height="3.484"/>
			</g>
			<g>
				<polygon fill="#8CCAAE" points="260.318,95.918 249.861,95.918 251.601,88.945 258.579,88.945 				"/>
				<polygon fill="#8CCAAE" points="260.318,88.945 249.861,88.945 251.601,81.975 258.579,81.975 				"/>
				<polygon fill="#8CCAAE" points="260.318,81.975 249.861,81.975 251.601,75.002 255.09,61.158 258.579,75.002 				"/>
				<rect x="253.671" y="95.918" fill="#7B6A58" width="3.486" height="3.484"/>
			</g>
			<g>
				<polygon fill="#8CCAAE" points="231.899,99.891 221.442,99.891 223.182,92.92 230.16,92.92 				"/>
				<polygon fill="#8CCAAE" points="231.899,92.92 221.442,92.92 223.182,85.947 230.16,85.947 				"/>
				<polygon fill="#8CCAAE" points="231.899,85.947 221.442,85.947 223.182,78.977 226.671,65.133 230.16,78.977 				"/>
				<rect x="225.252" y="99.891" fill="#7B6A58" width="3.486" height="3.486"/>
			</g>
			<g>
				<polygon fill="#8CCAAE" points="612.196,76.795 601.739,76.795 603.479,69.822 610.457,69.822 				"/>
				<polygon fill="#8CCAAE" points="612.196,69.822 601.739,69.822 603.479,62.852 610.457,62.852 				"/>
				<polygon fill="#8CCAAE" points="612.196,62.852 601.739,62.852 603.479,55.881 606.968,42.035 610.457,55.881 				"/>
				<rect x="605.549" y="76.795" fill="#7B6A58" width="3.486" height="3.486"/>
			</g>
			<g>
				<polygon fill="#8CCAAE" points="650.063,80.555 639.606,80.555 641.346,73.584 648.324,73.584 				"/>
				<polygon fill="#8CCAAE" points="650.063,73.584 639.606,73.584 641.346,66.611 648.324,66.611 				"/>
				<polygon fill="#8CCAAE" points="650.063,66.611 639.606,66.611 641.346,59.641 644.835,45.795 648.324,59.641 				"/>
				<rect x="643.416" y="80.555" fill="#7B6A58" width="3.486" height="3.486"/>
			</g>
			<g>
				<polygon fill="#8CCAAE" points="680.563,88.945 670.106,88.945 671.846,81.975 678.824,81.975 				"/>
				<polygon fill="#8CCAAE" points="680.563,81.975 670.106,81.975 671.846,75.002 678.824,75.002 				"/>
				<polygon fill="#8CCAAE" points="680.563,75.002 670.106,75.002 671.846,68.031 675.335,54.186 678.824,68.031 				"/>
				<rect x="673.916" y="88.945" fill="#7B6A58" width="3.486" height="3.486"/>
			</g>
			<g>
				<polygon fill="#8CCAAE" points="712.563,92.289 702.106,92.289 703.846,85.316 710.824,85.316 				"/>
				<polygon fill="#8CCAAE" points="712.563,85.316 702.106,85.316 703.846,78.346 710.824,78.346 				"/>
				<polygon fill="#8CCAAE" points="712.563,78.346 702.106,78.346 703.846,71.375 707.335,57.529 710.824,71.375 				"/>
				<rect x="705.916" y="92.289" fill="#7B6A58" width="3.486" height="3.486"/>
			</g>
			<g>
				<polygon fill="#8CCAAE" points="745.063,97.125 734.606,97.125 736.346,90.152 743.324,90.152 				"/>
				<polygon fill="#8CCAAE" points="745.063,90.152 734.606,90.152 736.346,83.182 743.324,83.182 				"/>
				<polygon fill="#8CCAAE" points="745.063,83.182 734.606,83.182 736.346,76.211 739.835,62.365 743.324,76.211 				"/>
				<rect x="738.416" y="97.125" fill="#7B6A58" width="3.486" height="3.486"/>
			</g>
			<g>
				<polygon fill="#8CCAAE" points="795.546,102.439 785.089,102.439 786.828,95.469 793.807,95.469 				"/>
				<polygon fill="#8CCAAE" points="795.546,95.469 785.089,95.469 786.828,88.496 793.807,88.496 				"/>
				<polygon fill="#8CCAAE" points="795.546,88.496 785.089,88.496 786.828,81.525 790.317,67.68 793.807,81.525 				"/>
				<rect x="788.898" y="102.439" fill="#7B6A58" width="3.486" height="3.486"/>
			</g>
			<g>
				<polygon fill="#8CCAAE" points="390.861,103.781 377.266,103.781 379.526,94.717 388.6,94.717 				"/>
				<polygon fill="#8CCAAE" points="390.861,94.717 377.266,94.717 379.526,85.652 388.6,85.652 				"/>
				<polygon fill="#8CCAAE" points="390.861,85.652 377.266,85.652 379.526,76.588 384.063,58.588 388.6,76.588 				"/>
				<rect x="382.219" y="103.781" fill="#7B6A58" width="4.532" height="4.531"/>
			</g>
			<g>
				<polygon fill="#8CCAAE" points="466.309,124.512 452.713,124.512 454.974,115.447 464.047,115.447 				"/>
				<polygon fill="#8CCAAE" points="466.309,115.447 452.713,115.447 454.974,106.385 464.047,106.385 				"/>
				<polygon fill="#8CCAAE" points="466.309,106.385 452.713,106.385 454.974,97.32 459.511,79.32 464.047,97.32 				"/>
				<rect x="457.666" y="124.512" fill="#7B6A58" width="4.532" height="4.533"/>
			</g>
			<g>
				<polygon fill="#8CCAAE" points="376.067,148.504 359.737,148.504 362.453,137.617 373.351,137.617 				"/>
				<polygon fill="#8CCAAE" points="376.067,137.617 359.737,137.617 362.453,126.73 373.351,126.73 				"/>
				<polygon fill="#8CCAAE" points="376.067,126.73 359.737,126.73 362.453,115.844 367.903,94.223 373.351,115.844 				"/>
				<rect x="365.687" y="148.504" fill="#7B6A58" width="5.444" height="5.443"/>
			</g>
			<g>
				<polygon fill="#8CCAAE" points="412.191,138.795 395.861,138.795 398.577,127.908 409.475,127.908 				"/>
				<polygon fill="#8CCAAE" points="412.191,127.908 395.861,127.908 398.577,117.021 409.475,117.021 				"/>
				<polygon fill="#8CCAAE" points="412.191,117.021 395.861,117.021 398.577,106.135 404.026,84.516 409.475,106.135 				"/>
				<rect x="401.811" y="138.795" fill="#7B6A58" width="5.444" height="5.443"/>
			</g>
			<g>
				<polygon fill="#8CCAAE" points="436.081,158.758 419.751,158.758 422.466,147.871 433.364,147.871 				"/>
				<polygon fill="#8CCAAE" points="436.081,147.871 419.751,147.871 422.466,136.984 433.364,136.984 				"/>
				<polygon fill="#8CCAAE" points="436.081,136.984 419.751,136.984 422.466,126.098 427.916,104.477 433.364,126.098 				"/>
				<rect x="425.7" y="158.758" fill="#7B6A58" width="5.443" height="5.443"/>
			</g>
			<g>
				<polygon fill="#8CCAAE" points="554.907,145.66 538.577,145.66 541.293,134.773 552.19,134.773 				"/>
				<polygon fill="#8CCAAE" points="554.907,134.773 538.577,134.773 541.293,123.887 552.19,123.887 				"/>
				<polygon fill="#8CCAAE" points="554.907,123.887 538.577,123.887 541.293,113 546.742,91.381 552.19,113 				"/>
				<rect x="544.526" y="145.66" fill="#7B6A58" width="5.444" height="5.445"/>
			</g>
			<g>
				<polygon fill="#8CCAAE" points="617.2,138.066 600.87,138.066 603.586,127.18 614.483,127.18 				"/>
				<polygon fill="#8CCAAE" points="617.2,127.18 600.87,127.18 603.586,116.293 614.483,116.293 				"/>
				<polygon fill="#8CCAAE" points="617.2,116.293 600.87,116.293 603.586,105.408 609.035,83.787 614.483,105.408 				"/>
				<rect x="606.819" y="138.066" fill="#7B6A58" width="5.444" height="5.445"/>
			</g>
			<g>
				<polygon fill="#8CCAAE" points="647.771,146.902 631.441,146.902 634.157,136.016 645.055,136.016 				"/>
				<polygon fill="#8CCAAE" points="647.771,136.016 631.441,136.016 634.157,125.129 645.055,125.129 				"/>
				<polygon fill="#8CCAAE" points="647.771,125.129 631.441,125.129 634.157,114.242 639.606,92.621 645.055,114.242 				"/>
				<rect x="637.391" y="146.902" fill="#7B6A58" width="5.444" height="5.443"/>
			</g>
			<g>
				<polygon fill="#8CCAAE" points="678.729,146.156 662.398,146.156 665.114,135.27 676.012,135.27 				"/>
				<polygon fill="#8CCAAE" points="678.729,135.27 662.398,135.27 665.114,124.381 676.012,124.381 				"/>
				<polygon fill="#8CCAAE" points="678.729,124.381 662.398,124.381 665.114,113.496 670.563,91.875 676.012,113.496 				"/>
				<rect x="668.348" y="146.156" fill="#7B6A58" width="5.444" height="5.443"/>
			</g>
			<g>
				<polygon fill="#8CCAAE" points="712.271,150.148 695.941,150.148 698.657,139.262 709.555,139.262 				"/>
				<polygon fill="#8CCAAE" points="712.271,139.262 695.941,139.262 698.657,128.375 709.555,128.375 				"/>
				<polygon fill="#8CCAAE" points="712.271,128.375 695.941,128.375 698.657,117.488 704.106,95.867 709.555,117.488 				"/>
				<rect x="701.891" y="150.148" fill="#7B6A58" width="5.444" height="5.443"/>
			</g>
			<g>
				<polygon fill="#8CCAAE" points="758.489,146.793 742.159,146.793 744.875,135.906 755.772,135.906 				"/>
				<polygon fill="#8CCAAE" points="758.489,135.906 742.159,135.906 744.875,125.02 755.772,125.02 				"/>
				<polygon fill="#8CCAAE" points="758.489,125.02 742.159,125.02 744.875,114.133 750.324,92.512 755.772,114.133 				"/>
				<rect x="748.108" y="146.793" fill="#7B6A58" width="5.444" height="5.443"/>
			</g>
			<g>
				<polygon fill="#8CCAAE" points="787.885,148.061 771.555,148.061 774.271,137.174 785.168,137.174 				"/>
				<polygon fill="#8CCAAE" points="787.885,137.174 771.555,137.174 774.271,126.287 785.168,126.287 				"/>
				<polygon fill="#8CCAAE" points="787.885,126.287 771.555,126.287 774.271,115.4 779.72,93.781 785.168,115.4 				"/>
				<rect x="777.504" y="148.061" fill="#7B6A58" width="5.444" height="5.443"/>
			</g>
			<g>
				<polygon fill="#8CCAAE" points="333.771,141.262 317.441,141.262 320.157,130.375 331.055,130.375 				"/>
				<polygon fill="#8CCAAE" points="333.771,130.375 317.441,130.375 320.157,119.488 331.055,119.488 				"/>
				<polygon fill="#8CCAAE" points="333.771,119.488 317.441,119.488 320.157,108.604 325.606,86.982 331.055,108.604 				"/>
				<rect x="323.391" y="141.262" fill="#7B6A58" width="5.444" height="5.445"/>
			</g>
			<g>
				<polygon fill="#8CCAAE" points="290.081,145.859 273.751,145.859 276.466,134.973 287.364,134.973 				"/>
				<polygon fill="#8CCAAE" points="290.081,134.973 273.751,134.973 276.466,124.086 287.364,124.086 				"/>
				<polygon fill="#8CCAAE" points="290.081,124.086 273.751,124.086 276.466,113.199 281.916,91.578 287.364,113.199 				"/>
				<rect x="279.7" y="145.859" fill="#7B6A58" width="5.443" height="5.443"/>
			</g>
			<g>
				<polygon fill="#8CCAAE" points="225.894,150.391 209.563,150.391 212.278,139.504 223.177,139.504 				"/>
				<polygon fill="#8CCAAE" points="225.894,139.504 209.563,139.504 212.278,128.617 223.177,128.617 				"/>
				<polygon fill="#8CCAAE" points="225.894,128.617 209.563,128.617 212.278,117.73 217.729,96.111 223.177,117.73 				"/>
				<rect x="215.513" y="150.391" fill="#7B6A58" width="5.443" height="5.445"/>
			</g>
			<g>
				<polygon fill="#8CCAAE" points="353.861,108.182 340.266,108.182 342.526,99.117 351.6,99.117 				"/>
				<polygon fill="#8CCAAE" points="353.861,99.117 340.266,99.117 342.526,90.053 351.6,90.053 				"/>
				<polygon fill="#8CCAAE" points="353.861,90.053 340.266,90.053 342.526,80.988 347.063,62.988 351.6,80.988 				"/>
				<rect x="345.219" y="108.182" fill="#7B6A58" width="4.532" height="4.531"/>
			</g>
			<g>
				<polygon fill="#8CCAAE" points="317.861,105.578 304.266,105.578 306.526,96.514 315.6,96.514 				"/>
				<polygon fill="#8CCAAE" points="317.861,96.514 304.266,96.514 306.526,87.449 315.6,87.449 				"/>
				<polygon fill="#8CCAAE" points="317.861,87.449 304.266,87.449 306.526,78.387 311.063,60.387 315.6,78.387 				"/>
				<rect x="309.219" y="105.578" fill="#7B6A58" width="4.532" height="4.533"/>
			</g>
			<g>
				<polygon fill="#8CCAAE" points="277.861,102.182 264.266,102.182 266.526,93.117 275.6,93.117 				"/>
				<polygon fill="#8CCAAE" points="277.861,93.117 264.266,93.117 266.526,84.053 275.6,84.053 				"/>
				<polygon fill="#8CCAAE" points="277.861,84.053 264.266,84.053 266.526,74.99 271.063,56.988 275.6,74.99 				"/>
				<rect x="269.219" y="102.182" fill="#7B6A58" width="4.532" height="4.531"/>
			</g>
			<g>
				<polygon fill="#8CCAAE" points="253.361,126.441 239.766,126.441 242.026,117.377 251.1,117.377 				"/>
				<polygon fill="#8CCAAE" points="253.361,117.377 239.766,117.377 242.026,108.312 251.1,108.312 				"/>
				<polygon fill="#8CCAAE" points="253.361,108.312 239.766,108.312 242.026,99.25 246.563,81.248 251.1,99.25 				"/>
				<rect x="244.719" y="126.441" fill="#7B6A58" width="4.532" height="4.531"/>
			</g>
			<g>
				<polygon fill="#8CCAAE" points="209.563,114.826 195.968,114.826 198.229,105.762 207.302,105.762 				"/>
				<polygon fill="#8CCAAE" points="209.563,105.762 195.968,105.762 198.229,96.697 207.302,96.697 				"/>
				<polygon fill="#8CCAAE" points="209.563,96.697 195.968,96.697 198.229,87.635 202.766,69.635 207.302,87.635 				"/>
				<rect x="200.921" y="114.826" fill="#7B6A58" width="4.532" height="4.531"/>
			</g>
			<g>
				<polygon fill="#8CCAAE" points="595.361,99.664 581.766,99.664 584.026,90.602 593.1,90.602 				"/>
				<polygon fill="#8CCAAE" points="595.361,90.602 581.766,90.602 584.026,81.537 593.1,81.537 				"/>
				<polygon fill="#8CCAAE" points="595.361,81.537 581.766,81.537 584.026,72.473 588.563,54.473 593.1,72.473 				"/>
				<rect x="586.719" y="99.664" fill="#7B6A58" width="4.532" height="4.533"/>
			</g>
			<g>
				<polygon fill="#8CCAAE" points="630.633,99.664 617.037,99.664 619.298,90.602 628.371,90.602 				"/>
				<polygon fill="#8CCAAE" points="630.633,90.602 617.037,90.602 619.298,81.537 628.371,81.537 				"/>
				<polygon fill="#8CCAAE" points="630.633,81.537 617.037,81.537 619.298,72.473 623.835,54.473 628.371,72.473 				"/>
				<rect x="621.99" y="99.664" fill="#7B6A58" width="4.532" height="4.533"/>
			</g>
			<g>
				<polygon fill="#8CCAAE" points="664.133,106.617 650.537,106.617 652.798,97.553 661.871,97.553 				"/>
				<polygon fill="#8CCAAE" points="664.133,97.553 650.537,97.553 652.798,88.488 661.871,88.488 				"/>
				<polygon fill="#8CCAAE" points="664.133,88.488 650.537,88.488 652.798,79.424 657.335,61.424 661.871,79.424 				"/>
				<rect x="655.49" y="106.617" fill="#7B6A58" width="4.532" height="4.531"/>
			</g>
			<g>
				<polygon fill="#8CCAAE" points="697.633,102.182 684.037,102.182 686.298,93.117 695.371,93.117 				"/>
				<polygon fill="#8CCAAE" points="697.633,93.117 684.037,93.117 686.298,84.053 695.371,84.053 				"/>
				<polygon fill="#8CCAAE" points="697.633,84.053 684.037,84.053 686.298,74.99 690.835,56.988 695.371,74.99 				"/>
				<rect x="688.99" y="102.182" fill="#7B6A58" width="4.532" height="4.531"/>
			</g>
			<g>
				<polygon fill="#8CCAAE" points="731.133,116.908 717.537,116.908 719.798,107.846 728.871,107.846 				"/>
				<polygon fill="#8CCAAE" points="731.133,107.846 717.537,107.846 719.798,98.781 728.871,98.781 				"/>
				<polygon fill="#8CCAAE" points="731.133,98.781 717.537,98.781 719.798,89.717 724.335,71.717 728.871,89.717 				"/>
				<rect x="722.49" y="116.908" fill="#7B6A58" width="4.532" height="4.533"/>
			</g>
			<g>
				<polygon fill="#8CCAAE" points="771.555,107.047 757.959,107.047 760.22,97.982 769.293,97.982 				"/>
				<polygon fill="#8CCAAE" points="771.555,97.982 757.959,97.982 760.22,88.918 769.293,88.918 				"/>
				<polygon fill="#8CCAAE" points="771.555,88.918 757.959,88.918 760.22,79.855 764.757,61.854 769.293,79.855 				"/>
				<rect x="762.912" y="107.047" fill="#7B6A58" width="4.532" height="4.531"/>
			</g>
			<g>
				<polygon fill="#8CCAAE" points="806.615,137.238 793.02,137.238 795.28,128.174 804.354,128.174 				"/>
				<polygon fill="#8CCAAE" points="806.615,128.174 793.02,128.174 795.28,119.109 804.354,119.109 				"/>
				<polygon fill="#8CCAAE" points="806.615,119.109 793.02,119.109 795.28,110.047 799.817,92.047 804.354,110.047 				"/>
				<rect x="797.973" y="137.238" fill="#7B6A58" width="4.532" height="4.533"/>
			</g>
			<g>
				<rect x="501.723" y="74.953" fill="#B2B2B2" width="4.506" height="83.805"/>
			</g>
			<g>
				<linearGradient id="SVGID_3_" gradientUnits="userSpaceOnUse" x1="503.9756" y1="158.7578" x2="503.9756" y2="167.8457">
					<stop  offset="0" style="stop-color:#B2B2B2"/>
					<stop  offset="1" style="stop-color:#B2B2B2;stop-opacity:0"/>
				</linearGradient>
				<rect x="501.723" y="158.758" fill="url(#SVGID_3_)" width="4.506" height="9.088"/>
			</g>
			<g>
				<polygon fill="#8CCAAE" points="578.071,138.004 561.741,138.004 564.457,127.117 575.354,127.117 				"/>
				<polygon fill="#8CCAAE" points="578.071,127.117 561.741,127.117 564.457,116.23 575.354,116.23 				"/>
				<polygon fill="#8CCAAE" points="578.071,116.23 561.741,116.23 564.457,105.344 569.906,83.723 575.354,105.344 				"/>
				<rect x="567.69" y="138.004" fill="#7B6A58" width="5.444" height="5.443"/>
			</g>
			<g>
				<polygon fill="#8CCAAE" points="419.563,91.428 409.106,91.428 410.846,84.457 417.824,84.457 				"/>
				<polygon fill="#8CCAAE" points="419.563,84.457 409.106,84.457 410.846,77.484 417.824,77.484 				"/>
				<polygon fill="#8CCAAE" points="419.563,77.484 409.106,77.484 410.846,70.514 414.335,56.668 417.824,70.514 				"/>
				<rect x="412.916" y="91.428" fill="#7B6A58" width="3.486" height="3.486"/>
			</g>
		</g>
		<g clip-path="url(#SVGID_2_)">
			<g>
				<path fill="#FFFFFF" d="M492.24,34.701c-0.252,0-0.456-0.205-0.456-0.457c0-1.344,1.156-1.984,2.175-2.551
					c1.061-0.588,1.705-1,1.705-1.754s-0.645-1.164-1.705-1.754c-1.019-0.566-2.175-1.207-2.175-2.551
					c0-0.252,0.204-0.455,0.456-0.455s0.457,0.203,0.457,0.455c0,0.754,0.644,1.164,1.704,1.752c1.02,0.566,2.175,1.209,2.175,2.553
					c0,1.346-1.155,1.986-2.175,2.553c-1.061,0.586-1.704,1-1.704,1.752C492.697,34.496,492.492,34.701,492.24,34.701z"/>
			</g>
			<g>
				<polyline fill="#7B6A58" points="490.301,45.607 490.301,36.244 494.181,36.244 494.172,36.492 494.172,43.027 				"/>
				<path fill="#634E42" d="M490.301,46.064c-0.251,0-0.456-0.205-0.456-0.457v-9.363c0-0.252,0.205-0.457,0.456-0.457h3.88
					c0.123,0,0.241,0.051,0.328,0.141c0.085,0.088,0.132,0.209,0.128,0.334l-0.008,0.246v6.52c0,0.252-0.205,0.455-0.457,0.455
					c-0.253,0-0.456-0.203-0.456-0.455v-6.326h-2.959v8.906C490.757,45.859,490.554,46.064,490.301,46.064z"/>
			</g>
			<g>
				<g>
					<polygon fill="#7B6A58" points="484.58,49.506 484.58,75.365 523.371,75.365 523.371,49.506 523.371,49.422 503.976,36.492 
						484.58,49.422 					"/>
					<path fill="#634E42" d="M523.371,75.822H484.58c-0.252,0-0.457-0.205-0.457-0.457V49.422c0-0.152,0.077-0.295,0.203-0.379
						l19.396-12.932c0.152-0.102,0.353-0.102,0.506,0l19.396,12.932c0.128,0.084,0.204,0.227,0.204,0.379v25.943
						C523.828,75.617,523.623,75.822,523.371,75.822z M485.035,74.91h37.882V49.666l-18.941-12.627l-18.94,12.627V74.91z"/>
				</g>
			</g>
			<g>
				<defs>
					<polygon id="SVGID_25_" points="484.58,49.506 484.58,75.365 498.829,75.365 498.829,59.08 509.122,59.08 509.122,75.365 
						523.371,75.365 523.371,49.506 523.371,49.422 503.976,36.492 484.58,49.422 					"/>
				</defs>
				<clipPath id="SVGID_5_">
					<use xlink:href="#SVGID_25_"  overflow="visible"/>
				</clipPath>
				<g clip-path="url(#SVGID_5_)">
					<g>
						<path fill="#634E42" d="M486.404,69.354h-1.824c-0.252,0-0.457-0.203-0.457-0.455s0.205-0.457,0.457-0.457h1.824
							c0.252,0,0.456,0.205,0.456,0.457S486.656,69.354,486.404,69.354z"/>
					</g>
					<g>
						<path fill="#634E42" d="M499.583,69.354h-4.393c-0.253,0-0.456-0.203-0.456-0.455s0.203-0.457,0.456-0.457h4.393
							c0.252,0,0.456,0.205,0.456,0.457S499.835,69.354,499.583,69.354z M491.896,69.354h-3.295c-0.253,0-0.457-0.203-0.457-0.455
							s0.204-0.457,0.457-0.457h3.295c0.251,0,0.454,0.205,0.454,0.457S492.147,69.354,491.896,69.354z"/>
					</g>
					<g>
						<path fill="#634E42" d="M519.35,69.354h-4.391c-0.254,0-0.457-0.203-0.457-0.455s0.203-0.457,0.457-0.457h4.391
							c0.253,0,0.457,0.205,0.457,0.457S519.603,69.354,519.35,69.354z M511.663,69.354h-3.295c-0.251,0-0.455-0.203-0.455-0.455
							s0.204-0.457,0.455-0.457h3.295c0.252,0,0.456,0.205,0.456,0.457S511.915,69.354,511.663,69.354z M506.172,69.354h-4.393
							c-0.252,0-0.457-0.203-0.457-0.455s0.205-0.457,0.457-0.457h4.393c0.252,0,0.457,0.205,0.457,0.457
							S506.424,69.354,506.172,69.354z"/>
					</g>
					<g>
						<path fill="#634E42" d="M523.371,69.354h-1.824c-0.252,0-0.456-0.203-0.456-0.455s0.204-0.457,0.456-0.457h1.824
							c0.252,0,0.457,0.205,0.457,0.457S523.623,69.354,523.371,69.354z"/>
					</g>
				</g>
				<g clip-path="url(#SVGID_5_)">
					<g>
						<path fill="#634E42" d="M486.404,62.887h-1.824c-0.252,0-0.457-0.205-0.457-0.457c0-0.25,0.205-0.455,0.457-0.455h1.824
							c0.252,0,0.456,0.205,0.456,0.455C486.86,62.682,486.656,62.887,486.404,62.887z"/>
					</g>
					<g>
						<path fill="#634E42" d="M499.583,62.887h-4.393c-0.253,0-0.456-0.205-0.456-0.457c0-0.25,0.203-0.455,0.456-0.455h4.393
							c0.252,0,0.456,0.205,0.456,0.455C500.039,62.682,499.835,62.887,499.583,62.887z M491.896,62.887h-3.295
							c-0.253,0-0.457-0.205-0.457-0.457c0-0.25,0.204-0.455,0.457-0.455h3.295c0.251,0,0.454,0.205,0.454,0.455
							C492.351,62.682,492.147,62.887,491.896,62.887z"/>
					</g>
					<g>
						<path fill="#634E42" d="M519.35,62.887h-4.391c-0.254,0-0.457-0.205-0.457-0.457c0-0.25,0.203-0.455,0.457-0.455h4.391
							c0.253,0,0.457,0.205,0.457,0.455C519.807,62.682,519.603,62.887,519.35,62.887z M511.663,62.887h-3.295
							c-0.251,0-0.455-0.205-0.455-0.457c0-0.25,0.204-0.455,0.455-0.455h3.295c0.252,0,0.456,0.205,0.456,0.455
							C512.119,62.682,511.915,62.887,511.663,62.887z M506.172,62.887h-4.393c-0.252,0-0.457-0.205-0.457-0.457
							c0-0.25,0.205-0.455,0.457-0.455h4.393c0.252,0,0.457,0.205,0.457,0.455C506.629,62.682,506.424,62.887,506.172,62.887z"/>
					</g>
					<g>
						<path fill="#634E42" d="M523.371,62.887h-1.824c-0.252,0-0.456-0.205-0.456-0.457c0-0.25,0.204-0.455,0.456-0.455h1.824
							c0.252,0,0.457,0.205,0.457,0.455C523.828,62.682,523.623,62.887,523.371,62.887z"/>
					</g>
				</g>
				<g clip-path="url(#SVGID_5_)">
					<g>
						<path fill="#634E42" d="M486.404,56.418h-1.824c-0.252,0-0.457-0.203-0.457-0.455s0.205-0.455,0.457-0.455h1.824
							c0.252,0,0.456,0.203,0.456,0.455S486.656,56.418,486.404,56.418z"/>
					</g>
					<g>
						<path fill="#634E42" d="M499.583,56.418h-4.393c-0.253,0-0.456-0.203-0.456-0.455s0.203-0.455,0.456-0.455h4.393
							c0.252,0,0.456,0.203,0.456,0.455S499.835,56.418,499.583,56.418z M491.896,56.418h-3.295c-0.253,0-0.457-0.203-0.457-0.455
							s0.204-0.455,0.457-0.455h3.295c0.251,0,0.454,0.203,0.454,0.455S492.147,56.418,491.896,56.418z"/>
					</g>
					<g>
						<path fill="#634E42" d="M519.35,56.418h-4.391c-0.254,0-0.457-0.203-0.457-0.455s0.203-0.455,0.457-0.455h4.391
							c0.253,0,0.457,0.203,0.457,0.455S519.603,56.418,519.35,56.418z M511.663,56.418h-3.295c-0.251,0-0.455-0.203-0.455-0.455
							s0.204-0.455,0.455-0.455h3.295c0.252,0,0.456,0.203,0.456,0.455S511.915,56.418,511.663,56.418z M506.172,56.418h-4.393
							c-0.252,0-0.457-0.203-0.457-0.455s0.205-0.455,0.457-0.455h4.393c0.252,0,0.457,0.203,0.457,0.455
							S506.424,56.418,506.172,56.418z"/>
					</g>
					<g>
						<path fill="#634E42" d="M523.371,56.418h-1.824c-0.252,0-0.456-0.203-0.456-0.455s0.204-0.455,0.456-0.455h1.824
							c0.252,0,0.457,0.203,0.457,0.455S523.623,56.418,523.371,56.418z"/>
					</g>
				</g>
				<g clip-path="url(#SVGID_5_)">
					<g>
						<path fill="#634E42" d="M486.404,49.951h-1.824c-0.252,0-0.457-0.205-0.457-0.455c0-0.252,0.205-0.457,0.457-0.457h1.824
							c0.252,0,0.456,0.205,0.456,0.457C486.86,49.746,486.656,49.951,486.404,49.951z"/>
					</g>
					<g>
						<path fill="#634E42" d="M499.583,49.951h-4.393c-0.253,0-0.456-0.205-0.456-0.455c0-0.252,0.203-0.457,0.456-0.457h4.393
							c0.252,0,0.456,0.205,0.456,0.457C500.039,49.746,499.835,49.951,499.583,49.951z M491.896,49.951h-3.295
							c-0.253,0-0.457-0.205-0.457-0.455c0-0.252,0.204-0.457,0.457-0.457h3.295c0.251,0,0.454,0.205,0.454,0.457
							C492.351,49.746,492.147,49.951,491.896,49.951z"/>
					</g>
					<g>
						<path fill="#634E42" d="M519.35,49.951h-4.391c-0.254,0-0.457-0.205-0.457-0.455c0-0.252,0.203-0.457,0.457-0.457h4.391
							c0.253,0,0.457,0.205,0.457,0.457C519.807,49.746,519.603,49.951,519.35,49.951z M511.663,49.951h-3.295
							c-0.251,0-0.455-0.205-0.455-0.455c0-0.252,0.204-0.457,0.455-0.457h3.295c0.252,0,0.456,0.205,0.456,0.457
							C512.119,49.746,511.915,49.951,511.663,49.951z M506.172,49.951h-4.393c-0.252,0-0.457-0.205-0.457-0.455
							c0-0.252,0.205-0.457,0.457-0.457h4.393c0.252,0,0.457,0.205,0.457,0.457C506.629,49.746,506.424,49.951,506.172,49.951z"/>
					</g>
					<g>
						<path fill="#634E42" d="M523.371,49.951h-1.824c-0.252,0-0.456-0.205-0.456-0.455c0-0.252,0.204-0.457,0.456-0.457h1.824
							c0.252,0,0.457,0.205,0.457,0.457C523.828,49.746,523.623,49.951,523.371,49.951z"/>
					</g>
				</g>
				<g clip-path="url(#SVGID_5_)">
					<g>
						<path fill="#634E42" d="M486.404,43.482h-1.824c-0.252,0-0.457-0.203-0.457-0.455s0.205-0.457,0.457-0.457h1.824
							c0.252,0,0.456,0.205,0.456,0.457S486.656,43.482,486.404,43.482z"/>
					</g>
					<g>
						<path fill="#634E42" d="M519.697,43.482h-3.699c-0.253,0-0.456-0.203-0.456-0.455s0.203-0.457,0.456-0.457h3.699
							c0.252,0,0.456,0.205,0.456,0.457S519.949,43.482,519.697,43.482z M514.148,43.482h-3.699c-0.252,0-0.456-0.203-0.456-0.455
							s0.204-0.457,0.456-0.457h3.699c0.252,0,0.456,0.205,0.456,0.457S514.4,43.482,514.148,43.482z M508.6,43.482H504.9
							c-0.253,0-0.456-0.203-0.456-0.455s0.203-0.457,0.456-0.457h3.699c0.252,0,0.456,0.205,0.456,0.457
							S508.852,43.482,508.6,43.482z M503.051,43.482h-3.699c-0.252,0-0.456-0.203-0.456-0.455s0.204-0.457,0.456-0.457h3.699
							c0.253,0,0.456,0.205,0.456,0.457S503.304,43.482,503.051,43.482z M497.502,43.482h-3.699c-0.252,0-0.456-0.203-0.456-0.455
							s0.204-0.457,0.456-0.457h3.699c0.252,0,0.456,0.205,0.456,0.457S497.754,43.482,497.502,43.482z M491.953,43.482h-3.699
							c-0.252,0-0.456-0.203-0.456-0.455s0.204-0.457,0.456-0.457h3.699c0.253,0,0.457,0.205,0.457,0.457
							S492.206,43.482,491.953,43.482z"/>
					</g>
					<g>
						<path fill="#634E42" d="M523.371,43.482h-1.824c-0.252,0-0.456-0.203-0.456-0.455s0.204-0.457,0.456-0.457h1.824
							c0.252,0,0.457,0.205,0.457,0.457S523.623,43.482,523.371,43.482z"/>
					</g>
				</g>
			</g>
			<g>
				<path fill="#634E42" d="M509.122,75.822h-10.293c-0.251,0-0.455-0.205-0.455-0.457V59.08c0-0.252,0.204-0.455,0.455-0.455
					h10.293c0.251,0,0.455,0.203,0.455,0.455v16.285C509.577,75.617,509.373,75.822,509.122,75.822z M499.285,74.91h9.381V59.537
					h-9.381V74.91z"/>
			</g>
			<g>
				<path fill="#634E42" d="M501.257,68.666c-0.251,0-0.455-0.203-0.455-0.457v-1.973c0-0.252,0.204-0.455,0.455-0.455
					c0.253,0,0.457,0.203,0.457,0.455v1.973C501.714,68.463,501.51,68.666,501.257,68.666z"/>
			</g>
		</g>
	</g>
</g>
<g id="Layer_2">
</g>
</svg>
