<?xml version="1.0" encoding="UTF-8"?>
<svg width="285px" height="63px" viewBox="0 0 285 63" version="1.1" xmlns="http://www.w3.org/2000/svg" xmlns:xlink="http://www.w3.org/1999/xlink">
    <!-- Generator: Sketch 42 (36781) - http://www.bohemiancoding.com/sketch -->
    <title>Acquia</title>
    <desc>Created with Sketch.</desc>
    <defs></defs>
    <g id="Page-1" stroke="none" stroke-width="1" fill="none" fill-rule="evenodd">
        <path d="M84.2,19.2 C88.6,19.2 92.8,20.9 95.5,23.6 C96.5,20.5 98.2,17.8 100.3,15 C95.9,11.6 90.4,9.5 84.2,9.5 C69.8,9.6 57.8,21.3 57.8,36 C57.8,50.4 69.4,62.3 84.1,62.3 C90.3,62.3 95.7,60.2 100.2,56.8 C98.1,54.1 96.8,51.3 95.4,48.2 C92.3,50.9 88.6,52.6 84.1,52.6 C74.9,52.6 67.3,45.1 67.3,35.8 C67.4,26.7 74.9,19.2 84.2,19.2 L84.2,19.2 Z M29.8,-3.55271368e-15 C31.5,-3.55271368e-15 33.2,1.1 33.9,2.8 L59.7,60.2 L49.4,60.2 L45.6,52 L14.1,52 L10.3,60.2 L0,60.2 L26,2.4 C26.7,1 28.1,-3.55271368e-15 29.8,-3.55271368e-15 Z M18.5,42.8 L41.8,42.8 L30.1,17.1 L18.5,42.8 Z M154.3,36 C154.3,21.6 143,10.3 129,9.7 C128.7,9.7 128.3,10 128.7,10.4 C129.7,12.5 132.1,17.2 136.2,20.3 C141.7,24.4 144.8,29.5 144.8,35.7 C144.8,43.6 138.6,52.5 128.4,52.5 C118.1,52.5 112,43.6 112,35.7 C112,29.5 115.4,24.4 120.6,20.3 C124.7,16.9 127.4,12.1 128.1,10 C128.4,9.7 128.1,9.3 127.8,9.3 C113.4,9.6 102.1,21.3 102.1,35.6 C102.1,47.2 112,60.9 128.1,60.9 C135.3,60.9 141.4,58.8 145.9,55.1 L151,59.9 L165.4,59.9 L151.9,47.2 C153.3,44.2 154.3,40.4 154.3,36 Z M217.9,10.6 L227.8,10.6 L227.8,60.2 L217.9,60.2 L217.9,10.6 Z M198.7,35.6 C198.7,45.9 193.6,52.4 185,52.4 C176.4,52.4 171.3,45.9 171.3,35.6 L171.3,10.6 L161.4,10.6 L161.4,35.6 C161.4,50.6 171.3,61.6 185,61.6 C198.7,61.6 208.6,50.7 208.6,35.6 L208.6,10.6 L198.7,10.6 L198.7,35.6 L198.7,35.6 Z M275.4,18.5 L275.4,18.5 L275,18.5 L275,10.6 L284.9,10.6 L284.9,60.2 L275,60.2 L275,53.3 L273.3,55 C268.6,59.1 263.8,61.5 258.3,61.5 C251.8,61.5 245.9,58.8 241.5,54 C237.4,49.2 235,42.7 235,35.2 C235,28 237.1,21.5 241.5,16.7 C245.6,11.6 251.4,9.2 257.9,9.2 C263.7,9.2 268.9,11.6 273.3,16.4 L275.4,18.5 Z M271.6,48.3 C274.7,44.9 276,40.7 276,35.7 C276,30.5 274.3,26.4 271.6,23 C268.9,19.6 265.1,17.9 260.3,17.9 C256.2,17.9 252.4,19.6 249.4,23 C246.4,26.4 245,30.5 245,35.3 C245,40.5 246.4,44.6 249.1,48 C251.8,51.4 255.6,53.1 260,53.1 C264.8,53.1 268.5,51.7 271.6,48.3 Z" id="Acquia" fill="#34A6DE" fill-rule="nonzero"></path>
    </g>
</svg>