<?xml version="1.0" encoding="UTF-8" standalone="no"?>
<svg width="517px" height="211px" viewBox="0 0 517 211" version="1.1" xmlns="http://www.w3.org/2000/svg" xmlns:xlink="http://www.w3.org/1999/xlink" xmlns:sketch="http://www.bohemiancoding.com/sketch/ns">
    <title>akamai</title>
    <desc>Created with Sketch.</desc>
    <defs></defs>
    <g id="Page-1" stroke="none" stroke-width="1" fill="none" fill-rule="evenodd" sketch:type="MSPage">
        <g id="akamai" sketch:type="MSLayerGroup" transform="translate(-2.000000, -1.000000)">
            <g id="Group" sketch:type="MSShapeGroup">
                <g id="Shape" fill="#009BDE">
                    <path d="M108.693904,206.77369 C65.4032086,193.559572 33.9112299,153.552941 33.9112299,106.255187 C33.9112299,58.4457754 66.0678075,18.0859893 110.098182,5.31679144 C114.600214,4.00149733 113.415615,1.08171123 107.990374,1.08171123 C49.4583957,1.08171123 1.99657754,48.1903743 1.99657754,106.255187 C1.99657754,164.32 49.4583957,211.41754 107.990374,211.41754 C113.418396,211.41754 113.635294,208.283636 108.693904,206.77369 L108.693904,206.77369 Z"></path>
                    <path d="M53.991016,130.88984 C53.6990374,128.064599 53.5572193,125.20877 53.5572193,122.325134 C53.5572193,76.2147594 90.944385,38.8387166 137.060321,38.8387166 C180.66246,38.8387166 193.751444,58.2983957 195.375401,57.0275936 C197.146738,55.6260963 179.555722,17.0543316 128.353797,17.0543316 C82.2322995,17.0543316 44.8451337,54.4303743 44.8451337,100.540749 C44.8451337,111.207701 46.844492,121.379679 50.4817112,130.736898 C52.0194652,134.666096 54.3831016,134.696684 53.991016,130.88984 L53.991016,130.88984 Z"></path>
                    <path d="M88.9672727,70.72 C110.671016,61.259893 137.933476,60.9706952 164.737112,70.3390374 C182.736898,76.6179679 193.170267,85.5831016 194.021176,85.2160428 C195.44492,84.6014973 183.548877,65.7674866 162.087059,57.6254545 C136.098182,47.7788235 108.107166,52.9315508 87.7075936,68.9264171 C85.4635294,70.6921925 86.3116578,71.8767914 88.9672727,70.72 L88.9672727,70.72 Z"></path>
                </g>
                <g transform="translate(97.326203, 97.326203)" id="Shape" fill="#F38B00">
                    <path d="M420.82738,12.6663102 C420.82738,18.7283422 415.911016,23.6252406 409.874011,23.6252406 C403.81754,23.6252406 398.91508,18.7255615 398.91508,12.6663102 C398.91508,6.62096257 403.820321,1.71572193 409.874011,1.71572193 C415.911016,1.71572193 420.82738,6.62096257 420.82738,12.6663102 L420.82738,12.6663102 Z"></path>
                    <g transform="translate(0.000000, 2.780749)">
                        <path d="M61.8716578,54.8808556 L40.7240642,54.8808556 L58.9240642,17.9914439 L59.1354011,17.9914439 L61.8716578,54.8808556 L61.8716578,54.8808556 L61.8716578,54.8808556 Z M62.8921925,71.4735829 L64.1852406,86.1058824 L87.3544385,86.1058824 L79.5544385,0.95657754 L45.0509091,0.95657754 L1.42652406,86.1058824 L25.0295187,86.1058824 L32.3512299,71.4735829 L62.8921925,71.4735829 L62.8921925,71.4735829 L62.8921925,71.4735829 Z"></path>
                        <path d="M119.658396,48.8744385 L123.05369,48.8744385 L139.635294,26.4921925 L161.105455,26.4921925 L138.194866,55.1144385 L152.251551,86.1058824 L129.452193,86.1058824 L120.295187,61.9105882 L116.883209,61.9105882 L111.730481,86.1058824 L92.2263102,86.1058824 L110.306738,0.95657754 L129.841497,0.95657754 L119.658396,48.8744385 L119.658396,48.8744385 Z"></path>
                        <path d="M186.098824,61.4684492 C192.463957,61.4684492 196.662888,61.9078075 195.608984,66.9103743 C194.268663,73.1503743 191.574118,74.1875936 183.398717,74.1875936 C180.423316,74.1875936 174.892406,74.1875936 176.257754,67.7140107 C177.420107,62.2414973 181.307594,61.4684492 186.098824,61.4684492 L186.098824,61.4684492 L186.098824,61.4684492 Z M191.540749,86.1058824 L211.061604,86.1058824 L218.975615,48.8744385 C223.316364,28.3108021 215.449626,25.8136898 195.486631,25.8136898 C181.543957,25.8136898 168.054545,25.6941176 164.105882,44.2083422 L183.646203,44.2083422 C184.752941,38.8581818 188.062032,37.7514439 192.95615,37.7514439 C201.451337,37.7514439 201.075936,41.2774332 199.874652,46.811123 L197.891979,56.2545455 L196.985455,56.2545455 C196.245775,49.4389305 187.703316,49.5362567 182.158503,49.5362567 C168.065668,49.5362567 159.667807,53.9687701 156.600642,68.2896257 C153.386096,83.4808556 160.618824,86.7816043 174.23615,86.7816043 C181.062888,86.7816043 190.192086,85.4357219 193.417754,77.2213904 L194.085134,77.2213904 L191.540749,86.1058824 L191.540749,86.1058824 L191.540749,86.1058824 Z"></path>
                        <path d="M250.467594,26.4921925 L248.679572,34.8928342 L249.477647,34.8928342 C253.35123,27.8547594 261.062246,25.8109091 267.752727,25.8109091 C276.15893,25.8109091 284.459465,27.2763636 283.302674,37.5095187 L284.214759,37.5095187 C287.07615,29.0087701 295.782674,25.8109091 303.276791,25.8109091 C317.033155,25.8109091 322.856043,31.4919786 319.916791,45.3623529 L311.226952,86.1003209 L291.717219,86.1003209 L299.061176,51.580107 C300.017754,45.3623529 301.130053,40.7991444 293.510802,40.7991444 C285.927701,40.7991444 283.366631,45.8656684 282.012406,52.2530481 L274.804706,86.1003209 L255.28385,86.1003209 L262.958717,50.0006417 C263.89861,44.5420321 264.343529,40.7991444 257.533476,40.7991444 C249.474866,40.7991444 247.077861,45.1176471 245.595722,52.2530481 L238.371337,86.1003209 L218.842139,86.1003209 L231.539037,26.486631 L250.467594,26.486631 L250.467594,26.4921925 L250.467594,26.4921925 Z"></path>
                        <path d="M350.652406,61.4684492 C356.973048,61.4684492 361.205348,61.9078075 360.157005,66.9103743 C358.841711,73.1503743 356.127701,74.1875936 347.932834,74.1875936 C344.979679,74.1875936 339.420963,74.1875936 340.797433,67.7140107 C341.962567,62.2414973 345.861176,61.4684492 350.652406,61.4684492 L350.652406,61.4684492 L350.652406,61.4684492 Z M356.060963,86.1058824 L375.581818,86.1058824 L383.50139,48.8744385 C387.861604,28.3108021 380.019893,25.8136898 360.048556,25.8136898 C346.053048,25.8136898 332.544171,25.6941176 328.651123,44.2083422 L348.185882,44.2083422 C349.29262,38.8581818 352.63508,37.7514439 357.46246,37.7514439 C365.999358,37.7514439 365.576684,41.2774332 364.453262,46.811123 L362.417754,56.2545455 L361.505668,56.2545455 C360.777112,49.4389305 352.245775,49.5362567 346.700963,49.5362567 C332.619251,49.5362567 324.18246,53.9687701 321.148663,68.2896257 C317.928556,83.4808556 325.161283,86.7816043 338.784171,86.7816043 C345.605348,86.7816043 354.734545,85.4357219 357.971337,77.2213904 L358.638717,77.2213904 L356.060963,86.1058824 L356.060963,86.1058824 L356.060963,86.1058824 Z"></path>
                        <path d="M403.720214,86.1058824 L384.227166,86.1058824 L396.860107,26.4921925 L416.400428,26.4921925 L403.720214,86.1058824 L403.720214,86.1058824 L403.720214,86.1058824 Z"></path>
                    </g>
                </g>
            </g>
        </g>
    </g>
</svg>