<?xml version="1.0" encoding="utf-8"?>
<!-- Generator: Adobe Illustrator 16.0.0, SVG Export Plug-In . SVG Version: 6.00 Build 0)  -->
<!DOCTYPE svg PUBLIC "-//W3C//DTD SVG 1.1//EN" "http://www.w3.org/Graphics/SVG/1.1/DTD/svg11.dtd">
<svg version="1.1" id="Layer_1" xmlns="http://www.w3.org/2000/svg" xmlns:xlink="http://www.w3.org/1999/xlink" x="0px" y="0px"
	 width="360px" height="216px" viewBox="0 0 360 216" enable-background="new 0 0 360 216" xml:space="preserve">
<g>
	<g>
		<g>
			<path fill="#009BDE" d="M126.088,139.359c-15.568-4.752-26.893-19.139-26.893-36.148c0-17.193,11.564-31.707,27.398-36.299
				c1.619-0.473,1.193-1.523-0.758-1.523c-21.049,0-38.117,16.941-38.117,37.822s17.068,37.818,38.117,37.818
				C127.787,141.029,127.865,139.902,126.088,139.359z"/>
			<path fill="#009BDE" d="M106.416,112.07c-0.105-1.016-0.156-2.043-0.156-3.08c0-16.582,13.445-30.023,30.029-30.023
				c15.68,0,20.387,6.998,20.971,6.541c0.637-0.504-5.689-14.375-24.102-14.375c-16.586,0-30.031,13.441-30.031,30.023
				c0,3.836,0.719,7.494,2.027,10.859C105.707,113.428,106.557,113.439,106.416,112.07z"/>
			<path fill="#009BDE" d="M118.994,90.432c7.805-3.402,17.609-3.506,27.248-0.137c6.473,2.258,10.225,5.482,10.531,5.35
				c0.512-0.221-3.766-6.994-11.484-9.922c-9.346-3.541-19.412-1.688-26.748,4.064C117.734,90.422,118.039,90.848,118.994,90.432z"
				/>
		</g>
	</g>
	<g>
		<path fill="#F38B00" d="M273.336,104.555c0,2.18-1.768,3.941-3.939,3.941c-2.178,0-3.941-1.762-3.941-3.941
			c0-2.174,1.764-3.938,3.941-3.938C271.568,100.617,273.336,102.381,273.336,104.555z"/>
		<g>
			<path fill="#F38B00" d="M144.25,120.736h-7.605l6.545-13.266h0.076L144.25,120.736L144.25,120.736z M144.617,126.703l0.465,5.262
				h8.332l-2.805-30.621h-12.408l-15.688,30.621h8.488l2.633-5.262H144.617L144.617,126.703z"/>
			<polygon fill="#F38B00" points="165.031,118.576 166.252,118.576 172.215,110.527 179.936,110.527 171.697,120.82 
				176.752,131.965 168.553,131.965 165.26,123.264 164.033,123.264 162.18,131.965 155.166,131.965 161.668,101.344 
				168.693,101.344 165.031,118.576 			"/>
			<path fill="#F38B00" d="M188.924,123.105c2.289,0,3.799,0.158,3.42,1.957c-0.482,2.244-1.451,2.617-4.391,2.617
				c-1.07,0-3.059,0-2.568-2.328C185.803,123.383,187.201,123.105,188.924,123.105L188.924,123.105z M190.881,131.965h7.02
				l2.846-13.389c1.561-7.395-1.268-8.293-8.447-8.293c-5.014,0-9.865-0.043-11.285,6.615h7.027
				c0.398-1.924,1.588-2.322,3.348-2.322c3.055,0,2.92,1.268,2.488,3.258l-0.713,3.396h-0.326c-0.266-2.451-3.338-2.416-5.332-2.416
				c-5.068,0-8.088,1.594-9.191,6.744c-1.156,5.463,1.445,6.65,6.342,6.65c2.455,0,5.738-0.484,6.898-3.438h0.24L190.881,131.965
				L190.881,131.965z"/>
			<path fill="#F38B00" d="M212.072,110.527l-0.643,3.021h0.287c1.393-2.531,4.166-3.266,6.572-3.266
				c3.023,0,6.008,0.527,5.592,4.207h0.328c1.029-3.057,4.16-4.207,6.855-4.207c4.947,0,7.041,2.043,5.984,7.031l-3.125,14.65
				h-7.016l2.641-12.414c0.344-2.236,0.744-3.877-1.996-3.877c-2.727,0-3.648,1.822-4.135,4.119l-2.592,12.172h-7.02l2.76-12.982
				c0.338-1.963,0.498-3.309-1.951-3.309c-2.898,0-3.76,1.553-4.293,4.119l-2.598,12.172h-7.023l4.566-21.438H212.072
				L212.072,110.527z"/>
			<path fill="#F38B00" d="M248.1,123.105c2.273,0,3.795,0.158,3.418,1.957c-0.473,2.244-1.449,2.617-4.396,2.617
				c-1.062,0-3.061,0-2.566-2.328C244.975,123.383,246.377,123.105,248.1,123.105L248.1,123.105z M250.045,131.965h7.02
				l2.848-13.389c1.568-7.395-1.252-8.293-8.434-8.293c-5.033,0-9.891-0.043-11.291,6.615h7.025c0.398-1.924,1.6-2.322,3.336-2.322
				c3.07,0,2.918,1.268,2.514,3.258l-0.732,3.396h-0.328c-0.262-2.451-3.33-2.416-5.324-2.416c-5.064,0-8.098,1.594-9.189,6.744
				c-1.158,5.463,1.443,6.65,6.342,6.65c2.453,0,5.736-0.484,6.9-3.438h0.24L250.045,131.965L250.045,131.965z"/>
			<path fill="#F38B00" d="M267.184,131.965h-7.01l4.543-21.438h7.027L267.184,131.965L267.184,131.965z"/>
		</g>
	</g>
</g>
</svg>
