<?xml version="1.0" encoding="UTF-8"?>
<svg width="300px" height="349px" viewBox="0 0 300 349" version="1.1" xmlns="http://www.w3.org/2000/svg" xmlns:xlink="http://www.w3.org/1999/xlink">
    <!-- Generator: Sketch 42 (36781) - http://www.bohemiancoding.com/sketch -->
    <title>drontti</title>
    <desc>Created with Sketch.</desc>
    <defs></defs>
    <g id="Page-1" stroke="none" stroke-width="1" fill="none" fill-rule="evenodd">
        <g id="drontti" transform="translate(0.000000, -1.000000)" fill-rule="nonzero" fill="#491E16">
            <g id="Page-1">
                <g id="Group" transform="translate(150.500000, 175.000000) scale(-1, 1) rotate(-180.000000) translate(-150.500000, -175.000000) translate(0.000000, 0.500000)">
                    <path d="M70.4,347 C62.6,345.3 57,342.4 51.5,337.3 C45.9,332.2 43.2,326.5 40.9,315.5 C40,310.6 38.4,304.9 37.4,302.8 C36.4,300.7 29.9,293.2 23,286 C6,268.3 0,256.6 0,241 C0,228.5 6.8,213.4 14.1,209.4 C15.8,208.5 15.9,208.7 14.9,210.8 C13.4,214.1 16,219.9 20.2,222.4 C22,223.5 27,225.6 31.4,227 C35.8,228.4 41.9,231 44.8,232.7 C52,236.8 61.4,244.7 63.6,248.5 C66.2,252.7 67.4,252.2 66.6,247.3 C65.6,240.8 61,232 53.6,222.1 C38.2,201.5 31.6,185.4 29.5,163 C28.1,147.8 32.8,127.2 40.7,114.3 C50.7,97.6 61,89.2 82.8,80 C100.5,72.6 107,65.3 107,53.3 C107,43.3 99.9,33 91.3,30.5 C89.2,29.9 83.2,29 78,28.5 C72.8,28 68.4,27.6 68.3,27.5 C66.8,27.3 61,20.8 61,19.4 C61,16.8 61.6,16.8 74.8,18.8 C79.3,19.6 83,20.1 83,20 C83,19.9 80.8,18.4 78,16.6 C75.3,14.8 72.3,12.4 71.5,11.2 C69.6,8.5 69.6,4.6 71.4,3.9 C72.5,3.5 94.5,13.1 106.3,19.2 L109.1,20.6 L108.4,13.1 C107.6,4.2 108.3,0.5 110.9,0.5 C113.9,0.5 115.6,3.5 118.9,14 C120.7,19.5 122.3,24.6 122.5,25.3 C122.8,26.2 123.8,26 126.2,24.5 C130.9,21.7 132,21.9 132,25.9 C132,29.3 129.3,34.1 124,40.2 C117.6,47.5 118,56 125.1,62.7 C130.6,67.9 136.7,69.5 151.5,69.5 C170,69.5 181,65.8 188.8,57 C195.7,49.1 197.8,39 194.1,31 C191.9,26.2 189,23.4 183,20.4 C173.4,15.6 169,10.8 169,5 C169,2.8 169.4,2.5 172.4,2.5 C174.8,2.5 178.1,4 183.9,7.9 C197,16.7 200.7,16.3 205.8,5.7 C208,1 208.9,1.13686838e-13 211,1.13686838e-13 C213.3,1.13686838e-13 213.5,0.5 214,5.4 C214.4,9.4 215.2,11.2 216.9,12.6 C221.1,16.1 224.1,14.4 227.9,6.4 C229.3,3.5 231,0.9 231.7,0.7 C233.1,0.3 236,5.5 236,8.6 C236,13.4 231.9,19.2 224.1,25.8 C213.7,34.5 210.6,40.3 210.6,51.5 C210.6,57.9 211.1,60.2 213.3,64.8 C216.5,71.1 218,72.3 228.7,76.6 C239.1,80.7 243.6,83.4 249.4,89.2 C261.1,100.7 281.4,128.4 288.4,142.2 C301.3,168 303.7,196.5 294.3,213.7 C291.9,218.1 286.6,223.5 284.7,223.5 C284.3,223.5 284,221.1 284,218.1 C284,213.9 283.2,211.2 280.8,206.4 C279,203 277.1,200 276.5,199.8 C276,199.7 274.4,202.1 273,205.3 C266.9,219.4 252.5,233.5 236.5,241 C217.3,250 196.1,251.5 172.5,245.5 C162.8,243 161.3,242.5 147.5,236.2 C138.2,232 135.3,231.1 128.9,230.7 C121.4,230.3 116.3,231.6 114.5,234.5 C113.8,235.6 119.2,245.4 126.2,255.7 C132.5,265.1 140.8,281.6 142.4,288.1 C144.6,296.7 144.5,310.2 142.1,316.4 C136.1,332.3 117.9,344.2 94.7,347.4 C84.7,348.8 78.1,348.7 70.4,347 Z M56.1,320.8 C56.7,318.7 58.1,315.3 59.2,313.3 C61.6,308.4 64.1,308.4 76.1,313 C81,315 87.1,316.8 89.5,317.2 C98.4,318.4 108.1,312 109.6,303.9 C111.8,292 105.2,279.6 94.3,275 C89.8,273.1 86.9,273.1 82.2,275.1 C76.3,277.5 72.2,282.3 67,292.6 C62.3,302 60.6,304.2 58.4,304.1 C57.8,304 54.5,302.7 51.1,301 C44.4,297.9 41.8,298.2 41.2,302.2 C40.8,304.9 44.3,314 48,319.8 C51.7,325.7 54.3,326 56.1,320.8 Z M92.7,181.9 C98.3,177.7 99.2,174.7 99.2,160.5 C99.2,146.3 98.3,143.3 92.7,139.1 C90.2,137.2 88.5,137 78.2,137 L66.5,137 L66.2,159.5 C66.1,171.8 66.2,182.6 66.5,183.3 C66.9,184.4 69.5,184.6 78.4,184.3 C88.2,184 90.3,183.7 92.7,181.9 Z M211,178.5 C211,174.2 211.3,173.6 213.3,173.3 C215.2,173 215.5,172.4 215.5,169 C215.5,165.6 215.2,165 213.3,164.7 C211.1,164.4 211,164 211,154.5 C211,145 211.1,144.6 213.3,144.3 C215.9,143.9 216.9,139.3 214.9,136.9 C213.5,135.2 207.7,135.1 204.7,136.7 C200.6,138.9 200.1,140.5 200,152.4 C200,161 199.7,164 198.6,164.9 C196.2,166.7 196.1,173.5 198.4,173.5 C199.4,173.5 200,174.9 200.2,177.7 C200.5,181.7 200.7,182 204.5,183.1 C210.1,184.7 211,184.1 211,178.5 Z M235,178.5 C235,174.2 235.3,173.6 237.3,173.3 C239.2,173 239.5,172.4 239.5,169 C239.5,165.6 239.2,165 237.3,164.7 C235.1,164.4 235,164 235,154.5 C235,145 235.1,144.6 237.3,144.3 C239.9,143.9 240.9,139.3 238.9,136.9 C237.5,135.2 231.7,135.1 228.7,136.7 C224.6,138.9 224.1,140.5 224,152.4 C224,161 223.7,164 222.6,164.9 C220.2,166.7 220.1,173.5 222.4,173.5 C223.4,173.5 224,174.9 224.2,177.7 C224.5,181.7 224.7,182 228.5,183.1 C234.1,184.7 235,184.1 235,178.5 Z M257.8,180.3 C258.1,177.1 257.8,176.5 255.7,176 C254.3,175.6 251.9,175.5 250.4,175.7 C248.1,175.9 247.4,176.6 247.2,178.8 C246.6,183.8 247.5,184.6 252.7,184.3 C257.4,184 257.5,184 257.8,180.3 Z M125.2,171.8 C125.8,167.1 125,165.5 121.9,164.8 C120.3,164.5 118.6,163.7 118.2,163.1 C117.8,162.5 117.3,156.4 117,149.5 L116.5,137 L111.5,137 L106.5,137 L106.2,155.3 L106,173.6 L112.4,173.3 C116,173.2 119.2,173.4 119.6,173.8 C120,174.2 121.3,174.5 122.6,174.5 C124.2,174.5 124.9,173.8 125.2,171.8 Z M151,173 C155.8,170.5 157,166.9 157,154.8 C157,145.9 156.7,143.4 155.1,140.9 C151.2,134.4 138.5,133.6 132.7,139.4 L129.5,142.5 L129.5,154.9 C129.5,166.8 129.6,167.5 132,170 C133.4,171.5 135.4,173.1 136.5,173.5 C139.8,174.9 147.9,174.6 151,173 Z M187.6,172.7 C191.5,169.6 192,167.2 192,151.5 L192,136.4 L186.8,136.7 L181.5,137 L181,151 L180.5,165 L178,165 L175.5,165 L175,151 L174.5,137 L169.5,137 L164.5,137 L164.5,155 L164.5,173 L170.7,173.1 C174.2,173.1 177.3,173.4 177.6,173.8 C179,175.1 185.5,174.4 187.6,172.7 Z M257.5,155 L257.5,137 L252.5,137 L247.5,137 L247.2,154 C247.1,163.3 247.2,171.5 247.5,172.3 C247.8,173.2 249.5,173.5 252.7,173.3 L257.5,173 L257.5,155 Z" id="Shape"></path>
                    <path d="M77.4,173.2 C77.2,172.5 77.1,166.3 77.2,159.4 L77.5,147 L81,146.7 C87.1,146.3 87.5,147 87.5,160.5 C87.5,170.1 87.2,172.8 86,173.5 C83.8,174.9 78,174.7 77.4,173.2 Z" id="Shape"></path>
                    <path d="M140.6,164 C139.7,161.5 139.9,147.2 140.9,145.7 C141.4,144.9 142.6,144.5 143.6,144.7 C145.3,145 145.5,146 145.5,155 C145.5,164.4 145.4,165 143.4,165.3 C142.1,165.5 141,164.9 140.6,164 Z" id="Shape"></path>
                </g>
            </g>
        </g>
    </g>
</svg>