<?xml version="1.0" encoding="UTF-8"?>
<svg width="960px" height="208px" viewBox="0 0 960 208" version="1.1" xmlns="http://www.w3.org/2000/svg" xmlns:xlink="http://www.w3.org/1999/xlink">
    <!-- Generator: Sketch 42 (36781) - http://www.bohemiancoding.com/sketch -->
    <title>Group</title>
    <desc>Created with Sketch.</desc>
    <defs></defs>
    <g id="Page-1" stroke="none" stroke-width="1" fill="none" fill-rule="evenodd">
        <g id="Group" transform="translate(480.000000, 103.900000) scale(-1, 1) rotate(-180.000000) translate(-480.000000, -103.900000) translate(0.000000, 0.400000)" fill-rule="nonzero" fill="#B6352B">
            <path d="M456.6,206.4 C441.9,204 423.5,196.9 412.3,189.3 C404.6,184 390.6,169.9 385.6,162.5 C378.9,152.4 373.4,140.3 370.4,128.9 C368,120.1 367.7,117 367.7,103.4 C367.7,89.8 368,86.7 370.4,77.9 C375.1,59.9 383.8,44.5 396.4,31.6 C410.4,17.2 426.4,7.8 445.7,2.7 C454,0.5 457.7,0.1 470,0 C484.8,0 491.3,0.9 503,4.6 C538,15.8 564.1,44.5 572.6,80.9 C575.2,92 575.2,114.8 572.6,125.9 C563.2,166.2 532.6,196.4 492.5,205 C483.8,206.9 464.4,207.6 456.6,206.4 Z M486.4,165.4 C498,162.5 507.2,157.1 516,148.4 C541.4,123.2 541.4,83.7 516,58.4 C490.7,33.1 451.3,33.1 426,58.4 C414.4,70.1 408.2,83.8 407.3,99.8 C404.9,142.6 445.2,176 486.4,165.4 Z" id="Shape"></path>
            <path d="M11.5,202.7 C6.9,200.3 3.9,197.3 1.9,192.9 C0.1,189.1 0,184.4 0,103.6 C0,28.9 0.2,17.9 1.5,14.6 C3.5,9.9 6.5,6.7 11.2,4.3 C14.7,2.5 18,2.4 80.3,2.4 L145.6,2.4 L150.3,5.3 C156.2,9.1 159,14.4 159,21.9 C159,31.4 152.8,39.8 144.8,41 C143,41.3 118.8,41.6 91,41.7 L40.5,41.9 L40.2,62.6 L40,83.4 L82,83.4 C127.2,83.4 128.3,83.5 133.8,88.7 C141,95.3 142.2,107.9 136.3,115.1 C129.8,123.2 131.8,122.9 83.2,123.2 L40,123.5 L40.2,144.2 L40.5,164.9 L91,165.1 C118.8,165.2 143,165.5 144.8,165.8 C152.8,167 159,175.4 159,184.9 C159,193.2 155.6,199 148.8,202.5 C145.3,204.3 141.9,204.4 79.8,204.4 C22.2,204.3 14.1,204.1 11.5,202.7 Z" id="Shape"></path>
            <path d="M189.2,202.8 C179.2,197.7 175.2,184.1 180.9,174.9 C181.9,173.2 196.7,157.1 213.9,138.9 C231,120.8 245,105.6 245,105.2 C245,104.8 229.5,88.6 210.5,69.2 C191.6,49.8 175.3,32.4 174.4,30.5 C171.2,23.8 172.7,13.9 177.9,8 C183.3,1.8 196.5,0.5 203.2,5.4 C205.1,6.8 221.3,23 239.3,41.4 C257.4,59.8 272.5,75 272.9,75.2 C273.3,75.3 288.1,60.2 305.6,41.6 C323.1,23 339,6.7 340.9,5.4 C345.7,1.9 355.2,1.4 360.8,4.3 C368.9,8.4 373.1,18 370.9,26.9 C369.5,32.3 367.3,34.8 330.5,73.8 C315.1,90.1 302.3,103.9 302.1,104.5 C301.9,105.1 312.5,116.5 325.7,129.7 C366.2,170.7 369.4,174.3 370.9,179.6 C373.4,188.5 369.1,198.3 360.8,202.5 C355.1,205.4 345.6,204.9 340.8,201.4 C338.9,200 323.3,184.5 306.1,166.9 C288.9,149.3 274.5,134.8 274.1,134.6 C273.7,134.5 259.3,149.2 242.2,167.4 C225,185.5 209.8,201.2 208.3,202.1 C204.5,204.6 193.5,205 189.2,202.8 Z" id="Shape"></path>
            <path d="M581.8,203 C575.1,200.1 570.1,192.2 570,184.6 C570,180.5 576.1,167.4 589,143.9 C590.5,141.2 598.4,126.3 606.5,110.9 C614.6,95.5 622.9,79.8 625,75.9 C627,72.1 635.6,55.9 644,39.9 C652.4,23.9 660.2,9.8 661.4,8.6 C668.7,0.4 683.2,0.4 690.6,8.6 C693.1,11.2 694,12.9 718.5,59.9 C728.3,78.6 738.7,98.6 741.8,104.4 C751.2,122.5 757.6,134.6 762.8,144.4 C781.9,180.9 781.2,179.2 780.8,186 C780.3,193.8 777,199.3 770.8,202.3 C762.9,206.1 751.8,204.4 746.9,198.8 C744.7,196.2 742,191.2 720.4,149.9 C710.1,130.1 698.1,107.2 693.8,98.9 C689.5,90.7 683.8,79.7 681.2,74.7 C678.7,69.6 676.3,65.4 676,65.4 C675.7,65.4 671,74.1 665.5,84.6 C660,95.2 651.1,112.1 645.7,122.3 C640.3,132.5 631.1,149.9 625.3,160.9 C607.5,194.6 606.8,195.8 604.6,198.2 C599.6,203.8 588.7,206.1 581.8,203 Z" id="Shape"></path>
            <path d="M811.5,202.7 C807.1,200.4 805,198.3 802.9,194.2 C801.1,190.6 801,186.9 801,103.4 C801,18 801,16.2 803,12.4 C804.1,10.2 806.9,7.2 809.2,5.7 L813.4,2.9 L879.2,2.6 C943.1,2.4 945.1,2.4 948.9,4.3 C955.4,7.7 960,14.9 960,21.9 C960,29.1 953.8,38.3 947.5,40.4 C945.3,41.1 927.1,41.6 892.3,41.7 L840.5,41.9 L840.2,62.6 L840,83.4 L882.3,83.4 L924.6,83.4 L929.6,85.9 C935.2,88.7 939.9,94.9 940.1,99.9 C940.7,110.8 937.6,116.9 929.8,120.8 L924.6,123.4 L882.3,123.4 L840,123.4 L840.2,144.2 L840.5,164.9 L891,165.1 C918.8,165.2 943.1,165.5 945,165.8 C952.1,166.9 959.9,176.4 960,183.9 C960,191.9 955.8,198.9 948.9,202.4 C945.2,204.3 942.7,204.4 879.8,204.4 C822.2,204.3 814.1,204.1 811.5,202.7 Z" id="Shape"></path>
        </g>
    </g>
</svg>