<?xml version="1.0" encoding="utf-8"?>
<!-- Generator: Adobe Illustrator 16.0.0, SVG Export Plug-In . SVG Version: 6.00 Build 0)  -->
<!DOCTYPE svg PUBLIC "-//W3C//DTD SVG 1.1//EN" "http://www.w3.org/Graphics/SVG/1.1/DTD/svg11.dtd">
<svg version="1.1" id="Layer_1" xmlns="http://www.w3.org/2000/svg" xmlns:xlink="http://www.w3.org/1999/xlink" x="0px" y="0px"
	 width="808.901px" height="247.208px" viewBox="0 0 808.901 247.208" enable-background="new 0 0 808.901 247.208"
	 xml:space="preserve">
<g>
	<defs>
		<rect id="SVGID_1_" x="62.362" y="62.362" width="684.177" height="124.649"/>
	</defs>
	<clipPath id="SVGID_2_">
		<use xlink:href="#SVGID_1_"  overflow="visible"/>
	</clipPath>
	<path clip-path="url(#SVGID_2_)" d="M175.097,153.653c1.034,6.71,10.828,10.496,21.836,10.496c7.904,0,15.473-0.863,23.042-3.275
		l3.942,20.635c-10.141,3.962-21.14,5.327-31.63,5.327c-29.74,0-46.591-16.336-46.591-43.145c0-19.611,12.729-45.046,43.848-45.046
		c27.332,0,39.022,20.106,39.022,43.321c0,4.984-0.687,9.633-1.21,11.687H175.097z M200.024,132.676
		c0-4.809-2.236-13.747-12.03-13.747c-9.114,0-12.725,8.42-13.249,13.747H200.024z"/>
	<path clip-path="url(#SVGID_2_)" d="M233.859,62.873h31.118v46.597h0.34c2.752-3.443,6.19-6.016,9.973-7.908
		c3.786-1.885,8.428-2.924,12.901-2.924c19.08,0,29.74,13.588,29.74,37.48v49.001h-31.118v-45.558
		c0-9.978-3.271-15.992-11.012-15.992c-5.84,0-8.591,3.443-10.141,6.702c-0.511,1.374-0.683,3.618-0.683,4.985v49.862h-31.118
		V62.873z"/>
	<path clip-path="url(#SVGID_2_)" d="M403.514,164.484c0,8.428,0.512,16.337,1.37,20.635h-28.022l-1.546-7.397h-0.684
		c-5.847,6.71-14.274,9.29-23.377,9.29c-17.37,0-28.03-12.55-28.03-26.649c0-22.693,20.461-32.839,49.171-32.839v-0.687
		c0-3.436-2.572-7.23-13.923-7.23c-8.939,0-18.226,3.1-23.901,6.199l-5.329-19.427c5.329-2.925,17.535-7.733,35.069-7.733
		c29.062,0,39.202,16.152,39.202,37.298V164.484z M346.95,90.386c-7.737,0-13.748-6.016-13.748-13.58
		c0-7.908,6.011-13.58,13.919-13.58c7.394,0,13.065,5.672,13.065,13.58c0,7.564-5.671,13.58-13.065,13.58H346.95z M373.422,146.432
		c-12.718,0-19.767,3.451-19.767,11.008c0,5.328,3.447,8.076,8.767,8.076c4.469,0,9.114-3.091,10.66-7.741
		c0.34-1.366,0.34-2.915,0.34-4.465V146.432z M384.773,90.386c-7.569,0-13.409-6.016-13.409-13.58c0-7.908,5.84-13.58,13.757-13.58
		c7.565,0,13.232,5.672,13.232,13.58c0,7.564-5.667,13.58-13.232,13.58H384.773z"/>
	<path clip-path="url(#SVGID_2_)" d="M447.841,76.463v24.068h17.535v22.694h-17.535v24.237c0,9.977,2.236,14.099,9.798,14.099
		c3.614,0,4.813,0,7.389-0.688v23.558c-3.603,1.382-10.476,2.404-18.388,2.404c-9.111,0-16.682-3.259-21.15-7.732
		c-5.16-5.168-7.904-13.412-7.904-26.313v-29.564h-10.488c-2.325-17.694-17.486-22.694-17.486-22.694h27.975V84.715L447.841,76.463z
		"/>
	<path clip-path="url(#SVGID_2_)" d="M486.496,91.76c-9.63,0-15.645-6.527-15.645-14.604c0-8.61,6.19-14.794,15.815-14.794
		c9.627,0,15.646,6.184,15.821,14.794c0,8.076-6.194,14.604-15.821,14.604H486.496z M471.022,100.53h31.118v84.597h-31.118V100.53z"
		/>
	<path clip-path="url(#SVGID_2_)" d="M537.873,153.653c1.034,6.71,10.831,10.496,21.836,10.496c7.907,0,15.473-0.863,23.042-3.275
		l3.945,20.635c-10.14,3.962-21.144,5.327-31.629,5.327c-29.745,0-46.592-16.336-46.592-43.145
		c0-19.611,12.726-45.046,43.836-45.046c27.344,0,39.035,20.106,39.035,43.321c0,4.984-0.691,9.633-1.21,11.687H537.873z
		 M562.801,132.676c0-4.809-2.237-13.747-12.027-13.747c-9.122,0-12.729,8.42-13.248,13.747H562.801z"/>
	<path clip-path="url(#SVGID_2_)" d="M630.681,76.463v24.068h41.108c0,0-17.021,4.801-23.577,22.694h-17.531v24.237
		c0,9.977,2.233,14.099,9.798,14.099c3.611,0,4.809,0,7.39-0.688v23.558c-3.607,1.382-10.489,2.404-18.395,2.404
		c-9.109,0-16.675-3.259-21.147-7.732c-5.161-5.168-7.905-13.412-7.905-26.313v-29.564h-10.485v-22.694h10.485V84.715
		L630.681,76.463z"/>
	<path clip-path="url(#SVGID_2_)" fill="#F28C00" d="M746.539,174.303c0-5.977-4.837-10.824-10.812-10.824
		c-5.987,0-10.824,4.848-10.824,10.824c0,5.967,4.837,10.816,10.824,10.816C741.702,185.119,746.539,180.27,746.539,174.303"/>
	<path clip-path="url(#SVGID_2_)" d="M717.518,174.302c0-10.039,8.168-18.204,18.209-18.204c0.927,0,1.822,0.136,2.712,0.271
		c1.198-4.329,1.893-9.104,1.893-14.402c0-25.45-17.537-43.319-44.011-43.319c-28.885,0-46.588,17.869-46.588,44.869
		c0,27.504,19.595,43.497,44.867,43.497h0.172c8.583,0,16.943-1.917,24.124-5.816C718.017,179.063,717.518,176.739,717.518,174.302
		 M695.462,165.181h-0.176c-9.455,0-13.576-9.636-13.576-22.352c0-11.184,3.435-22.358,13.752-22.358
		c9.114,0,12.885,10.663,12.885,22.358C708.347,156.409,703.886,165.181,695.462,165.181"/>
	<path clip-path="url(#SVGID_2_)" d="M119.69,114.679l33.886-52.044h-35.16l-20.581,38.439c-2.217,4.354-4.594,8.883-6.814,13.42
		h-0.308V62.635H62.362v22.471v99.75h28.351v-36.994l8.547-12.518l22.487,49.512h33.091L119.69,114.679z"/>
</g>
</svg>
