<?xml version="1.0" encoding="utf-8"?>
<!-- Generator: Adobe Illustrator 16.0.4, SVG Export Plug-In . SVG Version: 6.00 Build 0)  -->
<!DOCTYPE svg PUBLIC "-//W3C//DTD SVG 1.1//EN" "http://www.w3.org/Graphics/SVG/1.1/DTD/svg11.dtd">
<svg version="1.1" id="Layer_1" xmlns="http://www.w3.org/2000/svg" xmlns:xlink="http://www.w3.org/1999/xlink" x="0px" y="0px"
	 width="538.58px" height="141.73px" viewBox="0 0 538.58 141.73" enable-background="new 0 0 538.58 141.73" xml:space="preserve">
<g id="Page-1_2_" sketch:type="MSPage">
	<g id="lablogo_2_" sketch:type="MSLayerGroup">
		<g id="Page-1_3_" sketch:type="MSShapeGroup">
			<g id="lablogo_1_">
				<g id="Page-1_4_">
					<g id="lablogo">
						<g id="_x30_40lab">
							<g id="Shape_332_" transform="translate(2.199419, 0.000000)">
								<path fill="#215378" d="M29.404,83.074c4.514-9.215,8.771-16.461,12.524-22.859c3.212-5.477,6.103-10.422,8.721-15.776
									C44.536,33.935,39.324,24.25,35.056,8.695C27.762,35.248,17.74,44.665,5.133,70.328
									c-11.325,23.064,3.334,46.207,24.59,49.548C23.526,108.674,23.373,95.356,29.404,83.074"/>
								<path fill="#317EB6" d="M122.744,70.328c-12.617-25.663-22.63-35.08-29.922-61.633
									c-4.361,15.859-9.686,25.629-15.973,36.379c2.553,5.107,5.354,9.869,8.432,15.141c3.755,6.398,8.002,13.645,12.534,22.859
									c6.044,12.325,5.869,25.684-0.408,36.949C119.06,117.087,134.191,93.654,122.744,70.328"/>
								<path fill="#56A3D9" d="M95.664,84.117c-4.475-9.132-8.722-16.352-12.445-22.711c-6.801-11.592-12.668-21.627-17.314-38.49
									l-2.288-8.393l-2.319,8.393C56.67,39.779,50.793,49.814,43.981,61.429c-3.724,6.357-7.95,13.557-12.442,22.688
									c-5.981,12.208-5.53,25.438,1.261,36.336c6.679,10.71,18.198,17.11,30.816,17.11c12.586,0,24.107-6.4,30.784-17.11
									C101.193,109.555,101.643,96.325,95.664,84.117"/>
								<path fill="#FFFFFF" d="M76.757,103.953c-5.006-0.015-9.921-8.758-19.9-8.984c-7.52-0.185-13.44,6.094-13.306,12.171
									c0.154,7.282,5.303,9.005,10.062,9.084c9.355,0.126,17.687-9.438,23.368-9.538c4.33-0.062,8.7,8.966,12.63,9.276
									c4.513,0.347,7.887-8.413,7.589-13.71c-0.193-3.547-2.214-6.069-4.862-6.033C87.394,96.346,81.651,103.997,76.757,103.953
									 M68.097,115.631c2.155-2.154,4.453-3.406,7.019-3.343c4.124,0.079,4.286,1.067,5.479,3.447
									c0.235,0.51,0.101,0.919-0.054,1.167c-0.082,0.141-0.553,0.572-0.717,0.572c-0.391,0-0.533-0.121-0.708-0.531
									c-0.965-2.441-2.421-2.464-4.258-2.464c-2.82,0-4.052,1.378-5.724,2.753c-0.41,0.348-0.811,0.615-1.106,0.348
									c-0.259-0.203-0.475-0.516-0.453-0.741C67.587,116.33,67.73,115.998,68.097,115.631 M62.385,121.459
									c2.227,2.051,12.689,3.772,18.987-0.453c0.235-0.164,0.524-0.268,0.79-0.164c0.186,0.101,0.298,0.205,0.329,0.412
									c0.042,0.346,0.061,0.883-0.206,1.129c-4.379,3.631-16.195,5.722-21.819,1.066c-0.543-0.451-0.563-1.15-0.204-1.56
									c0.275-0.29,0.513-0.411,0.842-0.615C61.523,121.047,62.035,121.146,62.385,121.459"/>
							</g>
							<g id="Shape_331_" transform="translate(73.209232, 3.142027)">
								<path fill="#FFFFFF" d="M146.89,32.085v67.314c0,8.206-2.706,14.156-8.112,17.871c-5.409,3.695-12.557,5.539-21.442,5.539
									c-19.12,0-28.682-7.798-28.682-23.41V32.085c0-8.209,2.709-14.156,8.116-17.87c5.405-3.695,12.555-5.561,21.439-5.561
									C137.333,8.654,146.89,16.468,146.89,32.085L146.89,32.085L146.89,32.085L146.89,32.085z M98.718,30.608v70.268
									c0,3.962,1.592,6.873,4.781,8.738l20.127-90.271c-2.185-0.203-3.992-0.309-5.416-0.309
									C105.212,19.034,98.718,22.889,98.718,30.608L98.718,30.608L98.718,30.608L98.718,30.608z M136.827,100.876V30.608
									c0-3.857-1.682-6.836-5.026-8.906l-20.259,90.439c1.179,0.206,3.108,0.305,5.794,0.305
									C130.334,112.446,136.827,108.588,136.827,100.876L136.827,100.876L136.827,100.876L136.827,100.876z"/>
								<path fill="#FFFFFF" d="M176.036,10.889c0.329-0.984,1.003-1.478,2.009-1.478c1.007,0,2.269,0.288,3.776,0.882
									c2.431,1.292,3.642,2.628,3.642,4.004c0,0.285-0.081,0.635-0.248,1.046l-14.338,37.361
									c-4.699,12.146-7.048,20.31-7.048,24.456v0.736c0,3.057,0.696,5.254,2.08,6.604c1.386,1.336,4.299,1.99,8.743,1.99h22.515
									V45.274c0-2.275,1.671-3.405,5.017-3.405c3.366,0,5.047,1.13,5.047,3.405v41.217h6.658c1.681,0,2.514,1.725,2.514,5.193
									c0,3.47-0.833,5.193-2.514,5.193h-6.658v21.049c0,2.275-1.681,3.405-5.047,3.405c-3.346,0-5.017-1.13-5.017-3.405V96.878
									h-22.515c-7.472,0-12.806-1.479-16.035-4.451c-3.233-2.959-4.844-7.719-4.844-14.24v-1.909
									c0-4.556,2.678-13.952,8.043-28.171L176.036,10.889L176.036,10.889L176.036,10.889L176.036,10.889z"/>
								<path fill="#FFFFFF" d="M281.194,32.085v67.314c0,8.206-2.699,14.156-8.112,17.871c-5.409,3.695-12.55,5.539-21.444,5.539
									c-19.118,0-28.669-7.798-28.669-23.41V32.085c0-8.209,2.695-14.156,8.104-17.87c5.406-3.695,12.557-5.561,21.448-5.561
									C271.633,8.654,281.194,16.468,281.194,32.085L281.194,32.085L281.194,32.085L281.194,32.085z M233.032,30.608v70.268
									c0,3.962,1.589,6.873,4.778,8.738l20.117-90.271c-2.175-0.203-3.979-0.309-5.407-0.309
									C239.522,19.034,233.032,22.889,233.032,30.608L233.032,30.608L233.032,30.608L233.032,30.608z M271.141,100.876V30.608
									c0-3.857-1.684-6.836-5.037-8.906l-20.252,90.439c1.17,0.206,3.107,0.305,5.785,0.305
									C264.635,112.446,271.141,108.588,271.141,100.876L271.141,100.876L271.141,100.876L271.141,100.876z"/>
								<path fill="#FFFFFF" d="M313.918,110.213h20.372c1.683,0,2.525,1.744,2.525,5.186c0,3.468-0.843,5.193-2.525,5.193h-20.372
									c-7.213,0-12.32-2.049-15.348-6.154c-3.016-4.104-4.523-10.752-4.523-19.941V13.557c0-2.275,1.682-3.406,5.036-3.406
									c3.345,0,5.026,1.131,5.026,3.406v80.939c0,5.742,0.742,9.784,2.206,12.164C307.772,109.02,310.318,110.213,313.918,110.213
									L313.918,110.213L313.918,110.213L313.918,110.213z"/>
								<path fill="#FFFFFF" d="M378.719,120.592h-14.711c-7.386,0-12.709-1.784-15.983-5.336
									c-3.271-3.547-4.901-9.577-4.901-18.098v-1.187c0-8.392,1.466-14.177,4.4-17.335c2.943-3.162,8.176-5.191,15.725-6.074
									l21.76-2.522V53.583c0-7.713-5.692-11.571-17.102-11.571h-17.235c-1.682,0-2.512-1.724-2.512-5.187
									c0-3.447,0.83-5.17,2.512-5.17h17.235c8.206,0,14.792,1.846,19.748,5.538c4.944,3.716,7.417,9.664,7.417,17.87v43.741
									c0,6.423,0.964,11.509,2.893,15.267c0.583,1.186,0.873,1.927,0.873,2.233c0,1.171-0.791,2.443-2.383,3.778
									c-1.599,1.328-2.933,1.985-4.021,1.985c-1.844,0-3.55-2.028-5.096-6.153c-1.562-4.082-2.329-9.316-2.329-15.633V80.419
									l-21,2.527c-4.534,0.594-7.468,1.762-8.813,3.545c-1.342,1.789-2.009,4.947-2.009,9.481v1.187
									c0,4.763,0.688,8.109,2.071,10.096c1.387,1.971,4.301,2.959,8.751,2.959h14.711c1.681,0,2.514,1.744,2.514,5.186
									C381.233,118.867,380.4,120.592,378.719,120.592L378.719,120.592L378.719,120.592L378.719,120.592z"/>
								<path fill="#FFFFFF" d="M436.206,42.011H425.26c-1.67,0-2.512-1.724-2.512-5.187c0-3.447,0.842-5.17,2.512-5.17h10.946
									c8.22,0,14.794,1.846,19.747,5.538c4.945,3.716,7.418,9.664,7.418,17.87v44.336c0,8.206-2.491,14.156-7.488,17.871
									c-4.984,3.695-11.592,5.539-19.798,5.539c-8.229,0-14.804-1.844-19.747-5.539c-4.955-3.715-7.427-9.665-7.427-17.871V5.391
									c0-2.254,1.682-3.404,5.037-3.404c3.353,0,5.024,1.15,5.024,3.404v95.484c0,7.713,5.727,11.57,17.174,11.57
									c11.438,0,17.161-3.857,17.161-11.57V53.583C453.307,45.87,447.603,42.011,436.206,42.011L436.206,42.011L436.206,42.011
									L436.206,42.011z"/>
							</g>
						</g>
					</g>
				</g>
			</g>
		</g>
	</g>
</g>
</svg>
