<?xml version="1.0" encoding="UTF-8"?>
<svg width="534px" height="133px" viewBox="0 0 534 133" version="1.1" xmlns="http://www.w3.org/2000/svg" xmlns:xlink="http://www.w3.org/1999/xlink">
    <!-- Generator: Sketch 42 (36781) - http://www.bohemiancoding.com/sketch -->
    <title>lablogo</title>
    <desc>Created with Sketch.</desc>
    <defs></defs>
    <g id="Page-1" stroke="none" stroke-width="1" fill="none" fill-rule="evenodd">
        <g id="lablogo" transform="translate(0.000000, -1.000000)" fill-rule="nonzero">
            <g id="Page-1_2_">
                <g id="lablogo_2_">
                    <g id="Page-1_3_">
                        <g id="lablogo_1_">
                            <g id="Page-1_4_">
                                <g id="lablogo">
                                    <g id="_x30_40lab">
                                        <g id="Shape_332_" transform="translate(0.199419, 4.000000)">
                                            <path d="M28.404,75.074 C32.918,65.859 37.175,58.613 40.928,52.215 C44.14,46.738 47.031,41.793 49.649,36.439 C43.536,25.935 38.324,16.25 34.056,0.695 C26.762,27.248 16.74,36.665 4.133,62.328 C-7.192,85.392 7.467,108.535 28.723,111.876 C22.526,100.674 22.373,87.356 28.404,75.074" id="Shape" fill="#215378"></path>
                                            <path d="M121.744,62.328 C109.127,36.665 99.114,27.248 91.822,0.695 C87.461,16.554 82.136,26.324 75.849,37.074 C78.402,42.181 81.203,46.943 84.281,52.215 C88.036,58.613 92.283,65.86 96.815,75.074 C102.859,87.399 102.684,100.758 96.407,112.023 C118.06,109.087 133.191,85.654 121.744,62.328" id="Shape" fill="#317EB6"></path>
                                            <path d="M94.664,76.117 C90.189,66.985 85.942,59.765 82.219,53.406 C75.418,41.814 69.551,31.779 64.905,14.916 L62.617,6.523 L60.298,14.916 C55.67,31.779 49.793,41.814 42.981,53.429 C39.257,59.786 35.031,66.986 30.539,76.117 C24.558,88.325 25.009,101.555 31.8,112.453 C38.479,123.163 49.998,129.563 62.616,129.563 C75.202,129.563 86.723,123.163 93.4,112.453 C100.193,101.555 100.643,88.325 94.664,76.117" id="Shape" fill="#56A3D9"></path>
                                            <path d="M75.757,95.953 C70.751,95.938 65.836,87.195 55.857,86.969 C48.337,86.784 42.417,93.063 42.551,99.14 C42.705,106.422 47.854,108.145 52.613,108.224 C61.968,108.35 70.3,98.786 75.981,98.686 C80.311,98.624 84.681,107.652 88.611,107.962 C93.124,108.309 96.498,99.549 96.2,94.252 C96.007,90.705 93.986,88.183 91.338,88.219 C86.394,88.346 80.651,95.997 75.757,95.953 M67.097,107.631 C69.252,105.477 71.55,104.225 74.116,104.288 C78.24,104.367 78.402,105.355 79.595,107.735 C79.83,108.245 79.696,108.654 79.541,108.902 C79.459,109.043 78.988,109.474 78.824,109.474 C78.433,109.474 78.291,109.353 78.116,108.943 C77.151,106.502 75.695,106.479 73.858,106.479 C71.038,106.479 69.806,107.857 68.134,109.232 C67.724,109.58 67.323,109.847 67.028,109.58 C66.769,109.377 66.553,109.064 66.575,108.839 C66.587,108.33 66.73,107.998 67.097,107.631 M61.385,113.459 C63.612,115.51 74.074,117.231 80.372,113.006 C80.607,112.842 80.896,112.738 81.162,112.842 C81.348,112.943 81.46,113.047 81.491,113.254 C81.533,113.6 81.552,114.137 81.285,114.383 C76.906,118.014 65.09,120.105 59.466,115.449 C58.923,114.998 58.903,114.299 59.262,113.889 C59.537,113.599 59.775,113.478 60.104,113.274 C60.523,113.047 61.035,113.146 61.385,113.459" id="Shape" fill="#FFFFFF"></path>
                                        </g>
                                        <g id="Shape_331_" transform="translate(158.209232, 0.142027)" fill="#FFFFFF">
                                            <path d="M58.89,31.085 L58.89,98.399 C58.89,106.605 56.184,112.555 50.778,116.27 C45.369,119.965 38.221,121.809 29.336,121.809 C10.216,121.809 0.654,114.011 0.654,98.399 L0.654,31.085 C0.654,22.876 3.363,16.929 8.77,13.215 C14.175,9.52 21.325,7.654 30.209,7.654 C49.333,7.654 58.89,15.468 58.89,31.085 L58.89,31.085 L58.89,31.085 L58.89,31.085 Z M10.718,29.608 L10.718,99.876 C10.718,103.838 12.31,106.749 15.499,108.614 L35.626,18.343 C33.441,18.14 31.634,18.034 30.21,18.034 C17.212,18.034 10.718,21.889 10.718,29.608 L10.718,29.608 L10.718,29.608 L10.718,29.608 Z M48.827,99.876 L48.827,29.608 C48.827,25.751 47.145,22.772 43.801,20.702 L23.542,111.141 C24.721,111.347 26.65,111.446 29.336,111.446 C42.334,111.446 48.827,107.588 48.827,99.876 L48.827,99.876 L48.827,99.876 L48.827,99.876 Z" id="Shape"></path>
                                            <path d="M88.036,9.889 C88.365,8.905 89.039,8.411 90.045,8.411 C91.052,8.411 92.314,8.699 93.821,9.293 C96.252,10.585 97.463,11.921 97.463,13.297 C97.463,13.582 97.382,13.932 97.215,14.343 L82.877,51.704 C78.178,63.85 75.829,72.014 75.829,76.16 L75.829,76.896 C75.829,79.953 76.525,82.15 77.909,83.5 C79.295,84.836 82.208,85.49 86.652,85.49 L109.167,85.49 L109.167,44.274 C109.167,41.999 110.838,40.869 114.184,40.869 C117.55,40.869 119.231,41.999 119.231,44.274 L119.231,85.491 L125.889,85.491 C127.57,85.491 128.403,87.216 128.403,90.684 C128.403,94.154 127.57,95.877 125.889,95.877 L119.231,95.877 L119.231,116.926 C119.231,119.201 117.55,120.331 114.184,120.331 C110.838,120.331 109.167,119.201 109.167,116.926 L109.167,95.878 L86.652,95.878 C79.18,95.878 73.846,94.399 70.617,91.427 C67.384,88.468 65.773,83.708 65.773,77.187 L65.773,75.278 C65.773,70.722 68.451,61.326 73.816,47.107 L88.036,9.889 L88.036,9.889 L88.036,9.889 L88.036,9.889 Z" id="Shape"></path>
                                            <path d="M193.194,31.085 L193.194,98.399 C193.194,106.605 190.495,112.555 185.082,116.27 C179.673,119.965 172.532,121.809 163.638,121.809 C144.52,121.809 134.969,114.011 134.969,98.399 L134.969,31.085 C134.969,22.876 137.664,16.929 143.073,13.215 C148.479,9.52 155.63,7.654 164.521,7.654 C183.633,7.654 193.194,15.468 193.194,31.085 L193.194,31.085 L193.194,31.085 L193.194,31.085 Z M145.032,29.608 L145.032,99.876 C145.032,103.838 146.621,106.749 149.81,108.614 L169.927,18.343 C167.752,18.14 165.948,18.034 164.52,18.034 C151.522,18.034 145.032,21.889 145.032,29.608 L145.032,29.608 L145.032,29.608 L145.032,29.608 Z M183.141,99.876 L183.141,29.608 C183.141,25.751 181.457,22.772 178.104,20.702 L157.852,111.141 C159.022,111.347 160.959,111.446 163.637,111.446 C176.635,111.446 183.141,107.588 183.141,99.876 L183.141,99.876 L183.141,99.876 L183.141,99.876 Z" id="Shape"></path>
                                            <path d="M225.918,109.213 L246.29,109.213 C247.973,109.213 248.815,110.957 248.815,114.399 C248.815,117.867 247.972,119.592 246.29,119.592 L225.918,119.592 C218.705,119.592 213.598,117.543 210.57,113.438 C207.554,109.334 206.047,102.686 206.047,93.497 L206.047,12.557 C206.047,10.282 207.729,9.151 211.083,9.151 C214.428,9.151 216.109,10.282 216.109,12.557 L216.109,93.496 C216.109,99.238 216.851,103.28 218.315,105.66 C219.772,108.02 222.318,109.213 225.918,109.213 L225.918,109.213 L225.918,109.213 L225.918,109.213 Z" id="Shape"></path>
                                            <path d="M290.719,119.592 L276.008,119.592 C268.622,119.592 263.299,117.808 260.025,114.256 C256.754,110.709 255.124,104.679 255.124,96.158 L255.124,94.971 C255.124,86.579 256.59,80.794 259.524,77.636 C262.467,74.474 267.7,72.445 275.249,71.562 L297.009,69.04 L297.009,52.583 C297.009,44.87 291.317,41.012 279.907,41.012 L262.672,41.012 C260.99,41.012 260.16,39.288 260.16,35.825 C260.16,32.378 260.99,30.655 262.672,30.655 L279.907,30.655 C288.113,30.655 294.699,32.501 299.655,36.193 C304.599,39.909 307.072,45.857 307.072,54.063 L307.072,97.804 C307.072,104.227 308.036,109.313 309.965,113.071 C310.548,114.257 310.838,114.998 310.838,115.304 C310.838,116.475 310.047,117.747 308.455,119.082 C306.856,120.41 305.522,121.067 304.434,121.067 C302.59,121.067 300.884,119.039 299.338,114.914 C297.776,110.832 297.009,105.598 297.009,99.281 L297.009,79.419 L276.009,81.946 C271.475,82.54 268.541,83.708 267.196,85.491 C265.854,87.28 265.187,90.438 265.187,94.972 L265.187,96.159 C265.187,100.922 265.875,104.268 267.258,106.255 C268.645,108.226 271.559,109.214 276.009,109.214 L290.72,109.214 C292.401,109.214 293.234,110.958 293.234,114.4 C293.233,117.867 292.4,119.592 290.719,119.592 L290.719,119.592 L290.719,119.592 L290.719,119.592 Z" id="Shape"></path>
                                            <path d="M348.206,41.011 L337.26,41.011 C335.59,41.011 334.748,39.287 334.748,35.824 C334.748,32.377 335.59,30.654 337.26,30.654 L348.206,30.654 C356.426,30.654 363,32.5 367.953,36.192 C372.898,39.908 375.371,45.856 375.371,54.062 L375.371,98.398 C375.371,106.604 372.88,112.554 367.883,116.269 C362.899,119.964 356.291,121.808 348.085,121.808 C339.856,121.808 333.281,119.964 328.338,116.269 C323.383,112.554 320.911,106.604 320.911,98.398 L320.911,4.391 C320.911,2.137 322.593,0.987 325.948,0.987 C329.301,0.987 330.972,2.137 330.972,4.391 L330.972,99.875 C330.972,107.588 336.699,111.445 348.146,111.445 C359.584,111.445 365.307,107.588 365.307,99.875 L365.307,52.583 C365.307,44.87 359.603,41.011 348.206,41.011 L348.206,41.011 L348.206,41.011 L348.206,41.011 Z" id="Shape"></path>
                                        </g>
                                    </g>
                                </g>
                            </g>
                        </g>
                    </g>
                </g>
            </g>
        </g>
    </g>
</svg>