<?xml version="1.0" encoding="UTF-8" standalone="no"?>
<svg width="519px" height="182px" viewBox="0 0 519 182" version="1.1" xmlns="http://www.w3.org/2000/svg" xmlns:xlink="http://www.w3.org/1999/xlink" xmlns:sketch="http://www.bohemiancoding.com/sketch/ns">
    <!-- Generator: Sketch 3.4.4 (17249) - http://www.bohemiancoding.com/sketch -->
    <title>mirum</title>
    <desc>Created with Sketch.</desc>
    <defs></defs>
    <g id="Page-1" stroke="none" stroke-width="1" fill="none" fill-rule="evenodd" sketch:type="MSPage">
        <g id="mirum" sketch:type="MSLayerGroup" transform="translate(-1.000000, -1.000000)" fill="#321C38">
            <g id="Group" sketch:type="MSShapeGroup">
                <path d="M488.720307,166.957854 C507.64751,171.739464 514.819923,162.574713 518.804598,156.597701 C520.398467,154.40613 519.601533,147.233716 517.808429,147.831418 C517.011494,148.229885 514.819923,149.823755 512.628352,151.816092 C508.444444,155.800766 503.065134,160.781609 498.881226,151.616858 L498.881226,151.616858 C496.490421,146.436782 495.693487,144.643678 494.896552,138.8659 C493.701149,128.505747 495.693487,121.333333 495.295019,110.773946 C494.896552,103.203065 488.91954,100.413793 481.94636,101.609195 C476.168582,102.804598 471.386973,105.992337 467.402299,110.574713 C464.413793,113.762452 461.425287,117.149425 458.237548,120.536398 C457.241379,114.957854 456.643678,109.777778 455.249042,104.996169 C453.854406,99.6168582 450.268199,97.8237548 444.888889,98.6206897 C435.923372,100.015326 429.149425,105.59387 422.97318,112.965517 C420.781609,115.555556 418.789272,117.348659 416.199234,120.536398 C416,116.153257 416,113.164751 415.800766,109.777778 C415.402299,103.601533 412.413793,101.210728 407.034483,103.800766 C400.260536,107.187739 396.076628,113.762452 390.896552,121.1341 C384.321839,130.498084 378.145594,148.429119 369.777778,153.808429 C363.601533,157.394636 358.62069,154.007663 359.019157,150.819923 C360.413793,140.45977 362.007663,130.099617 363.203065,119.739464 C364.398467,110.375479 365.992337,99.2183908 366.789272,89.8544061 C367.187739,83.6781609 364,80.8888889 358.222222,81.2873563 C348.260536,82.0842912 343.678161,89.4559387 340.689655,98.2222222 C338.498084,104.597701 336.505747,113.363985 334.51341,119.938697 C331.32567,130.697318 327.938697,141.455939 319.969349,149.02682 C317.180077,151.616858 313.59387,153.609195 309.808429,154.804598 C306.022989,156 304.030651,154.206897 303.632184,149.624521 C303.233716,146.636015 303.43295,143.64751 303.831418,140.858238 C305.624521,127.509579 307.616858,117.747126 309.210728,104.398467 C310.206897,96.2298851 305.226054,95.0344828 297.256705,96.4291188 C293.471264,97.0268199 288.291188,98.8199234 285.701149,104.199234 C285.103448,105.394636 284.704981,106.390805 284.306513,107.386973 L284.306513,107.386973 L284.306513,107.386973 C283.908046,108.383142 283.708812,109.180077 283.509579,110.375479 C278.927203,127.708812 272.950192,138.467433 267.172414,147.831418 C259.800766,159.386973 249.042146,170.544061 245.655172,166.16092 C238.681992,157.195402 249.440613,137.869732 254.62069,126.51341 C259.800766,115.157088 265.37931,110.574713 261.394636,102.40613 C258.40613,96.0306513 253.226054,87.862069 245.655172,88.6590038 C238.681992,89.4559387 234.896552,90.8505747 227.126437,93.0421456 C221.149425,94.6360153 225.333333,88.4597701 226.130268,84.0766284 C227.126437,77.1034483 220.551724,76.5057471 214.375479,77.7011494 C208.199234,78.8965517 204.413793,82.6819923 203.417625,89.0574713 C202.421456,95.2337165 208.796935,100.613027 208.796935,101.210728 C208.796935,101.609195 204.214559,114.957854 202.022989,120.337165 C194.850575,137.869732 191.463602,143.448276 186.283525,145.440613 C181.103448,147.43295 179.111111,141.455939 179.708812,136.67433 C181.501916,122.727969 185.685824,107.187739 185.885057,93.2413793 C186.283525,79.0957854 184.888889,74.9118774 176.720307,68.9348659 C174.528736,67.3409962 168.35249,67.7394636 164.168582,77.9003831 C163.570881,79.4942529 157.793103,93.0421456 152.613027,105.793103 C150.421456,110.97318 139.862069,135.08046 131.494253,147.43295 C128.10728,151.816092 124.521073,154.40613 122.927203,150.819923 C120.934866,146.237548 120.137931,141.256705 119.739464,136.076628 C118.743295,125.716475 119.54023,114.559387 118.544061,104.199234 C117.747126,96.4291188 112.965517,93.8390805 105.394636,96.0306513 C99.4176245,97.6245211 94.6360153,101.210728 90.4521073,106.191571 C87.4636015,109.777778 84.2758621,113.363985 81.0881226,117.348659 C79.6934866,111.969349 78.8965517,106.988506 77.302682,102.206897 C75.5095785,96.6283525 71.7241379,95.2337165 65.7471264,96.8275862 C56.3831418,99.0191571 49.4099617,105.394636 43.4329502,112.965517 C41.2413793,115.754789 41.440613,115.356322 38.8505747,118.942529 C38.651341,115.754789 39.2490421,111.172414 38.2528736,104.597701 C37.4559387,99.0191571 34.6666667,97.8237548 29.48659,99.2183908 C24.3065134,100.613027 21.3180077,102.206897 21.3180077,102.206897 C15.7394636,104.597701 6.37547893,110.176245 3.38697318,114.957854 C1.1954023,118.544061 1.39463602,126.314176 3.18773946,126.114943 C7.77011494,125.915709 12.3524904,119.340996 14.3448276,117.348659 C15.9386973,115.754789 19.7241379,111.770115 21.1187739,111.371648 C21.1187739,111.371648 20.1226054,115.555556 19.1264368,118.743295 C18.1302682,121.931034 16.137931,129.701149 15.7394636,130.498084 C12.3524904,142.850575 12.1532567,152.812261 12.3524904,158.988506 C12.5517241,165.762452 11.7547893,172.735632 21.7164751,175.32567 C24.7049808,176.122605 27.2950192,177.118774 29.0881226,176.122605 C33.0727969,173.731801 34.467433,171.340996 35.4636015,166.758621 C36.0613027,162.97318 34.6666667,151.616858 35.6628352,142.05364 C36.8582375,130.896552 41.8390805,122.528736 51.2030651,116.153257 C55.7854406,113.164751 60.5670498,114.360153 61.3639847,119.340996 C61.7624521,121.731801 61.3639847,124.521073 61.164751,126.911877 C59.9693487,136.67433 58.7739464,141.057471 57.7777778,150.819923 C56.7816092,160.383142 54.789272,164.766284 63.7547893,169.547893 C64.9501916,170.145594 71.3256705,172.337165 72.9195402,172.337165 C80.6896552,172.536398 81.6858238,166.957854 82.0842912,160.980843 C82.6819923,151.816092 80.8888889,145.83908 80.6896552,136.67433 C80.4904215,128.904215 81.0881226,126.712644 88.0613027,120.735632 C91.4482759,117.747126 95.2337165,114.758621 99.4176245,116.950192 C103.203065,118.942529 102.804598,123.524904 102.206897,127.708812 C101.210728,135.08046 100.015326,143.049808 100.613027,150.421456 C101.409962,163.570881 111.371648,166.957854 113.563218,167.555556 C122.130268,169.747126 129.103448,164.56705 134.482759,158.191571 C144.045977,147.233716 150.022989,131.095785 154.40613,122.130268 C158.390805,113.961686 159.187739,110.773946 159.984674,109.37931 C159.586207,120.337165 155.800766,129.900383 155.800766,141.256705 C155.800766,147.43295 155.800766,156.996169 160.183908,161.777778 C163.969349,166.16092 166.758621,167.157088 170.942529,166.559387 C186.283525,164.766284 196.842912,149.823755 201.226054,142.252874 C207.203065,131.89272 211.187739,121.731801 214.375479,115.555556 C218.16092,107.785441 223.340996,105.793103 232.904215,106.789272 C238.681992,107.386973 242.268199,109.777778 240.275862,113.363985 C235.693487,122.130268 218.360153,150.819923 216.168582,157.793103 C213.180077,166.957854 216.965517,182.697318 231.310345,182.498084 C255.417625,182.099617 271.954023,157.195402 280.720307,139.463602 C280.521073,146.038314 281.318008,152.613027 284.505747,158.988506 C287.494253,164.965517 291.678161,169.94636 298.05364,170.145594 C307.218391,170.544061 315.586207,167.555556 321.961686,161.37931 C326.942529,156.398467 331.32567,150.819923 336.10728,145.440613 C336.10728,146.636015 335.908046,148.030651 336.10728,149.425287 C336.505747,155.003831 336.904215,158.191571 338.896552,163.969349 C339.89272,166.957854 342.084291,170.743295 345.471264,171.340996 C346.8659,171.54023 349.256705,171.938697 354.636015,170.942529 C360.015326,169.94636 371.770115,166.957854 380.137931,154.40613 C385.915709,146.038314 393.685824,131.295019 398.068966,124.321839 C397.670498,125.716475 396.475096,129.103448 396.076628,130.498084 C393.088123,140.061303 393.48659,151.019157 393.48659,158.988506 C393.685824,168.35249 395.877395,173.731801 405.440613,176.122605 C415.203065,178.712644 417.394636,172.337165 416.996169,164.56705 C416.996169,162.176245 414.605364,151.218391 415.203065,141.655172 C415.800766,130.697318 422.176245,122.927203 430.942529,117.547893 C435.524904,114.559387 438.911877,116.35249 439.111111,121.931034 C439.310345,124.321839 438.911877,126.911877 438.51341,129.501916 C437.118774,139.264368 436.122605,148.030651 434.727969,157.59387 C431.938697,175.724138 447.478927,175.126437 448.873563,175.32567 C456.444444,176.521073 459.43295,176.720307 459.831418,168.153257 C460.030651,158.988506 457.241379,152.413793 457.241379,143.448276 C457.241379,135.678161 458.436782,131.095785 464.812261,125.517241 C468,122.727969 471.785441,120.137931 475.570881,122.329502 C479.356322,124.720307 478.559387,129.302682 477.961686,133.48659 C476.965517,141.057471 476.766284,140.659004 476.965517,147.831418 C477.363985,157.992337 479.754789,161.180077 482.544061,163.770115 C484.536398,165.762452 488.720307,166.957854 488.720307,166.957854 L488.720307,166.957854 Z" id="Shape"></path>
                <path d="M198.636015,38.2528736 C199.233716,38.0536398 200.229885,38.4521073 201.624521,37.8544061 C203.218391,37.256705 204.015326,36.2605364 204.214559,36.0613027 C204.413793,35.862069 202.819923,36.8582375 202.421456,36.8582375 C202.022989,37.0574713 200.628352,37.0574713 200.229885,37.0574713 C200.030651,37.0574713 203.816092,35.2643678 205.210728,33.8697318 C206.605364,32.4750958 207.601533,30.8812261 207.800766,28.4904215 C208,26.2988506 207.402299,24.9042146 207.402299,23.5095785 L207.402299,21.7164751 C207.402299,21.5172414 207.003831,21.3180077 207.003831,21.1187739 C207.003831,20.9195402 209.195402,17.532567 209.793103,16.137931 C211.386973,12.7509579 206.40613,6.17624521 204.613027,5.18007663 C204.214559,4.98084291 203.417625,4.58237548 202.421456,4.38314176 C201.425287,4.18390805 194.850575,-0.996168582 186.482759,3.18773946 C180.505747,6.17624521 173.731801,12.7509579 183.494253,30.6819923 C187.877395,38.4521073 194.651341,39.8467433 198.636015,38.2528736 L198.636015,38.2528736 Z" id="Shape"></path>
            </g>
        </g>
    </g>
</svg>