<?xml version="1.0" encoding="utf-8"?>
<!-- Generator: Adobe Illustrator 21.0.2, SVG Export Plug-In . SVG Version: 6.00 Build 0)  -->
<svg version="1.1" id="Layer_1" xmlns="http://www.w3.org/2000/svg" xmlns:xlink="http://www.w3.org/1999/xlink" x="0px" y="0px"
	 viewBox="0 0 600 450" style="enable-background:new 0 0 600 450;" xml:space="preserve">
<style type="text/css">
	.st0{fill:#321C38;}
</style>
<g>
	<g>
		<path class="st0" d="M415.3,250.8c9.5,2.4,13.1-2.2,15.1-5.2c0.8-1.1,0.4-4.7-0.5-4.4c-0.4,0.2-1.5,1-2.6,2
			c-2.1,2-4.8,4.5-6.9-0.1l0,0c-1.2-2.6-1.6-3.5-2-6.4c-0.6-5.2,0.4-8.8,0.2-14.1c-0.2-3.8-3.2-5.2-6.7-4.6
			c-2.9,0.6-5.3,2.2-7.3,4.5c-1.5,1.6-3,3.3-4.6,5c-0.5-2.8-0.8-5.4-1.5-7.8c-0.7-2.7-2.5-3.6-5.2-3.2c-4.5,0.7-7.9,3.5-11,7.2
			c-1.1,1.3-2.1,2.2-3.4,3.8c-0.1-2.2-0.1-3.7-0.2-5.4c-0.2-3.1-1.7-4.3-4.4-3c-3.4,1.7-5.5,5-8.1,8.7c-3.3,4.7-6.4,13.7-10.6,16.4
			c-3.1,1.8-5.6,0.1-5.4-1.5c0.7-5.2,1.5-10.4,2.1-15.6c0.6-4.7,1.4-10.3,1.8-15c0.2-3.1-1.4-4.5-4.3-4.3c-5,0.4-7.3,4.1-8.8,8.5
			c-1.1,3.2-2.1,7.6-3.1,10.9c-1.6,5.4-3.3,10.8-7.3,14.6c-1.4,1.3-3.2,2.3-5.1,2.9c-1.9,0.6-2.9-0.3-3.1-2.6
			c-0.2-1.5-0.1-3,0.1-4.4c0.9-6.7,1.9-11.6,2.7-18.3c0.5-4.1-2-4.7-6-4c-1.9,0.3-4.5,1.2-5.8,3.9c-0.3,0.6-0.5,1.1-0.7,1.6l0,0
			c0,0,0,0,0,0c-0.2,0.5-0.3,0.9-0.4,1.5c-2.3,8.7-5.3,14.1-8.2,18.8c-3.7,5.8-9.1,11.4-10.8,9.2c-3.5-4.5,1.9-14.2,4.5-19.9
			c2.6-5.7,5.4-8,3.4-12.1c-1.5-3.2-4.1-7.3-7.9-6.9c-3.5,0.4-5.4,1.1-9.3,2.2c-3,0.8-0.9-2.3-0.5-4.5c0.5-3.5-2.8-3.8-5.9-3.2
			c-3.1,0.6-5,2.5-5.5,5.7c-0.5,3.1,2.7,5.8,2.7,6.1c0,0.2-2.3,6.9-3.4,9.6c-3.6,8.8-5.3,11.6-7.9,12.6c-2.6,1-3.6-2-3.3-4.4
			c0.9-7,3-14.8,3.1-21.8c0.2-7.1-0.5-9.2-4.6-12.2c-1.1-0.8-4.2-0.6-6.3,4.5c-0.3,0.8-3.2,7.6-5.8,14c-1.1,2.6-6.4,14.7-10.6,20.9
			c-1.7,2.2-3.5,3.5-4.3,1.7c-1-2.3-1.4-4.8-1.6-7.4c-0.5-5.2-0.1-10.8-0.6-16c-0.4-3.9-2.8-5.2-6.6-4.1c-3,0.8-5.4,2.6-7.5,5.1
			c-1.5,1.8-3.1,3.6-4.7,5.6c-0.7-2.7-1.1-5.2-1.9-7.6c-0.9-2.8-2.8-3.5-5.8-2.7c-4.7,1.1-8.2,4.3-11.2,8.1c-1.1,1.4-1,1.2-2.3,3
			c-0.1-1.6,0.2-3.9-0.3-7.2c-0.4-2.8-1.8-3.4-4.4-2.7c-2.6,0.7-4.1,1.5-4.1,1.5c-2.8,1.2-7.5,4-9,6.4c-1.1,1.8-1,5.7-0.1,5.6
			c2.3-0.1,4.6-3.4,5.6-4.4c0.8-0.8,2.7-2.8,3.4-3c0,0-0.5,2.1-1,3.7c-0.5,1.6-1.5,5.5-1.7,5.9c-1.7,6.2-1.8,11.2-1.7,14.3
			c0.1,3.4-0.3,6.9,4.7,8.2c1.5,0.4,2.8,0.9,3.7,0.4c2-1.2,2.7-2.4,3.2-4.7c0.3-1.9-0.4-7.6,0.1-12.4c0.6-5.6,3.1-9.8,7.8-13
			c2.3-1.5,4.7-0.9,5.1,1.6c0.2,1.2,0,2.6-0.1,3.8c-0.6,4.9-1.2,7.1-1.7,12c-0.5,4.8-1.5,7,3,9.4c0.6,0.3,3.8,1.4,4.6,1.4
			c3.9,0.1,4.4-2.7,4.6-5.7c0.3-4.6-0.6-7.6-0.7-12.2c-0.1-3.9,0.2-5,3.7-8c1.7-1.5,3.6-3,5.7-1.9c1.9,1,1.7,3.3,1.4,5.4
			c-0.5,3.7-1.1,7.7-0.8,11.4c0.4,6.6,5.4,8.3,6.5,8.6c4.3,1.1,7.8-1.5,10.5-4.7c4.8-5.5,7.8-13.6,10-18.1c2-4.1,2.4-5.7,2.8-6.4
			c-0.2,5.5-2.1,10.3-2.1,16c0,3.1,0,7.9,2.2,10.3c1.9,2.2,3.3,2.7,5.4,2.4c7.7-0.9,13-8.4,15.2-12.2c3-5.2,5-10.3,6.6-13.4
			c1.9-3.9,4.5-4.9,9.3-4.4c2.9,0.3,4.7,1.5,3.7,3.3c-2.3,4.4-11,18.8-12.1,22.3c-1.5,4.6,0.4,12.5,7.6,12.4
			c12.1-0.2,20.4-12.7,24.8-21.6c-0.1,3.3,0.3,6.6,1.9,9.8c1.5,3,3.6,5.5,6.8,5.6c4.6,0.2,8.8-1.3,12-4.4c2.5-2.5,4.7-5.3,7.1-8
			c0,0.6-0.1,1.3,0,2c0.2,2.8,0.4,4.4,1.4,7.3c0.5,1.5,1.6,3.4,3.3,3.7c0.7,0.1,1.9,0.3,4.6-0.2c2.7-0.5,8.6-2,12.8-8.3
			c2.9-4.2,6.8-11.6,9-15.1c-0.2,0.7-0.8,2.4-1,3.1c-1.5,4.8-1.3,10.3-1.3,14.3c0.1,4.7,1.2,7.4,6,8.6c4.9,1.3,6-1.9,5.8-5.8
			c0-1.2-1.2-6.7-0.9-11.5c0.3-5.5,3.5-9.4,7.9-12.1c2.3-1.5,4-0.6,4.1,2.2c0.1,1.2-0.1,2.5-0.3,3.8c-0.7,4.9-1.2,9.3-1.9,14.1
			c-1.4,9.1,6.4,8.8,7.1,8.9c3.8,0.6,5.3,0.7,5.5-3.6c0.1-4.6-1.3-7.9-1.3-12.4c0-3.9,0.6-6.2,3.8-9c1.6-1.4,3.5-2.7,5.4-1.6
			c1.9,1.2,1.5,3.5,1.2,5.6c-0.5,3.8-0.6,3.6-0.5,7.2c0.2,5.1,1.4,6.7,2.8,8C413.2,250.2,415.3,250.8,415.3,250.8z"/>
		<g>
			<path class="st0" d="M269.7,186.2c0.3-0.1,0.8,0.1,1.5-0.2c0.8-0.3,1.2-0.8,1.3-0.9c0.1-0.1-0.7,0.4-0.9,0.4
				c-0.2,0.1-0.9,0.1-1.1,0.1c-0.1,0,1.8-0.9,2.5-1.6c0.7-0.7,1.2-1.5,1.3-2.7c0.1-1.1-0.2-1.8-0.2-2.5c0-0.8,0-0.8,0-0.9
				c0-0.1-0.2-0.2-0.2-0.3c0-0.1,1.1-1.8,1.4-2.5c0.8-1.7-1.7-5-2.6-5.5c-0.2-0.1-0.6-0.3-1.1-0.4c-0.5-0.1-3.8-2.7-8-0.6
				c-3,1.5-6.4,4.8-1.5,13.8C264.3,186.3,267.7,187,269.7,186.2z"/>
		</g>
	</g>
</g>
</svg>
