<svg width="194" height="32" viewBox="0 0 194 32" xmlns="http://www.w3.org/2000/svg"><path d="M32,2c0,-0.53 -0.211,-1.039 -0.586,-1.414c-0.375,-0.375 -0.884,-0.586 -1.414,-0.586c-5.746,0 -22.254,0 -28,0c-0.53,0 -1.039,0.211 -1.414,0.586c-0.375,0.375 -0.586,0.884 -0.586,1.414c0,5.746 0,22.254 0,28c0,0.53 0.211,1.039 0.586,1.414c0.375,0.375 0.884,0.586 1.414,0.586c5.746,0 22.254,0 28,0c0.53,0 1.039,-0.211 1.414,-0.586c0.375,-0.375 0.586,-0.884 0.586,-1.414c0,-5.746 0,-22.254 0,-28Z" style="fill:#0059bf;"/><path d="M12,12l3,0l0,10l7,0l0,-15l3,0l0,18l-13,0l0,-13Zm-5,-5l13,0l0,13l-3,0l0,-10l-7,0l0,15l-3,0l0,-18Z" style="fill:#fff;"/><path d="M56.005,18.243c0,-1.242 0.246,-2.361 0.738,-3.357c0.492,-0.997 1.184,-1.762 2.074,-2.297c0.891,-0.535 1.914,-0.803 3.071,-0.803c1.711,0 3.099,0.551 4.166,1.652c1.066,1.102 1.642,2.563 1.728,4.383l0.012,0.668c0,1.25 -0.24,2.367 -0.721,3.352c-0.48,0.984 -1.168,1.746 -2.062,2.285c-0.895,0.539 -1.928,0.808 -3.1,0.808c-1.789,0 -3.221,-0.595 -4.295,-1.787c-1.074,-1.191 -1.611,-2.779 -1.611,-4.763l0,-0.141Zm122.712,1.019c0.086,1.047 0.436,1.876 1.049,2.485c0.613,0.609 1.385,0.914 2.314,0.914c1.305,0 2.368,-0.527 3.188,-1.582l1.535,1.465c-0.508,0.758 -1.186,1.345 -2.033,1.763c-0.848,0.418 -1.799,0.627 -2.854,0.627c-1.804,0 -3.267,-0.568 -4.388,-1.705c-1.122,-1.136 -1.682,-2.65 -1.682,-4.541l0,-0.351c0,-1.266 0.244,-2.397 0.732,-3.393c0.489,-0.996 1.174,-1.771 2.057,-2.326c0.883,-0.555 1.867,-0.832 2.953,-0.832c1.727,0 3.061,0.551 4.002,1.652c0.941,1.102 1.412,2.66 1.412,4.676l0,1.149l-8.285,0Zm-90.684,5.437l-2.578,0l-0.141,-1.313c-0.851,1.032 -1.988,1.547 -3.41,1.547c-1.484,0 -2.685,-0.597 -3.603,-1.793c-0.918,-1.195 -1.377,-2.82 -1.377,-4.875c0,-1.953 0.453,-3.521 1.359,-4.705c0.906,-1.183 2.121,-1.775 3.645,-1.775c1.343,0 2.429,0.469 3.257,1.406l0,-6.492l2.848,0l0,18Zm71.013,-9.023l-2.848,0c0,-0.696 0.231,-1.346 0.692,-1.952c0.461,-0.605 1.088,-1.08 1.881,-1.423c0.793,-0.344 1.677,-0.516 2.654,-0.516c1.484,0 2.668,0.373 3.551,1.119c0.882,0.746 1.336,1.795 1.359,3.147l0,5.718c0,1.141 0.16,2.051 0.48,2.731l0,0.199l-2.906,0c-0.125,-0.242 -0.234,-0.637 -0.328,-1.184c-0.906,0.946 -2.016,1.418 -3.328,1.418c-1.273,0 -2.313,-0.363 -3.117,-1.089c-0.805,-0.727 -1.207,-1.625 -1.207,-2.696c0,-1.351 0.502,-2.388 1.506,-3.111c1.004,-0.723 2.439,-1.084 4.306,-1.084l1.746,0l0,-0.832c0,-0.656 -0.183,-1.182 -0.55,-1.576c-0.368,-0.395 -0.926,-0.592 -1.676,-0.592c-0.649,0 -1.18,0.162 -1.594,0.486c-0.414,0.324 -0.621,0.737 -0.621,1.237Zm-24.241,-3.657l2.238,0l0,2.11l-2.238,0l0,7.078c0,0.484 0.096,0.834 0.287,1.049c0.192,0.214 0.533,0.322 1.025,0.322c0.329,0 0.661,-0.039 0.997,-0.117l0,2.203c-0.649,0.18 -1.274,0.269 -1.875,0.269c-2.188,0 -3.282,-1.207 -3.282,-3.621l0,-7.183l-2.086,0l0,-2.11l2.086,0l0,-3.082l2.848,0l0,3.082Zm-26.638,0.598l-2.953,0c0,-0.891 -0.28,-1.588 -0.838,-2.092c-0.559,-0.504 -1.358,-0.756 -2.397,-0.756c-0.968,0 -1.72,0.207 -2.255,0.621c-0.536,0.414 -0.803,0.993 -0.803,1.735c0,0.625 0.289,1.146 0.867,1.564c0.578,0.418 1.531,0.824 2.859,1.219c1.328,0.395 2.395,0.844 3.2,1.348c0.804,0.504 1.394,1.082 1.769,1.734c0.375,0.652 0.563,1.416 0.563,2.291c0,1.422 -0.545,2.553 -1.635,3.393c-1.09,0.839 -2.569,1.259 -4.436,1.259c-1.234,0 -2.369,-0.228 -3.404,-0.685c-1.035,-0.457 -1.84,-1.088 -2.414,-1.893c-0.574,-0.804 -0.861,-1.742 -0.861,-2.812l2.964,0c0,0.968 0.321,1.718 0.961,2.25c0.641,0.531 1.559,0.797 2.754,0.797c1.032,0 1.807,-0.209 2.326,-0.627c0.52,-0.418 0.78,-0.971 0.78,-1.659c0,-0.75 -0.264,-1.328 -0.791,-1.734c-0.528,-0.406 -1.479,-0.816 -2.854,-1.23c-1.375,-0.414 -2.469,-0.875 -3.281,-1.383c-1.555,-0.977 -2.332,-2.25 -2.332,-3.821c0,-1.375 0.56,-2.507 1.682,-3.398c1.121,-0.891 2.576,-1.336 4.365,-1.336c1.187,0 2.246,0.219 3.176,0.656c0.929,0.438 1.66,1.061 2.191,1.87c0.531,0.808 0.797,1.705 0.797,2.689Zm1.085,5.625c0,-1.242 0.246,-2.361 0.738,-3.357c0.492,-0.997 1.183,-1.762 2.074,-2.297c0.891,-0.535 1.914,-0.803 3.07,-0.803c1.711,0 3.1,0.551 4.166,1.652c1.067,1.102 1.643,2.563 1.729,4.383l0.012,0.668c0,1.25 -0.241,2.367 -0.721,3.352c-0.481,0.984 -1.168,1.746 -2.063,2.285c-0.894,0.539 -1.927,0.808 -3.099,0.808c-1.789,0 -3.221,-0.595 -4.295,-1.787c-1.074,-1.191 -1.611,-2.779 -1.611,-4.763l0,-0.141Zm-65.553,6.457l-2.965,0l0,-17.063l2.965,0l7.629,12.153l0,-12.153l2.942,0l0,17.063l-2.965,0l-7.606,-12.105l0,12.105Zm127.74,0l-2.847,0l0,-12.68l2.718,0l0.071,1.418c0.687,-1.101 1.64,-1.652 2.859,-1.652c0.406,0 0.742,0.055 1.008,0.164l-0.012,2.672c-0.375,-0.063 -0.762,-0.094 -1.16,-0.094c-1.305,0 -2.184,0.5 -2.637,1.5l0,8.672Zm-99.115,0l-2.848,0l0,-12.68l2.719,0l0.07,1.418c0.688,-1.101 1.641,-1.652 2.86,-1.652c0.406,0 0.742,0.055 1.008,0.164l-0.012,2.672c-0.375,-0.063 -0.762,-0.094 -1.16,-0.094c-1.305,0 -2.184,0.5 -2.637,1.5l0,8.672Zm54.014,0l-2.847,0l0,-10.57l-1.934,0l0,-2.11l1.934,0l0,-1.16c0,-1.406 0.39,-2.492 1.172,-3.258c0.781,-0.765 1.875,-1.148 3.281,-1.148c0.5,0 1.031,0.07 1.594,0.211l-0.071,2.226c-0.312,-0.062 -0.675,-0.093 -1.089,-0.093c-1.36,0 -2.04,0.699 -2.04,2.097l0,1.125l2.579,0l0,2.11l-2.579,0l0,10.57Zm17.619,0l-2.343,0l-3.469,-12.68l2.777,0l2.051,8.66l2.602,-8.66l2.144,0l2.637,8.754l2.015,-8.754l2.778,0l-3.457,12.68l-2.344,0l-2.719,-8.707l-2.672,8.707Zm-31.858,-6.211c0,1.305 0.27,2.326 0.809,3.065c0.539,0.738 1.289,1.107 2.25,1.107c0.961,0 1.709,-0.375 2.244,-1.125c0.535,-0.75 0.803,-1.848 0.803,-3.293c0,-1.281 -0.276,-2.297 -0.826,-3.047c-0.551,-0.75 -1.299,-1.125 -2.245,-1.125c-0.929,0 -1.668,0.369 -2.214,1.108c-0.547,0.738 -0.821,1.841 -0.821,3.31Zm-53.246,0c0,1.305 0.269,2.326 0.808,3.065c0.539,0.738 1.289,1.107 2.25,1.107c0.961,0 1.709,-0.375 2.244,-1.125c0.535,-0.75 0.803,-1.848 0.803,-3.293c0,-1.281 -0.275,-2.297 -0.826,-3.047c-0.551,-0.75 -1.299,-1.125 -2.244,-1.125c-0.93,0 -1.668,0.369 -2.215,1.108c-0.547,0.738 -0.82,1.841 -0.82,3.31Zm104.634,0.258l-1.535,0c-1.055,0 -1.847,0.183 -2.379,0.551c-0.531,0.367 -0.797,0.886 -0.797,1.558c0,0.547 0.182,0.983 0.545,1.307c0.364,0.324 0.85,0.486 1.459,0.486c0.563,0 1.092,-0.137 1.588,-0.41c0.496,-0.273 0.869,-0.641 1.119,-1.102l0,-2.39Zm-83.716,-0.235c0,1.29 0.248,2.295 0.745,3.018c0.496,0.723 1.201,1.084 2.115,1.084c1.164,0 2.015,-0.519 2.554,-1.559l0,-5.414c-0.523,-1.015 -1.367,-1.523 -2.531,-1.523c-0.922,0 -1.633,0.365 -2.133,1.096c-0.5,0.73 -0.75,1.83 -0.75,3.298Zm101.805,-4.441c-0.781,0 -1.412,0.274 -1.892,0.82c-0.481,0.547 -0.787,1.309 -0.92,2.286l5.426,0l0,-0.211c-0.063,-0.954 -0.317,-1.674 -0.762,-2.162c-0.445,-0.489 -1.063,-0.733 -1.852,-0.733Z"/></svg>
