<?xml version="1.0" encoding="utf-8"?>
<!-- Generator: Adobe Illustrator 21.1.0, SVG Export Plug-In . SVG Version: 6.00 Build 0)  -->
<svg version="1.1" id="Layer_1" xmlns="http://www.w3.org/2000/svg" xmlns:xlink="http://www.w3.org/1999/xlink" x="0px" y="0px"
	 viewBox="0 0 792 612" enable-background="new 0 0 792 612" xml:space="preserve">
<g>
	<g>
		<path fill="#E54196" d="M64.432,267.134v-84.608c0-12.161,4.598-22.472,13.793-30.933c9.195-8.461,20.372-12.695,33.536-12.695
			h129.815c12.982,0,24.113,4.274,33.401,12.823c9.283,8.548,13.928,18.818,13.928,30.805v83.817
			c0,12.166-4.644,22.609-13.928,31.331c-9.288,8.726-20.419,13.088-33.401,13.088H111.76c-12.805,0-23.892-4.316-33.265-12.956
			C69.118,289.17,64.432,278.946,64.432,267.134z M132.044,267.067h88.707c5.587,0,10.455-1.933,14.604-5.806
			c4.146-3.873,6.22-8.536,6.22-13.993v-46.198c0-5.28-1.986-9.679-5.95-13.2c-3.968-3.516-8.925-5.279-14.875-5.279h-88.707
			c-5.773,0-10.593,1.804-14.469,5.412c-3.88,3.609-5.814,7.966-5.814,13.068v46.198c0,5.279,1.935,9.901,5.814,13.861
			C121.45,265.088,126.271,267.067,132.044,267.067z"/>
		<path fill="#E54196" d="M311.078,310.761V138.897h152.264c14.781,0,26.366,4.758,34.75,14.271
			c8.384,9.517,12.577,26.784,12.577,51.8c0,25.373-4.148,42.594-12.442,51.667c-8.294,9.075-19.924,13.61-34.885,13.61H358.407
			v40.516H311.078z M358.407,182.591v43.959h86.003c5.044,0,9.466-2.107,13.251-6.319c3.788-4.212,5.682-9.301,5.682-15.268
			c0-6.14-1.894-11.404-5.682-15.789c-3.784-4.386-8.477-6.583-14.062-6.583H358.407z"/>
		<path fill="#E54196" d="M530.951,255.679l47.329,1.325c0,5.297,1.306,9.843,3.921,13.638c2.612,3.799,5.815,5.693,9.601,5.693
			h64.908c6.49,0,12.035-1.63,16.633-4.898c4.598-3.266,6.896-7.192,6.896-11.786c0-4.237-1.623-7.853-4.868-10.857
			c-3.245-2.999-7.213-4.502-11.899-4.502l-85.192-2.912c-16.227,0-28.173-3.827-35.834-11.491
			c-7.666-7.659-11.495-17.651-11.495-29.978v-26.676c0-9.509,4.598-17.61,13.793-24.3s20.372-10.038,33.536-10.038h106.828
			c10.278,0,19.021,3.356,26.234,10.063c7.208,6.711,10.817,14.83,10.817,24.363v16.418H674.83c0-4.94-1.533-8.912-4.598-11.916
			c-3.068-3-7.843-4.502-14.333-4.502h-64.908c-3.427,0-6.401,1.415-8.925,4.237c-2.527,2.827-3.786,6.269-3.786,10.328
			c0,5.122,0.494,8.785,1.488,10.99c0.989,2.21,3.828,3.31,8.519,3.31l91.952,2.913c14.423,0,25.917,3.575,34.482,10.725
			c8.561,7.15,12.846,19.993,12.846,38.531c0,22.07-4.868,36.987-14.605,44.753c-9.735,7.771-24.433,11.651-44.082,11.651H578.28
			c-12.982,0-24.116-3.397-33.4-10.196c-9.287-6.793-13.929-14.87-13.929-24.23V255.679z"/>
	</g>
	<g>
		<path fill="#E54196" d="M98.356,457.752v47.879H63.445V376.158h34.911v46.681h86.182v-46.681h34.912v129.472h-34.912v-47.879
			H98.356z"/>
		<path fill="#E54196" d="M237.403,472.764v-63.739c0-9.162,3.392-16.929,10.175-23.304c6.782-6.373,15.027-9.563,24.737-9.563
			h95.758c9.576,0,17.786,3.22,24.637,9.66c6.849,6.441,10.275,14.178,10.275,23.207v63.144c0,9.165-3.426,17.032-10.275,23.602
			c-6.851,6.575-15.06,9.86-24.637,9.86h-95.758c-9.445,0-17.624-3.251-24.538-9.76C240.86,489.365,237.403,481.663,237.403,472.764
			z M287.277,472.714h65.434c4.121,0,7.712-1.456,10.773-4.374c3.057-2.916,4.588-6.431,4.588-10.541v-34.803
			c0-3.977-1.465-7.29-4.39-9.943c-2.927-2.649-6.583-3.977-10.972-3.977h-65.434c-4.258,0-7.815,1.359-10.673,4.077
			c-2.862,2.718-4.289,6-4.289,9.843v34.803c0,3.977,1.427,7.459,4.289,10.443C279.463,471.224,283.019,472.714,287.277,472.714z"/>
		<path fill="#E54196" d="M419.938,464.135l34.912,0.998c0,3.99,0.964,7.416,2.893,10.274c1.926,2.862,4.29,4.29,7.083,4.29h47.879
			c4.787,0,8.877-1.228,12.268-3.691c3.392-2.459,5.088-5.418,5.088-8.878c0-3.193-1.197-5.916-3.591-8.179
			c-2.395-2.26-5.321-3.392-8.778-3.392l-62.841-2.193c-11.969,0-20.781-2.884-26.433-8.656c-5.653-5.769-8.479-13.297-8.479-22.584
			v-20.095c0-7.164,3.392-13.267,10.175-18.307c6.782-5.039,15.027-7.562,24.736-7.562h78.801c7.581,0,14.031,2.528,19.352,7.581
			c5.317,5.055,7.979,11.172,7.979,18.353v12.369h-34.912c0-3.721-1.131-6.714-3.391-8.977c-2.263-2.26-5.786-3.392-10.574-3.392
			h-47.879c-2.527,0-4.722,1.067-6.583,3.193c-1.863,2.129-2.793,4.722-2.793,7.781c0,3.858,0.364,6.617,1.097,8.279
			c0.73,1.665,2.824,2.493,6.284,2.493l67.829,2.195c10.638,0,19.117,2.693,25.436,8.079c6.315,5.387,9.476,15.062,9.476,29.026
			c0,16.627-3.591,27.864-10.773,33.715c-7.181,5.855-18.022,8.778-32.517,8.778H454.85c-9.576,0-17.789-2.559-24.637-7.681
			c-6.852-5.119-10.275-11.202-10.275-18.253V464.135z"/>
		<path fill="#E54196" d="M674.691,505.631h-39.698v-94.56h-54.064v-34.912h147.627v34.912h-53.864V505.631z"/>
	</g>
	<rect x="64.432" y="336.689" fill="#E54196" width="663.137" height="18.999"/>
</g>
</svg>
