<?xml version="1.0" encoding="utf-8"?>
<!-- Generator: Adobe Illustrator 16.0.0, SVG Export Plug-In . SVG Version: 6.00 Build 0)  -->
<!DOCTYPE svg PUBLIC "-//W3C//DTD SVG 1.1//EN" "http://www.w3.org/Graphics/SVG/1.1/DTD/svg11.dtd">
<svg version="1.1" id="Layer_1" xmlns="http://www.w3.org/2000/svg" xmlns:xlink="http://www.w3.org/1999/xlink" x="0px" y="0px"
	 width="450.667px" height="448.667px" viewBox="0 0 450.667 448.667" enable-background="new 0 0 450.667 448.667"
	 xml:space="preserve">
<g>
	<defs>
		<rect id="SVGID_1_" width="450.667" height="448.667"/>
	</defs>
	<clipPath id="SVGID_2_">
		<use xlink:href="#SVGID_1_"  overflow="visible"/>
	</clipPath>
	<path clip-path="url(#SVGID_2_)" fill="#E73743" d="M320.94,320.85l3.204-2.376c-1.584-2.376-3.672-3.852-6.624-3.852
		c-3.852,0-6.876,2.88-6.876,6.695c0,7.021,10.836,6.732,10.836,11.484c0,2.232-1.476,3.708-3.6,3.708
		c-1.836,0-3.24-1.008-4.248-3.384h-0.36l-3.312,2.412c1.26,3.384,4.248,5.363,7.92,5.363c4.68,0,8.279-3.672,8.279-8.1
		c0-8.28-10.836-8.172-10.836-11.484c0-1.367,0.828-2.304,2.196-2.304c1.224,0,2.088,0.648,3.06,1.836H320.94z M277.91,315.162
		l-0.18,0.18v13.86c0,7.38,5.04,11.699,11.16,11.699s11.16-4.319,11.16-11.699v-13.86l-0.181-0.18h-3.852l-0.18,0.18v13.14
		c0,5.292-3.133,8.028-6.948,8.028c-3.853,0-6.984-2.736-6.984-8.028v-13.14l-0.18-0.18H277.91z M257.517,320.813l3.636,9.721
		h-7.234L257.517,320.813z M255.537,315.162l-0.18,0.18l-9.864,24.84l0.181,0.18h4.427l0.181-0.18l2.123-5.472h10.261l2.089,5.472
		l0.179,0.18h4.429l0.179-0.18l-9.827-24.84l-0.18-0.18H255.537z M221.546,319.374h2.844c2.34,0,3.708,1.116,3.708,3.132
		s-1.368,3.168-3.708,3.168h-2.844V319.374z M217.55,315.162l-0.18,0.18v24.84l0.18,0.18h3.816l0.18-0.18V329.85h2.664l7.74,10.332
		l0.181,0.18h4.932l0.18-0.18l-8.424-11.412c2.484-1.08,4.032-3.384,4.032-6.264c0-4.14-3.24-7.344-8.46-7.344H217.55z
		 M183.401,315.162l-0.18,0.18v13.86c0,7.38,5.04,11.699,11.16,11.699c6.12,0,11.16-4.319,11.16-11.699v-13.86l-0.18-0.18h-3.852
		l-0.18,0.18v13.14c0,5.292-3.132,8.028-6.948,8.028c-3.852,0-6.984-2.736-6.984-8.028v-13.14l-0.18-0.18H183.401z M163.007,320.813
		l3.636,9.721h-7.236L163.007,320.813z M161.027,315.162l-0.18,0.18l-9.864,24.84l0.18,0.18h4.428l0.18-0.18l2.124-5.472h10.26
		l2.088,5.472l0.18,0.18h4.428l0.18-0.18l-9.828-24.84l-0.18-0.18H161.027z M122.559,315.162l-0.18,0.18l9.648,24.84l0.18,0.18
		h3.996l0.18-0.18l9.648-24.84l-0.18-0.18h-4.356l-0.18,0.18l-7.128,18.828l-7.092-18.828l-0.18-0.18H122.559z"/>
	<path clip-path="url(#SVGID_2_)" fill="#E73743" d="M304.726,108.404c-3.569-2.339-8.352-1.339-10.688,2.226l-69.228,105.66
		L155.58,110.63c-2.338-3.566-7.121-4.563-10.686-2.226c-3.566,2.336-4.562,7.121-2.226,10.686l72.915,111.284l-16.817,25.667
		c-2.337,3.564-1.341,8.349,2.226,10.687c1.304,0.854,2.771,1.263,4.222,1.263c2.515,0,4.982-1.228,6.463-3.489l13.133-20.043
		l13.133,20.043c1.482,2.262,3.949,3.489,6.465,3.489c1.449,0,2.918-0.408,4.222-1.263c3.565-2.338,4.562-7.122,2.228-10.687
		l-16.819-25.668l72.915-111.283C309.287,115.525,308.29,110.74,304.726,108.404"/>
</g>
</svg>
