<?xml version="1.0" encoding="UTF-8" standalone="no"?>
<svg width="527px" height="195px" viewBox="0 0 527 195" version="1.1" xmlns="http://www.w3.org/2000/svg" xmlns:xlink="http://www.w3.org/1999/xlink" xmlns:sketch="http://www.bohemiancoding.com/sketch/ns">
    <!-- Generator: Sketch 3.4.4 (17249) - http://www.bohemiancoding.com/sketch -->
    <title>wunder</title>
    <desc>Created with Sketch.</desc>
    <defs>
        <linearGradient x1="14.6064414%" y1="12.1154696%" x2="85.3726485%" y2="70.7256568%" id="linearGradient-1">
            <stop stop-color="#F7A941" offset="0%"></stop>
            <stop stop-color="#F6A33D" offset="7%"></stop>
            <stop stop-color="#F38F30" offset="39%"></stop>
            <stop stop-color="#F18229" offset="70%"></stop>
            <stop stop-color="#F07E26" offset="100%"></stop>
        </linearGradient>
    </defs>
    <g id="Page-1" stroke="none" stroke-width="1" fill="none" fill-rule="evenodd" sketch:type="MSPage">
        <g id="wunder" sketch:type="MSLayerGroup" transform="translate(3.000000, 2.000000)">
            <path d="M428,25.8 C427.866667,27 427.8,28.2 427.8,29.4 C427.710025,39.9103445 431.812722,50.0231319 439.2,57.5 C445.455793,63.7168009 453.634042,67.6296701 462.4,68.6 C455.958586,60.0716187 452.450436,49.6874952 452.4,39 C452.415324,36.5550045 452.615898,34.114685 453,31.7 C446.605502,27.736774 439.22296,25.6571848 431.7,25.7 L428,25.8 Z" id="Shape" fill="#95C11F" sketch:type="MSShapeGroup"></path>
            <path d="M459.5,31.3 C459.046978,33.8082764 458.812764,36.3511736 458.8,38.9 C458.884985,49.4692733 462.630948,59.6823223 469.4,67.8 C469.3,66.8 469.3,65.8 469.3,64.8 C469.198482,53.1999647 473.73451,42.0398964 481.9,33.8 C485.095701,30.6372285 488.775216,28.0041815 492.8,26 C491.970875,16.4077368 488.15925,7.31578754 481.9,7.10542736e-15 C470.14224,6.57415139 461.929479,18.0500185 459.5,31.3 L459.5,31.3 Z" id="Shape" fill="#95C11F" sketch:type="MSShapeGroup"></path>
            <path d="M519.3,25.5 L515.7,25.3 C505.148117,25.1363753 494.980353,29.2559421 487.518147,36.7181475 C480.055942,44.1803528 475.936375,54.3481166 476.1,64.9 C476.1,66.1 476.1,67.3 476.3,68.6 L480,68.8 C490.534665,68.9363316 500.676339,64.8047135 508.116672,57.3455441 C515.557005,49.8863748 519.662967,39.7342871 519.5,29.2 C519.4,27.9 519.4,26.7 519.3,25.5 L519.3,25.5 Z" id="Shape" fill="#95C11F" sketch:type="MSShapeGroup"></path>
            <path d="M503.9,86.2 C485.861727,69.9355399 458.413619,70.0545581 440.517071,86.4748357 C422.620522,102.895113 420.144733,130.231595 434.8,149.6 C436.00188,151.213895 437.304472,152.750285 438.7,154.2 L472.4,187.9 L506.1,154.2 C515.085384,145.020324 519.931708,132.569008 519.51634,119.730354 C519.100972,106.8917 513.459951,94.7796798 503.9,86.2 L503.9,86.2 Z" id="Shape" fill="url(#linearGradient-1)" sketch:type="MSShapeGroup"></path>
            <path d="M43.6,128.6 L32.9,165.5 C32.0353829,168.721389 29.1472664,170.984719 25.8125873,171.054191 C22.4779082,171.123664 19.4980332,168.982584 18.5,165.8 L1.3,111.8 C1.0779702,111.192053 0.976085167,110.546781 1,109.9 C1.08372335,106.67895 3.44837837,103.973672 6.62928089,103.459834 C9.81018341,102.945996 12.9063529,104.769141 14,107.8 L25.5,147 L36.3,108.7 C37.2254076,105.480108 40.1500792,103.245984 43.5,103.2 C46.708775,103.401032 49.4949103,105.480823 50.6,108.5 L61.4,147.1 L73,107.7 C74.0936471,104.669141 77.1898166,102.845996 80.3707191,103.359834 C83.5516216,103.873672 85.9162767,106.57895 86,109.8 C86.0239148,110.446781 85.9220298,111.092053 85.7,111.7 L68.6,165.7 C67.7359828,168.939119 64.8023753,171.192777 61.45,171.192777 C58.0976247,171.192777 55.1640172,168.939119 54.3,165.7 L43.6,128.6 Z" id="Shape" fill="#4C565C" sketch:type="MSShapeGroup"></path>
            <path d="M133.2,109.8 C133.173214,108.032309 133.856726,106.327769 135.097381,105.068316 C136.338036,103.808863 138.032106,103.099797 139.8,103.1 C143.500308,103.1 146.5,106.099692 146.5,109.8 L146.5,159.9 C146.507668,163.488681 144.208072,166.675841 140.8,167.8 C134.271434,170.061961 127.409306,171.211283 120.5,171.2 C113,171.2 106.3,169 101.5,164.2 C96.7,159.4 94.7,152.8 94.7,145.2 L94.7,109.8 C94.6999999,107.424184 95.9674827,105.228839 98.0249999,104.040931 C100.082517,102.853023 102.617483,102.853023 104.675,104.040931 C106.732517,105.228839 108,107.424184 108,109.8 L108,146.2 C108,154.2 112.6,158.7 120.5,158.7 C124.746243,158.729625 128.979388,158.22568 133.1,157.2 L133.1,109.8 L133.2,109.8 Z" id="Shape" fill="#4C565C" sketch:type="MSShapeGroup"></path>
            <path d="M198.2,127.9 C198.2,120 193.6,115.4 185.6,115.4 C181.349334,115.399866 177.115725,115.937467 173,117 L173,164.3 C173,167.972694 170.022694,170.95 166.35,170.95 C162.677306,170.95 159.7,167.972694 159.7,164.3 L159.7,114.3 C159.660396,110.701117 161.972177,107.497069 165.4,106.4 C171.864205,104.156395 178.657511,103.007278 185.5,103 C193.1,103 199.6,105.5 204.2,110.2 C208.8,114.9 211.4,121.3 211.4,128.8 L211.4,164.3 C211.4,168.000308 208.400308,171 204.7,171 C202.932106,171.000203 201.238036,170.291137 199.997381,169.031684 C198.756726,167.772231 198.073214,166.067691 198.1,164.3 L198.1,127.9 L198.2,127.9 Z" id="Shape" fill="#4C565C" sketch:type="MSShapeGroup"></path>
            <path d="M222.3,128.9 C222.3,121.4 224.6,114.8 229.3,110.2 C234,105.6 240.7,103.1 248.1,103.1 C252.502722,103.268224 256.810298,104.430585 260.7,106.5 L260.7,84.8 C260.673214,83.0323094 261.356726,81.3277687 262.597381,80.0683156 C263.838036,78.8088626 265.532106,78.0997971 267.3,78.1 C269.07695,78.1 270.781122,78.8058908 272.037615,80.0623846 C273.294109,81.3188783 274,83.0230495 274,84.8 L274,159.9 C274.007668,163.488681 271.708072,166.675841 268.3,167.8 C261.765924,170.040283 254.907453,171.188993 248,171.2 C240.5,171.2 234.1,168.7 229.3,164 C224.5,159.3 222.2,152.9 222.2,145.3 L222.2,128.9 L222.3,128.9 Z M260.7,120 C257.171716,117.032507 252.710291,115.403733 248.1,115.4 C240.2,115.4 235.6,120 235.6,127.9 L235.6,146.3 C235.6,154.3 240.2,158.8 248.1,158.8 C252.359033,158.82848 256.600802,158.256178 260.7,157.1 L260.7,120 L260.7,120 Z" id="Shape" fill="#4C565C" sketch:type="MSShapeGroup"></path>
            <path d="M298.7,143.3 C298.7,148.6 299.6,152.1 301.3,154.4 C303,156.7 306.8,158.8 311.2,158.8 C316.019634,158.647638 320.754208,157.489541 325.1,155.4 C325.95028,155.019819 326.868729,154.815719 327.8,154.8 C331.181966,154.849148 333.941811,157.521378 334.1,160.9 C334.230492,163.339777 332.892612,165.622042 330.7,166.7 C324.582805,169.628074 317.881787,171.132384 311.1,171.1 C303.6,171.1 297.2,168.6 292.4,163.9 C287.6,159.2 285.3,152.8 285.3,145.2 L285.3,128.9 C285.3,121.4 287.8,115 292.4,110.3 C297,105.6 303.6,103.1 311.1,103.1 C318.6,103.1 325.2,105.6 329.8,110.3 C334.4,115 337,121.4 337,128.9 L337,135 C337,139.639192 333.239192,143.4 328.6,143.4 L298.7,143.4 L298.7,143.3 Z M323.9,131 C323.9,120.3 319.5,115.3 311.3,115.3 C303.1,115.3 298.8,120.2 298.8,131 L324,131 L323.9,131 Z" id="Shape" fill="#4C565C" sketch:type="MSShapeGroup"></path>
            <path d="M347.6,122.3 C347.489743,117.174838 349.477168,112.226919 353.102044,108.602044 C356.726919,104.977168 361.674838,102.989743 366.8,103.1 C370.058435,103.111956 373.307659,103.446928 376.5,104.1 C379.540926,104.670924 381.757929,107.30623 381.8,110.4 C381.828293,112.070357 381.170285,113.679225 379.979583,114.851027 C378.78888,116.02283 377.169691,116.655013 375.5,116.6 C374.755472,116.615995 374.013062,116.514757 373.3,116.3 C371.212538,115.72019 369.064836,115.384612 366.9,115.3 C363.663939,115.3535 361.0535,117.963939 361,121.2 L361,164.3 C361,167.972694 358.022694,170.95 354.35,170.95 C350.677306,170.95 347.7,167.972694 347.7,164.3 L347.7,122.3 L347.6,122.3 Z" id="Shape" fill="#4C565C" sketch:type="MSShapeGroup"></path>
        </g>
    </g>
</svg>